<svg width="30" height="30" viewBox="0 0 30 30" fill="none" xmlns="http://www.w3.org/2000/svg">
<circle cx="14.5337" cy="14.5337" r="14.5337" fill="#109615"/>
<path d="M11.8317 7.14758C10.4608 7.14758 9.21881 7.35565 8.29847 7.70263C7.83827 7.87613 7.45683 8.08222 7.17693 8.33137C6.89703 8.58052 6.71216 8.88902 6.71216 9.23079C6.71216 9.23927 6.71281 9.2471 6.71281 9.25558C6.71281 9.25753 6.71216 9.25949 6.71216 9.26079V11.5827C6.71216 11.5912 6.71281 11.599 6.71281 11.6075C6.71281 11.6101 6.71216 11.612 6.71216 11.614V13.9359C6.71216 13.945 6.71216 13.9535 6.71281 13.9626V13.9633C6.71216 13.9646 6.71216 13.9659 6.71216 13.9665V16.2898C6.71216 16.2982 6.71216 16.3074 6.71281 16.3159V16.3165C6.71216 16.3172 6.71216 16.3185 6.71216 16.3198V18.643C6.71216 18.9652 6.87814 19.258 7.132 19.4987C7.3852 19.7394 7.73019 19.9409 8.15005 20.1131C8.98975 20.4575 10.1295 20.6779 11.4158 20.719C11.4809 20.7217 11.544 20.6975 11.5916 20.6532C11.6391 20.6088 11.6664 20.5469 11.669 20.4816C11.671 20.4164 11.6475 20.3531 11.6026 20.3055C11.5584 20.2579 11.4972 20.2299 11.4321 20.2279C10.1934 20.1888 9.09916 19.9709 8.33697 19.6585C7.95552 19.502 7.65806 19.322 7.46864 19.1419C7.27922 18.9619 7.2024 18.7989 7.2024 18.643V17.2094C7.44846 17.422 7.77 17.604 8.1521 17.7605C8.9918 18.1049 10.1296 18.3254 11.4159 18.3658V18.3665C11.4809 18.3684 11.5441 18.3449 11.5916 18.2999C11.6391 18.2556 11.6665 18.1943 11.6691 18.129C11.671 18.0638 11.6476 18.0006 11.6027 17.9529C11.5584 17.9053 11.4972 17.8773 11.4321 17.8753C10.1934 17.8362 9.09922 17.6183 8.33702 17.3059C7.95557 17.1494 7.65811 16.9694 7.46869 16.7894C7.27927 16.6093 7.20245 16.4463 7.20245 16.2904V14.8575C7.44786 15.0701 7.7681 15.2521 8.1502 15.4086C8.9899 15.753 10.1297 15.9734 11.416 16.0139V16.0132C11.481 16.0158 11.5442 15.9917 11.5917 15.9473C11.6392 15.903 11.6666 15.841 11.6692 15.7758C11.6711 15.7112 11.6477 15.648 11.6028 15.6003C11.5585 15.5527 11.4973 15.5247 11.4322 15.5221C10.1935 15.4829 9.09931 15.2651 8.33712 14.9527C7.95567 14.7961 7.65821 14.6161 7.46879 14.4361C7.27937 14.2561 7.20255 14.0911 7.20255 13.9358V12.5036C7.47985 12.7429 7.85217 12.9445 8.29871 13.1127C9.21911 13.4597 10.4612 13.6658 11.8319 13.6658C13.2028 13.6658 14.4441 13.4597 15.3644 13.1127C15.8123 12.9438 16.1833 12.7423 16.4612 12.5023V12.799L16.4606 12.7997C16.4606 12.9353 16.5693 13.0456 16.7047 13.0462C16.7704 13.0469 16.8329 13.0208 16.8791 12.9745C16.9254 12.9282 16.9514 12.8655 16.9507 12.7997V9.23067C16.9507 8.8889 16.7639 8.58105 16.484 8.33125C16.2041 8.0821 15.824 7.87599 15.3638 7.7025C14.4434 7.35552 13.202 7.14746 11.8312 7.14746L11.8317 7.14758ZM11.8317 7.63936C13.1524 7.63936 14.3469 7.84352 15.1904 8.16114C15.6122 8.32029 15.9448 8.50943 16.1583 8.69989C16.3718 8.89035 16.461 9.06514 16.461 9.23081C16.461 9.39647 16.3718 9.57193 16.1583 9.76237C15.9448 9.95282 15.6122 10.1413 15.1904 10.3005C14.3468 10.6181 13.1524 10.8229 11.8317 10.8229C10.5109 10.8229 9.31579 10.6187 8.47228 10.3005C8.05049 10.1413 7.71786 9.95284 7.50435 9.76237C7.29084 9.57191 7.20232 9.39648 7.20232 9.23081C7.20232 9.06514 7.29085 8.89034 7.50435 8.69989C7.71785 8.50944 8.05047 8.3203 8.47228 8.16114C9.31588 7.84352 10.5109 7.63936 11.8317 7.63936ZM16.461 10.1498V11.5834C16.461 11.749 16.3718 11.9258 16.1583 12.1162C15.9448 12.3067 15.6122 12.4939 15.1904 12.653C14.3468 12.9706 13.1524 13.1748 11.8317 13.1748C10.5109 13.1748 9.31579 12.9706 8.47228 12.653C8.05049 12.4939 7.71786 12.3067 7.50435 12.1162C7.29084 11.9258 7.20232 11.749 7.20232 11.5834V10.1511C7.47962 10.3904 7.85194 10.59 8.29847 10.7583C9.21888 11.1053 10.4609 11.3133 11.8317 11.3133C13.2025 11.3133 14.4439 11.1053 15.3642 10.7583C15.812 10.5894 16.1831 10.3898 16.461 10.1498ZM17.2786 13.5244C15.9077 13.5244 14.6664 13.7305 13.746 14.0775C13.2858 14.251 12.9037 14.4591 12.6238 14.7082C12.3439 14.9573 12.1591 15.2658 12.1591 15.6076C12.1591 15.6161 12.1597 15.6239 12.1597 15.6324C12.1591 15.6344 12.1591 15.6363 12.1591 15.6383V17.9602C12.1591 17.9686 12.1597 17.9771 12.1597 17.9856V17.9849C12.1591 17.9869 12.1591 17.9889 12.1591 17.9908V20.3127C12.1591 20.6545 12.3439 20.9623 12.6238 21.2121C12.9037 21.4613 13.2858 21.6693 13.746 21.8428C14.6664 22.1898 15.9078 22.3959 17.2786 22.3959C18.6494 22.3959 19.8894 22.1898 20.8098 21.8428C21.27 21.6693 21.6514 21.4613 21.9313 21.2121C22.2112 20.963 22.3961 20.6545 22.3961 20.3127V15.6075L22.3954 15.6068C22.3954 15.599 22.3954 15.5905 22.3948 15.5827C22.3863 15.2507 22.2041 14.9513 21.9307 14.708C21.6508 14.4589 21.2693 14.2508 20.8091 14.0774C19.8887 13.7304 18.6487 13.5243 17.2779 13.5243L17.2786 13.5244ZM17.2786 14.0155C18.5993 14.0155 19.7945 14.2197 20.638 14.538C21.0598 14.6971 21.3924 14.8836 21.6059 15.0741C21.8194 15.2645 21.906 15.4419 21.906 15.6076C21.906 15.7733 21.8194 15.9481 21.6059 16.1385C21.3924 16.329 21.0598 16.5162 20.638 16.6753C19.7944 16.9929 18.5993 17.199 17.2786 17.199C15.9578 17.199 14.7615 16.9936 13.9178 16.6753C13.496 16.5162 13.1634 16.329 12.9499 16.1385C12.7364 15.9481 12.6492 15.7733 12.6492 15.6076C12.6492 15.4419 12.7364 15.2645 12.9499 15.0741C13.1634 14.8836 13.496 14.6971 13.9178 14.538C14.7614 14.2203 15.9578 14.0155 17.2786 14.0155ZM12.6492 16.5266C12.9265 16.766 13.2988 16.9675 13.746 17.1358C14.6664 17.4828 15.9078 17.6902 17.2786 17.6902C18.6494 17.6902 19.8894 17.4828 20.8098 17.1358C21.2563 16.9675 21.6286 16.766 21.9059 16.5266V17.9602C21.9059 18.1259 21.8194 18.3013 21.6058 18.4918C21.3923 18.6822 21.0597 18.8707 20.6379 19.0299C19.7943 19.3475 18.5993 19.5523 17.2785 19.5523C15.9578 19.5523 14.7615 19.3481 13.9178 19.0299C13.496 18.8707 13.1634 18.6822 12.9499 18.4918C12.7363 18.3013 12.6491 18.1259 12.6491 17.9602L12.6492 16.5266ZM12.6492 18.8812C12.9265 19.1206 13.2988 19.3202 13.746 19.4884C14.6664 19.8354 15.9078 20.0435 17.2786 20.0435C18.6494 20.0435 19.8894 19.8354 20.8098 19.4884C21.2563 19.3202 21.6286 19.1206 21.9059 18.8812V20.3135C21.9059 20.4792 21.8194 20.6546 21.6058 20.8451C21.3923 21.0355 21.0597 21.224 20.6379 21.3832C19.7943 21.7008 18.5993 21.9056 17.2785 21.9056C15.9578 21.9056 14.7615 21.7014 13.9178 21.3832C13.496 21.224 13.1634 21.0355 12.9499 20.8451C12.7363 20.6546 12.6491 20.4792 12.6491 20.3135L12.6492 18.8812Z" fill="white" stroke="white" stroke-width="0.3"/>
</svg>
