<svg width="20" height="22" viewBox="0 0 20 22" fill="none" xmlns="http://www.w3.org/2000/svg">
<g id="Group">
<g id="Group_2">
<g id="Group_3">
<path id="Vector" d="M5.96718 9.48053H3.86769C3.64669 9.48053 3.46989 9.65733 3.46989 9.87833C3.46989 10.0993 3.64669 10.2761 3.86769 10.2761H5.96718C6.18818 10.2761 6.36498 10.0993 6.36498 9.87833C6.36498 9.65733 6.18818 9.48053 5.96718 9.48053Z" fill="white"/>
<path id="Vector_2" d="M10.7848 9.48053H8.68526C8.46426 9.48053 8.28746 9.65733 8.28746 9.87833C8.28746 10.0993 8.46426 10.2761 8.68526 10.2761H10.7848C11.0058 10.2761 11.1826 10.0993 11.1826 9.87833C11.2047 9.65733 11.0058 9.48053 10.7848 9.48053Z" fill="white"/>
<path id="Vector_3" d="M15.6246 9.48053H13.5251C13.3041 9.48053 13.1273 9.65733 13.1273 9.87833C13.1273 10.0993 13.3041 10.2761 13.5251 10.2761H15.6246C15.8456 10.2761 16.0224 10.0993 16.0224 9.87833C16.0224 9.65733 15.8456 9.48053 15.6246 9.48053Z" fill="white"/>
<path id="Vector_4" d="M5.96718 13.0609H3.86769C3.64669 13.0609 3.46989 13.2377 3.46989 13.4587C3.46989 13.6797 3.64669 13.8565 3.86769 13.8565H5.96718C6.18818 13.8565 6.36498 13.6797 6.36498 13.4587C6.36498 13.2377 6.18818 13.0609 5.96718 13.0609Z" fill="white"/>
<path id="Vector_5" d="M10.7848 13.0609H8.68526C8.46426 13.0609 8.28746 13.2377 8.28746 13.4587C8.28746 13.6797 8.46426 13.8565 8.68526 13.8565H10.7848C11.0058 13.8565 11.1826 13.6797 11.1826 13.4587C11.1826 13.2377 11.0058 13.0609 10.7848 13.0609Z" fill="white"/>
<path id="Vector_6" d="M15.6246 13.0609H13.5251C13.3041 13.0609 13.1273 13.2377 13.1273 13.4587C13.1273 13.6797 13.3041 13.8565 13.5251 13.8565H15.6246C15.8456 13.8565 16.0224 13.6797 16.0224 13.4587C16.0224 13.2377 15.8456 13.0609 15.6246 13.0609Z" fill="white"/>
<path id="Vector_7" d="M5.96718 16.6631H3.86769C3.64669 16.6631 3.46989 16.8399 3.46989 17.0609C3.46989 17.2819 3.64669 17.4587 3.86769 17.4587H5.96718C6.18818 17.4587 6.36498 17.2819 6.36498 17.0609C6.36498 16.8399 6.18818 16.6631 5.96718 16.6631Z" fill="white"/>
<path id="Vector_8" d="M10.7848 16.6631H8.68526C8.46426 16.6631 8.28746 16.8399 8.28746 17.0609C8.28746 17.2819 8.46426 17.4587 8.68526 17.4587H10.7848C11.0058 17.4587 11.1826 17.2819 11.1826 17.0609C11.1826 16.8399 11.0058 16.6631 10.7848 16.6631Z" fill="white"/>
<path id="Vector_9" d="M19.4479 6.36478V4.00009C19.4479 2.87299 18.5419 1.96689 17.4148 1.96689H16.0446V1.4807C16.0446 0.662998 15.3816 0 14.5639 0C13.7462 0 13.0832 0.662998 13.0832 1.4807V1.98899H11.2047V1.4807C11.2047 0.662998 10.5417 0 9.72397 0C8.90628 0 8.24328 0.662998 8.24328 1.4807V1.98899H6.36478V1.4807C6.36478 0.662998 5.70179 0 4.88409 0C4.06639 0 3.40339 0.662998 3.40339 1.4807V1.98899H2.03319C0.906098 1.98899 0 2.89509 0 4.02219V18.9839C0 20.1109 0.906098 21.017 2.03319 21.017H17.4148C18.5419 21.017 19.4479 20.1109 19.4479 18.9839V6.36478ZM13.9009 1.4807C13.9009 1.105 14.2103 0.817698 14.5639 0.817698C14.9396 0.817698 15.2269 1.1271 15.2269 1.4807V3.31499C15.2269 3.69069 14.9175 3.97799 14.5639 3.97799C14.1882 3.97799 13.9009 3.66859 13.9009 3.31499V1.4807ZM9.08308 1.4807C9.08308 1.105 9.39248 0.817698 9.74607 0.817698C10.0997 0.817698 10.4091 1.1271 10.4091 1.4807V3.31499C10.4091 3.69069 10.0997 3.97799 9.74607 3.97799C9.39248 3.97799 9.08308 3.66859 9.08308 3.31499V1.4807ZM4.24319 1.4807C4.24319 1.105 4.55259 0.817698 4.90619 0.817698C5.28189 0.817698 5.56919 1.1271 5.56919 1.4807V3.31499C5.56919 3.69069 5.25979 3.97799 4.90619 3.97799C4.53049 3.97799 4.24319 3.66859 4.24319 3.31499V1.4807ZM2.05529 2.80669H3.42549V3.31499C3.42549 4.13269 4.08849 4.79569 4.90619 4.79569C5.72389 4.79569 6.38688 4.13269 6.38688 3.31499V2.80669H8.26538V3.31499C8.26538 4.13269 8.92838 4.79569 9.74607 4.79569C10.5638 4.79569 11.2268 4.13269 11.2268 3.31499V2.80669H13.1053V3.31499C13.1053 4.13269 13.7683 4.79569 14.586 4.79569C15.4037 4.79569 16.0667 4.13269 16.0667 3.31499V2.80669H17.4369C18.0999 2.80669 18.6524 3.35919 18.6524 4.02219V5.96698H0.839798V4.02219C0.839798 3.35919 1.3923 2.80669 2.05529 2.80669ZM17.4369 20.1772H2.05529C1.3923 20.1772 0.839798 19.6247 0.839798 18.9618V6.76258H18.6303V18.9618C18.6523 19.6468 18.0999 20.1772 17.4369 20.1772Z" fill="white"/>
</g>
</g>
</g>
</svg>
