<svg width="19" height="15" viewBox="0 0 19 15" fill="none" xmlns="http://www.w3.org/2000/svg">
<path id="Vector" d="M6.4276 0.294682L0.341634 6.64813C-0.113878 7.11917 -0.113878 7.82458 0.341634 8.29563L6.4276 14.6467C6.88311 15.1178 7.56527 15.1178 8.02079 14.6467C8.24744 14.4123 8.36298 14.1182 8.36298 13.8241C8.36298 13.5301 8.24966 13.2359 8.02079 13.0016L3.86784 8.70704L17.8623 8.70704C18.489 8.70704 19 8.17855 19 7.53058C19 6.88259 18.4889 6.35413 17.8623 6.35413L3.86784 6.35413L8.02079 2.0596C8.24744 1.82523 8.36298 1.53111 8.36298 1.23702C8.36298 0.942933 8.24966 0.648796 8.02079 0.414446C7.62083 -0.116334 6.88312 -0.116618 6.4276 0.294682Z" fill="#444444"/>
</svg>
