<svg width="27" height="32" viewBox="0 0 27 32" fill="none" xmlns="http://www.w3.org/2000/svg">
<path id="Vector" d="M19.6679 0.000964044C19.6666 0.0011178 19.6653 0.00127561 19.664 0.0014374H9.26537C7.06154 0.00143781 5.26543 1.74848 5.26543 3.89667V19.6113C2.27703 20.1337 0 22.6909 0 25.7567C1.39157e-07 29.1983 2.86901 32 6.39331 32C9.44252 32 12.0006 29.9024 12.6353 27.108H23.0001C25.2039 27.108 27 25.361 27 23.2128V7.49946C26.9997 7.49789 26.9994 7.49631 26.9991 7.49473C26.9984 7.42136 26.9841 7.34871 26.9569 7.28032C26.9559 7.27747 26.955 7.27463 26.954 7.2718C26.925 7.20186 26.8829 7.13781 26.8299 7.08295L20.1429 0.189793C20.1427 0.189793 20.1431 0.189793 20.1429 0.189793C20.0864 0.131964 20.0182 0.0856363 19.9432 0.0534786C19.9387 0.0516914 19.9341 0.0499562 19.9296 0.0482738C19.8555 0.0180485 19.7762 0.00213562 19.696 0.00141666C19.6947 0.0010981 19.6934 0.000783545 19.6921 0.000473193H19.6784C19.6749 0.000285275 19.6715 0.00109166 19.6679 0.000964044ZM9.26537 1.21309H19.0712V4.21197C19.0712 6.36017 20.8682 8.10625 23.0721 8.10625H25.7591V23.2135C25.7591 24.7088 24.5396 25.8971 22.9999 25.8971H12.7845C12.7855 25.8548 12.7873 25.8127 12.7874 25.7702C12.7876 25.7666 12.7884 25.763 12.7884 25.7594C12.7884 25.7592 12.7884 25.7581 12.7884 25.7579C12.7884 25.7514 12.7874 25.7441 12.7874 25.7376C12.7868 25.5377 12.7765 25.3402 12.7569 25.145C12.7561 25.1369 12.7558 25.1286 12.755 25.1204C12.7549 25.1203 12.755 25.1206 12.755 25.1204C12.7347 24.9265 12.7039 24.7346 12.6658 24.5463C12.6627 24.5315 12.6606 24.5165 12.6576 24.5018C12.6575 24.5015 12.6576 24.5021 12.6576 24.5018C12.6176 24.3116 12.568 24.1241 12.5107 23.9405C12.5082 23.9327 12.5064 23.9246 12.5039 23.9168C12.4443 23.7288 12.3752 23.545 12.2984 23.3649C12.2971 23.3618 12.2963 23.3586 12.295 23.3554C12.2945 23.3541 12.2937 23.353 12.2931 23.3516C12.2143 23.1681 12.1262 22.9892 12.0304 22.815C10.9677 20.8824 8.89409 19.5563 6.50601 19.5155V3.89732C6.50601 2.40195 7.72567 1.21309 9.26537 1.21309ZM20.3115 2.12656L24.9377 6.89504H23.0721C21.5321 6.89504 20.3114 5.70726 20.3114 4.21184L20.3115 2.12656ZM13.0129 3.07743V4.35156H11.7081V5.62569H13.0129V6.89982H14.3176V5.62569H15.6224V4.35156H14.3176V3.07743H13.0129ZM10.9691 9.81486C10.805 9.81524 10.6478 9.87903 10.5318 9.9923C10.4159 10.1056 10.3505 10.2591 10.3501 10.4193C10.35 10.5798 10.4151 10.7338 10.5312 10.8475C10.6472 10.9611 10.8047 11.0252 10.9691 11.0256H21.2955C21.3771 11.0256 21.4578 11.01 21.5332 10.9795C21.6085 10.9491 21.677 10.9044 21.7347 10.8481C21.7923 10.7918 21.8381 10.725 21.8693 10.6514C21.9004 10.5778 21.9165 10.4989 21.9164 10.4193C21.916 10.2588 21.8504 10.105 21.734 9.99164C21.6176 9.87831 21.4599 9.81474 21.2955 9.81486H10.9691ZM10.9691 13.6249C10.805 13.6253 10.6477 13.6891 10.5317 13.8025C10.4157 13.9159 10.3504 14.0695 10.3501 14.2298C10.35 14.3903 10.4151 14.5443 10.5312 14.658C10.6472 14.7716 10.8047 14.8357 10.9691 14.8361H21.2955C21.3771 14.8361 21.4578 14.8205 21.5332 14.7901C21.6085 14.7596 21.677 14.7149 21.7347 14.6586C21.7923 14.6023 21.8381 14.5355 21.8693 14.4619C21.9004 14.3883 21.9165 14.3094 21.9164 14.2298C21.9161 14.0692 21.8506 13.9153 21.7342 13.8018C21.6178 13.6884 21.46 13.6248 21.2955 13.6249H10.9691ZM10.9691 18.1383C10.8047 18.1387 10.6472 18.2027 10.5312 18.3164C10.4151 18.4301 10.35 18.5841 10.3501 18.7446C10.3499 18.9052 10.4149 19.0593 10.531 19.1731C10.6471 19.2869 10.8046 19.351 10.9691 19.3514H21.2955C21.3771 19.3514 21.4579 19.3358 21.5333 19.3053C21.6087 19.2748 21.6772 19.2301 21.7349 19.1738C21.7925 19.1174 21.8382 19.0505 21.8694 18.9768C21.9005 18.9032 21.9165 18.8243 21.9164 18.7446C21.9165 18.665 21.9004 18.5861 21.8693 18.5125C21.8381 18.4389 21.7923 18.3721 21.7347 18.3157C21.677 18.2594 21.6085 18.2148 21.5332 18.1843C21.4578 18.1539 21.3771 18.1382 21.2955 18.1383H10.9691ZM6.39331 20.7235C6.3946 20.7235 6.39588 20.7235 6.39717 20.7235C6.57286 20.7236 6.74664 20.7324 6.91771 20.7491C6.91899 20.7492 6.92029 20.7494 6.92157 20.7496C6.92221 20.7496 6.92288 20.7495 6.92352 20.7496C6.92662 20.7499 6.92963 20.7507 6.93273 20.7511C7.10259 20.7682 7.2699 20.7927 7.43437 20.8254C7.43486 20.8255 7.43533 20.8257 7.43582 20.8258C7.59867 20.8583 7.75835 20.8986 7.91516 20.9456C7.92615 20.9488 7.93715 20.9522 7.94812 20.9555C8.09639 21.001 8.24175 21.0533 8.38383 21.1112C8.39762 21.1168 8.4113 21.1225 8.42503 21.1283C8.56626 21.1872 8.70411 21.2518 8.83845 21.3223C8.84935 21.328 8.86007 21.334 8.87092 21.3398C9.00949 21.4139 9.14474 21.4936 9.27515 21.5793C9.27623 21.58 9.27751 21.5805 9.27849 21.5812C9.27819 21.581 9.27879 21.5814 9.27849 21.5812C9.28044 21.5825 9.28321 21.5847 9.2853 21.5859C9.41336 21.6706 9.53663 21.7614 9.65607 21.8566C9.66901 21.867 9.68205 21.877 9.69485 21.8874C9.81479 21.985 9.9306 22.0873 10.0409 22.1951C10.1572 22.3087 10.2687 22.4284 10.3734 22.5524C10.4772 22.6754 10.5754 22.8038 10.6671 22.9362C10.6679 22.9373 10.6688 22.9384 10.6695 22.9395C10.6693 22.9393 10.6696 22.9397 10.6695 22.9395C10.6707 22.9413 10.6722 22.9435 10.6733 22.9451C10.7644 23.0774 10.8491 23.2137 10.9272 23.3546C11.0064 23.4972 11.0789 23.6441 11.1439 23.7947C11.2735 24.0947 11.374 24.4099 11.4425 24.7366C11.4427 24.7379 11.4432 24.739 11.4434 24.7404C11.4436 24.7413 11.4437 24.7423 11.4439 24.7433C11.512 25.0705 11.5476 25.4093 11.5476 25.7566C11.5466 25.9785 11.5306 26.2003 11.4996 26.4202C11.5001 26.4235 11.5005 26.4268 11.501 26.4301C11.1655 28.8965 9.01288 30.7892 6.3931 30.7892C3.53927 30.7892 1.24011 28.5439 1.24011 25.7571C1.24011 23.1205 3.29838 20.9688 5.93709 20.7443C5.93902 20.7446 5.94096 20.7449 5.9429 20.7452C6.09248 20.7316 6.24308 20.7243 6.39331 20.7235ZM6.39427 22.2462C6.17392 22.2462 5.9949 22.421 5.9949 22.6362V23.1848C5.75866 23.211 5.54453 23.2617 5.35271 23.3381C5.06088 23.4521 4.83773 23.6166 4.68337 23.8308C4.52977 24.0451 4.45266 24.29 4.45266 24.5659C4.45266 24.8554 4.52513 25.0982 4.66979 25.2943C4.81695 25.4881 5.01416 25.6418 5.26206 25.7558C5.51146 25.8675 5.82097 25.9658 6.18972 26.0501C6.46517 26.1117 6.68486 26.1701 6.8484 26.2248C7.01391 26.2795 7.14771 26.3594 7.25019 26.4643C7.3559 26.5669 7.40867 26.7015 7.40867 26.868C7.40867 27.0778 7.31119 27.2526 7.11739 27.3939C6.92581 27.5329 6.67604 27.6031 6.36808 27.6031C6.14375 27.6031 5.96322 27.5682 5.82524 27.4999C5.68777 27.4291 5.58012 27.3406 5.50294 27.2334C5.42849 27.1262 5.35809 26.9926 5.29308 26.833C5.23923 26.6985 5.17444 26.5975 5.09727 26.5291C5.02233 26.4607 4.92997 26.4264 4.82004 26.4264C4.6848 26.4264 4.57251 26.471 4.48416 26.5599C4.39755 26.6465 4.35426 26.7515 4.35426 26.8746C4.35426 27.0866 4.42648 27.3054 4.57139 27.5311C4.71805 27.7545 4.9088 27.9338 5.14283 28.0683C5.38031 28.2034 5.6646 28.2883 5.99489 28.3258V28.8767C5.99489 29.092 6.1739 29.2667 6.39425 29.2667C6.61461 29.2667 6.79313 29.092 6.79313 28.8767V28.3258C7.0517 28.2955 7.28556 28.235 7.49251 28.1431C7.80097 28.0063 8.03356 27.8172 8.19238 27.5756C8.35342 27.334 8.43374 27.0614 8.43374 26.7582C8.43374 26.5051 8.38721 26.292 8.29415 26.1188C8.20308 25.9432 8.07436 25.7987 7.90884 25.6848C7.74507 25.5708 7.54577 25.4735 7.31027 25.3937C7.07677 25.3139 6.81518 25.2411 6.52559 25.175C6.29456 25.118 6.12881 25.074 6.0288 25.0444C5.92855 25.0148 5.8285 24.9738 5.73072 24.9213C5.63246 24.8689 5.55539 24.8064 5.49905 24.7334C5.44322 24.6605 5.41569 24.5743 5.41569 24.474C5.41569 24.3122 5.4974 24.1739 5.66094 24.0599C5.82671 23.9436 6.04336 23.8857 6.31186 23.8857C6.60121 23.8857 6.8114 23.9395 6.94243 24.0467C7.0732 24.1515 7.18476 24.2981 7.27831 24.4873C7.35077 24.6195 7.41745 24.7153 7.478 24.7746C7.54128 24.8316 7.63199 24.8603 7.75136 24.8603C7.88214 24.8603 7.99094 24.8122 8.07755 24.7164C8.16589 24.6184 8.21035 24.5087 8.21035 24.3879C8.21035 24.2557 8.17467 24.1204 8.10469 23.9813C8.03496 23.8422 7.92408 23.7101 7.7722 23.5847C7.62057 23.4571 7.4289 23.3556 7.19787 23.2804C7.07578 23.2389 6.94032 23.2088 6.79317 23.1895V22.6362C6.79317 22.421 6.61463 22.2462 6.39427 22.2462Z" fill="#009006"/>
</svg>
