<svg width="50" height="50" viewBox="0 0 50 50" fill="none" xmlns="http://www.w3.org/2000/svg">
<circle cx="24.9026" cy="24.9026" r="24.9026" fill="#E2F9E3"/>
<path d="M35.4489 13.9318H32.9179V13.5109C32.9179 13.1759 32.7845 12.8547 32.5472 12.6179C32.3099 12.3811 31.988 12.248 31.6523 12.248H31.2305C30.8949 12.248 30.573 12.3811 30.3356 12.6179C30.0983 12.8547 29.965 13.1759 29.965 13.5109V13.9318H26.1684V13.5109C26.1684 13.1759 26.035 12.8547 25.7977 12.6179C25.5604 12.3811 25.2385 12.248 24.9029 12.248H24.481C24.1454 12.248 23.8235 12.3811 23.5861 12.6179C23.3488 12.8547 23.2155 13.1759 23.2155 13.5109V13.9318H19.8407V13.5109C19.8407 13.1759 19.7074 12.8547 19.4701 12.6179C19.2327 12.3811 18.9108 12.248 18.5752 12.248H18.1534C17.8177 12.248 17.4958 12.3811 17.2585 12.6179C17.0212 12.8547 16.8878 13.1759 16.8878 13.5109V13.9318H14.3568C13.7976 13.9325 13.2615 14.1544 12.8661 14.549C12.4707 14.9435 12.2482 15.4785 12.2476 16.0365V35.3995C12.2482 35.9575 12.4707 36.4925 12.8661 36.887C13.2615 37.2816 13.7976 37.5035 14.3568 37.5042H35.4489C36.0081 37.5035 36.5442 37.2816 36.9396 36.887C37.335 36.4925 37.5575 35.9575 37.5581 35.3995V16.0365C37.5575 15.4785 37.335 14.9435 36.9396 14.549C36.5442 14.1544 36.0081 13.9325 35.4489 13.9318ZM30.8087 13.5109C30.8087 13.3992 30.8531 13.2921 30.9322 13.2132C31.0113 13.1343 31.1186 13.0899 31.2305 13.0899H31.6523C31.7642 13.0899 31.8715 13.1343 31.9506 13.2132C32.0297 13.2921 32.0742 13.3992 32.0742 13.5109V13.9318H30.8087V13.5109ZM24.0592 13.5109C24.0592 13.3992 24.1036 13.2921 24.1827 13.2132C24.2618 13.1343 24.3691 13.0899 24.481 13.0899H24.9029C25.0147 13.0899 25.122 13.1343 25.2011 13.2132C25.2803 13.2921 25.3247 13.3992 25.3247 13.5109V13.9318H24.0592V13.5109ZM17.7315 13.5109C17.7315 13.3992 17.776 13.2921 17.8551 13.2132C17.9342 13.1343 18.0415 13.0899 18.1534 13.0899H18.5752C18.6871 13.0899 18.7944 13.1343 18.8735 13.2132C18.9526 13.2921 18.997 13.3992 18.997 13.5109V13.9318H17.7315V13.5109ZM13.0912 16.0365C13.0912 15.7016 13.2246 15.3804 13.4619 15.1435C13.6992 14.9067 14.0211 14.7737 14.3568 14.7737H16.8878V16.0365C16.8878 16.3714 17.0212 16.6926 17.2585 16.9294C17.4958 17.1662 17.8177 17.2993 18.1534 17.2993H18.5752C18.6871 17.2993 18.7944 17.2549 18.8735 17.176C18.9526 17.097 18.997 16.99 18.997 16.8783C18.997 16.7667 18.9526 16.6596 18.8735 16.5807C18.7944 16.5018 18.6871 16.4574 18.5752 16.4574H18.1534C18.0415 16.4574 17.9342 16.4131 17.8551 16.3341C17.776 16.2552 17.7315 16.1481 17.7315 16.0365V14.7737H23.2155V16.0365C23.2155 16.3714 23.3488 16.6926 23.5861 16.9294C23.8235 17.1662 24.1454 17.2993 24.481 17.2993H24.9029C25.0147 17.2993 25.122 17.2549 25.2011 17.176C25.2803 17.097 25.3247 16.99 25.3247 16.8783C25.3247 16.7667 25.2803 16.6596 25.2011 16.5807C25.122 16.5018 25.0147 16.4574 24.9029 16.4574H24.481C24.3691 16.4574 24.2618 16.4131 24.1827 16.3341C24.1036 16.2552 24.0592 16.1481 24.0592 16.0365V14.7737H29.965V16.0365C29.965 16.3714 30.0983 16.6926 30.3356 16.9294C30.573 17.1662 30.8949 17.2993 31.2305 17.2993H31.6523C31.7642 17.2993 31.8715 17.2549 31.9506 17.176C32.0297 17.097 32.0742 16.99 32.0742 16.8783C32.0742 16.7667 32.0297 16.6596 31.9506 16.5807C31.8715 16.5018 31.7642 16.4574 31.6523 16.4574H31.2305C31.1186 16.4574 31.0113 16.4131 30.9322 16.3341C30.8531 16.2552 30.8087 16.1481 30.8087 16.0365V14.7737H35.4489C35.7846 14.7737 36.1065 14.9067 36.3438 15.1435C36.5811 15.3804 36.7145 15.7016 36.7145 16.0365V19.404H13.0912V16.0365ZM35.4489 36.6623H14.3568C14.0211 36.6623 13.6992 36.5293 13.4619 36.2925C13.2246 36.0556 13.0912 35.7344 13.0912 35.3995V35.3886C13.4542 35.6672 13.8989 35.8189 14.3568 35.8205H31.2305C31.3423 35.8202 31.4495 35.7759 31.5287 35.6971L36.7145 30.5226V35.3995C36.7145 35.7344 36.5811 36.0556 36.3438 36.2925C36.1065 36.5293 35.7846 36.6623 35.4489 36.6623ZM31.6523 34.3834V31.1902C31.6523 30.8552 31.7857 30.534 32.023 30.2972C32.2603 30.0604 32.5822 29.9274 32.9179 29.9274H36.118L31.6523 34.3834ZM36.7145 29.0855H32.9179C32.3587 29.0862 31.8226 29.3081 31.4272 29.7027C31.0318 30.0972 30.8093 30.6322 30.8087 31.1902V34.9786H14.3568C14.0211 34.9786 13.6992 34.8455 13.4619 34.6087C13.2246 34.3719 13.0912 34.0507 13.0912 33.7158V20.2458H36.7145V29.0855Z" fill="#109615"/>
<path d="M15.2004 33.2952H17.7315C17.8433 33.2952 17.9506 33.2509 18.0298 33.1719C18.1089 33.093 18.1533 32.9859 18.1533 32.8743V30.3487C18.1533 30.237 18.1089 30.13 18.0298 30.051C17.9506 29.9721 17.8433 29.9277 17.7315 29.9277H15.2004C15.0885 29.9277 14.9812 29.9721 14.9021 30.051C14.823 30.13 14.7786 30.237 14.7786 30.3487V32.8743C14.7786 32.9859 14.823 33.093 14.9021 33.1719C14.9812 33.2509 15.0885 33.2952 15.2004 33.2952ZM15.6223 30.7696H17.3096V32.4534H15.6223V30.7696Z" fill="#109615"/>
<path d="M19.4194 33.2952H21.9505C22.0623 33.2952 22.1696 33.2509 22.2487 33.1719C22.3279 33.093 22.3723 32.9859 22.3723 32.8743V30.3487C22.3723 30.237 22.3279 30.13 22.2487 30.051C22.1696 29.9721 22.0623 29.9277 21.9505 29.9277H19.4194C19.3075 29.9277 19.2002 29.9721 19.1211 30.051C19.042 30.13 18.9976 30.237 18.9976 30.3487V32.8743C18.9976 32.9859 19.042 33.093 19.1211 33.1719C19.2002 33.2509 19.3075 33.2952 19.4194 33.2952ZM19.8412 30.7696H21.5286V32.4534H19.8412V30.7696Z" fill="#109615"/>
<path d="M23.6369 33.2952H26.168C26.2799 33.2952 26.3872 33.2509 26.4663 33.1719C26.5454 33.093 26.5898 32.9859 26.5898 32.8743V30.3487C26.5898 30.237 26.5454 30.13 26.4663 30.051C26.3872 29.9721 26.2799 29.9277 26.168 29.9277H23.6369C23.5251 29.9277 23.4178 29.9721 23.3386 30.051C23.2595 30.13 23.2151 30.237 23.2151 30.3487V32.8743C23.2151 32.9859 23.2595 33.093 23.3386 33.1719C23.4178 33.2509 23.5251 33.2952 23.6369 33.2952ZM24.0588 30.7696H25.7461V32.4534H24.0588V30.7696Z" fill="#109615"/>
<path d="M15.2004 29.0843H17.7315C17.8433 29.0843 17.9506 29.0399 18.0298 28.961C18.1089 28.8821 18.1533 28.775 18.1533 28.6633V26.1377C18.1533 26.0261 18.1089 25.919 18.0298 25.8401C17.9506 25.7611 17.8433 25.7168 17.7315 25.7168H15.2004C15.0885 25.7168 14.9812 25.7611 14.9021 25.8401C14.823 25.919 14.7786 26.0261 14.7786 26.1377V28.6633C14.7786 28.775 14.823 28.8821 14.9021 28.961C14.9812 29.0399 15.0885 29.0843 15.2004 29.0843ZM15.6223 26.5587H17.3096V28.2424H15.6223V26.5587Z" fill="#109615"/>
<path d="M19.4194 29.0843H21.9505C22.0623 29.0843 22.1696 29.0399 22.2487 28.961C22.3279 28.8821 22.3723 28.775 22.3723 28.6633V26.1377C22.3723 26.0261 22.3279 25.919 22.2487 25.8401C22.1696 25.7611 22.0623 25.7168 21.9505 25.7168H19.4194C19.3075 25.7168 19.2002 25.7611 19.1211 25.8401C19.042 25.919 18.9976 26.0261 18.9976 26.1377V28.6633C18.9976 28.775 19.042 28.8821 19.1211 28.961C19.2002 29.0399 19.3075 29.0843 19.4194 29.0843ZM19.8412 26.5587H21.5286V28.2424H19.8412V26.5587Z" fill="#109615"/>
<path d="M23.6369 29.0843H26.168C26.2799 29.0843 26.3872 29.0399 26.4663 28.961C26.5454 28.8821 26.5898 28.775 26.5898 28.6633V26.1377C26.5898 26.0261 26.5454 25.919 26.4663 25.8401C26.3872 25.7611 26.2799 25.7168 26.168 25.7168H23.6369C23.5251 25.7168 23.4178 25.7611 23.3386 25.8401C23.2595 25.919 23.2151 26.0261 23.2151 26.1377V28.6633C23.2151 28.775 23.2595 28.8821 23.3386 28.961C23.4178 29.0399 23.5251 29.0843 23.6369 29.0843ZM24.0588 26.5587H25.7461V28.2424H24.0588V26.5587Z" fill="#109615"/>
<path d="M27.8562 29.0843H30.3872C30.4991 29.0843 30.6064 29.0399 30.6855 28.961C30.7646 28.8821 30.8091 28.775 30.8091 28.6633V26.1377C30.8091 26.0261 30.7646 25.919 30.6855 25.8401C30.6064 25.7611 30.4991 25.7168 30.3872 25.7168H27.8562C27.7443 25.7168 27.637 25.7611 27.5579 25.8401C27.4788 25.919 27.4343 26.0261 27.4343 26.1377V28.6633C27.4343 28.775 27.4788 28.8821 27.5579 28.961C27.637 29.0399 27.7443 29.0843 27.8562 29.0843ZM28.278 26.5587H29.9654V28.2424H28.278V26.5587Z" fill="#109615"/>
<path d="M23.6369 24.8773H26.168C26.2799 24.8773 26.3872 24.8329 26.4663 24.754C26.5454 24.675 26.5898 24.568 26.5898 24.4563V21.9307C26.5898 21.8191 26.5454 21.712 26.4663 21.6331C26.3872 21.5541 26.2799 21.5098 26.168 21.5098H23.6369C23.5251 21.5098 23.4178 21.5541 23.3386 21.6331C23.2595 21.712 23.2151 21.8191 23.2151 21.9307V24.4563C23.2151 24.568 23.2595 24.675 23.3386 24.754C23.4178 24.8329 23.5251 24.8773 23.6369 24.8773ZM24.0588 22.3516H25.7461V24.0354H24.0588V22.3516Z" fill="#109615"/>
<path d="M27.8562 24.8773H30.3872C30.4991 24.8773 30.6064 24.8329 30.6855 24.754C30.7646 24.675 30.8091 24.568 30.8091 24.4563V21.9307C30.8091 21.8191 30.7646 21.712 30.6855 21.6331C30.6064 21.5541 30.4991 21.5098 30.3872 21.5098H27.8562C27.7443 21.5098 27.637 21.5541 27.5579 21.6331C27.4788 21.712 27.4343 21.8191 27.4343 21.9307V24.4563C27.4343 24.568 27.4788 24.675 27.5579 24.754C27.637 24.8329 27.7443 24.8773 27.8562 24.8773ZM28.278 22.3516H29.9654V24.0354H28.278V22.3516Z" fill="#109615"/>
<path d="M32.0744 24.8773H34.6055C34.7174 24.8773 34.8247 24.8329 34.9038 24.754C34.9829 24.675 35.0273 24.568 35.0273 24.4563V21.9307C35.0273 21.8191 34.9829 21.712 34.9038 21.6331C34.8247 21.5541 34.7174 21.5098 34.6055 21.5098H32.0744C31.9626 21.5098 31.8553 21.5541 31.7761 21.6331C31.697 21.712 31.6526 21.8191 31.6526 21.9307V24.4563C31.6526 24.568 31.697 24.675 31.7761 24.754C31.8553 24.8329 31.9626 24.8773 32.0744 24.8773ZM32.4963 22.3516H34.1836V24.0354H32.4963V22.3516Z" fill="#109615"/>
</svg>
