<svg width="14" height="13" viewBox="0 0 14 13" fill="none" xmlns="http://www.w3.org/2000/svg">
<path d="M12.6248 4.56263C12.5577 4.36103 12.5242 4.10903 12.5074 3.84024C12.4571 3.38665 12.4236 2.91625 12.1385 2.52986C11.8535 2.14347 11.4176 1.95867 10.9985 1.77387C10.7637 1.67307 10.529 1.57228 10.3614 1.43788C10.1937 1.32028 10.0261 1.13548 9.85839 0.933887C9.57337 0.597893 9.23806 0.228299 8.78538 0.0771017C8.3327 -0.0740957 7.88002 0.0267026 7.44411 0.127501C6.92437 0.245099 6.50522 0.245099 5.96872 0.127501C5.5328 0.0267026 5.08013 -0.0740957 4.62745 0.0771017C4.158 0.228299 3.83945 0.597893 3.55443 0.933887C3.38678 1.13548 3.21912 1.30348 3.05146 1.43788C2.8838 1.57228 2.64908 1.65627 2.41436 1.77387C1.99521 1.95867 1.5593 2.14347 1.27428 2.52986C0.989261 2.91625 0.955729 3.38665 0.905432 3.84024C0.8719 4.10903 0.855134 4.34423 0.788071 4.56263C0.721007 4.76422 0.603647 4.96582 0.46952 5.18422C0.251564 5.57061 7.62939e-05 5.9906 7.62939e-05 6.49459C7.62939e-05 6.99858 0.251564 7.41858 0.46952 7.80497C0.603647 8.02337 0.721007 8.22496 0.788071 8.42656C0.855134 8.62816 0.888666 8.88015 0.905432 9.14895C0.955729 9.60254 0.989261 10.0729 1.27428 10.4593C1.5593 10.8457 1.99521 11.0305 2.41436 11.2153C2.64908 11.3161 2.8838 11.4169 3.05146 11.5513C3.21912 11.6689 3.38678 11.8537 3.55443 12.0553C3.83945 12.3913 4.17477 12.7609 4.62745 12.9121C5.08013 13.0633 5.5328 12.9625 5.96872 12.8617C6.48846 12.7441 6.9076 12.7441 7.44411 12.8617C7.72913 12.9289 8.01415 12.9793 8.29917 12.9793C8.46683 12.9793 8.61772 12.9625 8.78538 12.9121C9.25482 12.7609 9.57337 12.3913 9.85839 12.0553C10.0261 11.8537 10.1937 11.6857 10.3614 11.5513C10.529 11.4169 10.7637 11.3329 10.9985 11.2153C11.4176 11.0305 11.8535 10.8457 12.1385 10.4593C12.4236 10.0729 12.4571 9.60254 12.5074 9.14895C12.5409 8.88015 12.5577 8.64496 12.6248 8.42656C12.6918 8.22496 12.8092 8.02337 12.9433 7.80497C13.1613 7.41858 13.4128 6.99858 13.4128 6.49459C13.4128 5.9906 13.1613 5.57061 12.9433 5.18422C12.8092 4.96582 12.6918 4.76422 12.6248 4.56263ZM12.3397 7.45218C12.2056 7.68737 12.0547 7.93937 11.9709 8.20816C11.8871 8.49376 11.8535 8.77935 11.82 9.06495C11.7865 9.43454 11.7529 9.80414 11.5853 10.0393C11.4176 10.2745 11.0823 10.4257 10.7302 10.5769C10.462 10.6945 10.1937 10.8121 9.95899 10.9801C9.72427 11.1481 9.53984 11.3665 9.33865 11.5849C9.08716 11.8705 8.85244 12.1393 8.56742 12.2401C8.29917 12.3241 7.94709 12.2569 7.595 12.1729C7.30998 12.1057 7.0082 12.0385 6.70641 12.0385C6.40463 12.0385 6.10284 12.1057 5.81782 12.1729C5.44898 12.2569 5.11366 12.3241 4.8454 12.2401C4.56039 12.1393 4.32566 11.8705 4.07418 11.5849C3.88975 11.3665 3.68856 11.1481 3.45384 10.9801C3.21912 10.8121 2.95086 10.6945 2.68261 10.5769C2.33053 10.4257 2.01198 10.2745 1.82755 10.0393C1.65989 9.80414 1.62636 9.45134 1.59283 9.06495C1.5593 8.77935 1.54253 8.47696 1.44194 8.20816C1.35811 7.93937 1.20722 7.68737 1.07309 7.45218C0.8719 7.11618 0.687476 6.81379 0.687476 6.49459C0.687476 6.1754 0.8719 5.873 1.07309 5.53701C1.20722 5.30181 1.35811 5.04982 1.44194 4.78102C1.52577 4.49543 1.5593 4.20983 1.59283 3.92424C1.62636 3.55464 1.65989 3.18505 1.82755 2.94985C1.99521 2.71466 2.33053 2.56346 2.68261 2.41226C2.95086 2.29466 3.21912 2.17707 3.45384 2.00907C3.68856 1.84107 3.87299 1.62268 4.07418 1.40428C4.32566 1.11868 4.56039 0.849889 4.8454 0.74909C5.11366 0.665092 5.46574 0.732291 5.81782 0.816289C6.38786 0.933887 7.0082 0.933887 7.57824 0.816289C7.94709 0.732291 8.2824 0.665092 8.55066 0.74909C8.83568 0.849889 9.0704 1.11868 9.32188 1.40428C9.50631 1.62268 9.7075 1.84107 9.94222 2.00907C10.1769 2.17707 10.4452 2.29466 10.7134 2.41226C11.0655 2.56346 11.3841 2.71466 11.5685 2.94985C11.7362 3.18505 11.7697 3.53784 11.8032 3.92424C11.8368 4.20983 11.8535 4.51223 11.9541 4.78102C12.038 5.04982 12.1888 5.30181 12.323 5.53701C12.5242 5.873 12.7086 6.1754 12.7086 6.49459C12.7086 6.81379 12.5409 7.11618 12.3397 7.45218Z" fill="white"/>
<path d="M9.5065 4.32736L5.90184 7.9393L3.90671 5.95693C3.77258 5.82254 3.55462 5.82254 3.4205 5.95693C3.28637 6.09133 3.28637 6.30973 3.4205 6.44413L5.65035 8.67849C5.71742 8.74569 5.80125 8.77928 5.88507 8.77928C5.9689 8.77928 6.0695 8.74569 6.1198 8.67849L9.97594 4.81455C10.1101 4.68016 10.1101 4.46176 9.97594 4.32736C9.85858 4.19296 9.64062 4.19296 9.5065 4.32736Z" fill="white"/>
</svg>
