<svg width="30" height="30" viewBox="0 0 30 30" fill="none" xmlns="http://www.w3.org/2000/svg">
<circle cx="14.535" cy="14.535" r="14.535" fill="#109615"/>
<path fill-rule="evenodd" clip-rule="evenodd" d="M20.2134 9.60932C20.0491 9.60932 19.9163 9.47712 19.9163 9.31406C19.9163 9.15144 20.0491 9.01902 20.2134 9.01902C20.3778 9.01902 20.5106 9.15144 20.5106 9.31406C20.5106 9.47712 20.3778 9.60932 20.2134 9.60932ZM20.2134 8.48799C19.7542 8.48799 19.3828 8.85864 19.3828 9.31406C19.3828 9.76971 19.7542 10.1404 20.2134 10.1404C20.6727 10.1404 21.0441 9.76971 21.0441 9.31406C21.0441 8.85864 20.6727 8.48799 20.2134 8.48799ZM8.85666 9.60932C8.69458 9.60932 8.55951 9.47712 8.55951 9.31406C8.55951 9.15144 8.69458 9.01902 8.85666 9.01902C9.02099 9.01902 9.1538 9.15144 9.1538 9.31406C9.1538 9.47712 9.02099 9.60932 8.85666 9.60932ZM8.85666 8.48799C8.39969 8.48799 8.026 8.85864 8.026 9.31406C8.026 9.76971 8.39969 10.1404 8.85666 10.1404C9.31589 10.1404 9.68956 9.76971 9.68956 9.31406C9.68956 8.85864 9.31589 8.48799 8.85666 8.48799ZM15.808 14.0103C15.6452 14.1098 15.6373 14.337 15.7833 14.4485C16.0827 14.6764 16.2605 14.9019 16.31 15.1196C16.3798 15.4247 16.1615 15.7235 15.9319 16.0398L15.7833 16.2516C15.6347 16.482 15.5154 16.7113 15.4254 16.9397C14.8873 16.9567 14.3854 16.9495 13.9081 16.9178C14.1242 15.8 13.9014 15.3717 13.4579 14.519C13.4016 14.4138 13.3431 14.3013 13.2801 14.1787C13.2463 14.1092 13.181 14.0582 13.1045 14.0405C12.8569 13.9821 12.6227 13.8991 12.4044 13.7942C11.5191 13.3685 10.5478 11.9214 9.80887 10.9165C9.89666 10.8642 9.9822 10.8049 10.061 10.7392C11.7282 13.2256 13.8644 13.93 16.4113 12.8279C17.3163 12.4365 18.2933 11.8041 19.3175 10.9483C19.4413 11.0154 19.5741 11.0686 19.7114 11.1069C18.5184 12.1991 17.2082 13.1746 15.808 14.0103ZM15.8125 19.7407C16.0804 20.3146 16.3596 20.9078 16.4901 21.478C16.5869 21.9006 16.6612 22.3231 16.7107 22.7383L15.3151 22.8152C14.4582 22.0225 12.9321 20.8274 12.8771 19.8644C12.8569 19.5071 13.0887 19.0215 13.3341 18.5075C13.5007 18.1583 13.6718 17.7991 13.7821 17.4414C14.269 17.4768 14.7646 17.4869 15.27 17.4752C15.2318 17.6716 15.216 17.8662 15.225 18.0585C15.243 18.5225 15.5064 19.0871 15.8125 19.7407ZM12.4539 22.5618C12.616 22.636 12.7601 22.672 12.9379 22.6828L14.4754 22.7758C14.0139 22.3667 13.4782 21.8842 13.0572 21.3722C12.4877 21.1823 11.8664 21.0443 11.137 20.9488L10.7138 21.7643L12.4539 22.5618ZM9.42168 21.6532C8.66771 21.7367 8.09405 21.9385 7.42722 22.165L7.51276 21.8355C7.55103 21.6932 7.63206 21.5883 7.75813 21.5147L9.76385 20.367C9.7751 20.3594 9.79086 20.3509 9.80212 20.3442C9.86218 20.3735 9.8781 20.4059 9.91242 20.4388L10.2726 20.796C10.3566 20.8786 10.4536 20.8744 10.5697 20.8848L10.2006 21.5959C9.93718 21.606 9.67606 21.6248 9.42168 21.6532ZM8.85666 10.6443C9.59502 10.6443 10.1961 10.0475 10.1961 9.31406C10.1961 8.58082 9.59502 7.98403 8.85666 7.98403C8.1183 7.98403 7.5195 8.58082 7.5195 9.31406C7.5195 10.0475 8.1183 10.6443 8.85666 10.6443ZM20.2134 10.6443C20.9518 10.6443 21.5528 10.0475 21.5528 9.31406C21.5528 8.58082 20.9518 7.98403 20.2134 7.98403C19.4751 7.98403 18.874 8.58082 18.874 9.31406C18.874 10.0475 19.4751 10.6443 20.2134 10.6443ZM23.2412 8.89756C23.1218 8.81166 22.9553 8.83806 22.8675 8.95661C22.6878 9.20244 22.3746 9.30771 22.0841 9.22011C22.0773 9.07158 22.0503 8.92843 22.0098 8.7913C22.479 8.64011 22.8114 8.22949 22.863 7.74044C22.8787 7.5946 22.7729 7.46419 22.6266 7.4492C22.478 7.43355 22.3475 7.5398 22.3317 7.68564C22.3001 7.98985 22.0812 8.23399 21.7847 8.30367C21.7059 8.18155 21.6114 8.06948 21.5056 7.96927C21.8333 7.61229 21.9174 7.07532 21.7172 6.63365C21.6564 6.50167 21.4988 6.44127 21.3637 6.49943C21.2287 6.55984 21.1701 6.71641 21.2287 6.85062C21.3536 7.13102 21.2858 7.44825 21.0666 7.65813C20.9383 7.59214 20.801 7.54091 20.6569 7.50625C20.7598 7.02946 20.5662 6.53648 20.1662 6.24667C20.0469 6.15943 19.8803 6.18628 19.7947 6.30483C19.7069 6.42339 19.734 6.59115 19.8533 6.67615C20.0965 6.85119 20.2062 7.17122 20.1189 7.45547C19.9703 7.46307 19.8263 7.48812 19.6867 7.52861C19.5312 7.06006 19.1223 6.73149 18.6309 6.68062C18.4823 6.66496 18.3518 6.77009 18.336 6.91683C18.3203 7.06268 18.4283 7.19331 18.5746 7.20852C18.8771 7.2397 19.1271 7.45839 19.1959 7.75252C19.0744 7.8317 18.9618 7.92498 18.8605 8.02967C18.4919 7.70626 17.969 7.61982 17.5166 7.82029C17.3816 7.88002 17.3208 8.03682 17.3816 8.17058C17.4423 8.3048 17.5999 8.36452 17.735 8.3048C18.0179 8.17913 18.3342 8.25005 18.5476 8.46696C18.4801 8.59491 18.4283 8.73137 18.3946 8.8743C17.9097 8.7741 17.4192 8.96217 17.1272 9.35991C16.9976 9.53643 17.1296 9.78134 17.341 9.78134C17.4243 9.78134 17.5054 9.74309 17.5594 9.67174C17.7413 9.42566 18.0524 9.31992 18.3428 9.40845C18.3495 9.55653 18.3765 9.69992 18.4171 9.83703C17.9484 9.98557 17.6151 10.4021 17.5639 10.8879C17.5473 11.0453 17.6716 11.1805 17.8295 11.1805C17.9646 11.1805 18.0794 11.0789 18.0952 10.9427C18.128 10.6376 18.3442 10.3947 18.6422 10.3247C18.712 10.4309 18.7907 10.53 18.8808 10.6195C16.8796 12.2676 15.117 12.9881 13.6357 12.7606C12.4359 12.5765 11.3576 11.7583 10.4279 10.3276C10.5405 10.1542 10.626 9.96073 10.6778 9.75405C11.1545 9.85649 11.6584 9.66376 11.9452 9.2682C12.0307 9.14965 12.0037 8.98368 11.8844 8.89756C11.7651 8.81166 11.5985 8.83806 11.513 8.95661C11.3337 9.2029 11.0212 9.30576 10.7273 9.22011C10.7206 9.07158 10.6958 8.92843 10.6553 8.7913C11.1247 8.63584 11.4567 8.23194 11.5085 7.74044C11.5242 7.5946 11.4162 7.46419 11.2698 7.4492C11.1235 7.43355 10.9907 7.5398 10.9772 7.68564C10.9468 7.98589 10.7221 8.23676 10.4279 8.30367C10.3491 8.18155 10.2546 8.06948 10.151 7.96927C10.4761 7.60101 10.5635 7.08712 10.3604 6.63365C10.3019 6.50167 10.142 6.44127 10.0092 6.49943C9.87416 6.55984 9.81337 6.71641 9.87416 6.85062C9.9975 7.12561 9.93155 7.45504 9.70982 7.65813C9.58151 7.59214 9.44419 7.54091 9.30012 7.50625C9.4025 7.02924 9.20925 6.53572 8.81164 6.24667C8.69233 6.15943 8.52575 6.18628 8.43795 6.30483C8.35241 6.42339 8.37717 6.59115 8.49873 6.67615C8.74578 6.85231 8.84989 7.16961 8.76211 7.45547C8.61354 7.46307 8.46947 7.48812 8.33216 7.52861C8.17823 7.06477 7.76462 6.7314 7.27413 6.68062C7.12557 6.66496 6.995 6.77009 6.9815 6.91683C6.96574 7.06268 7.07154 7.19331 7.21786 7.20852C7.44522 7.23178 7.65007 7.3633 7.76487 7.55925C7.79865 7.61987 7.82341 7.68519 7.84142 7.75252C7.71761 7.8317 7.60505 7.92498 7.50375 8.02967C7.14443 7.7032 6.60581 7.62267 6.15985 7.82029C6.02478 7.88002 5.96625 8.03682 6.02478 8.17058C6.08555 8.3048 6.24314 8.36452 6.3782 8.3048C6.65646 8.18187 6.98535 8.24815 7.19084 8.46696C7.12557 8.59491 7.07379 8.73137 7.03777 8.8743C6.55662 8.77218 6.06185 8.96344 5.7704 9.36013C5.63948 9.53833 5.77422 9.78134 5.98651 9.78134C6.0698 9.78134 6.15084 9.74309 6.20262 9.67174C6.38113 9.42708 6.69826 9.32071 6.98599 9.40845C6.995 9.55653 7.01977 9.69992 7.06029 9.83703C6.59218 9.98951 6.25866 10.3986 6.20711 10.8879C6.19073 11.0434 6.31567 11.1805 6.47275 11.1805C6.60782 11.1805 6.72487 11.0789 6.73838 10.9427C6.76984 10.6414 6.99129 10.3938 7.28539 10.3247C7.36643 10.4468 7.45873 10.5591 7.56453 10.6591C7.50826 10.7228 7.45648 10.7926 7.41145 10.8673C7.21336 11.2102 7.19084 11.6314 7.35292 11.994C7.41347 12.1278 7.5713 12.1872 7.70635 12.128C7.84142 12.0683 7.90219 11.911 7.84142 11.7773C7.71797 11.5028 7.78418 11.1732 8.00575 10.9702C8.13405 11.0362 8.27137 11.0874 8.41545 11.1221C8.3131 11.5974 8.50534 12.0953 8.90393 12.3819C9.02453 12.4686 9.19094 12.44 9.27761 12.3226C9.36315 12.2041 9.33614 12.0381 9.21683 11.9522C8.96592 11.7711 8.87071 11.4696 8.9512 11.1727C9.07052 11.1666 9.18532 11.1494 9.29787 11.1225C10.1015 12.2086 11.1302 13.7727 12.1703 14.2718C12.3886 14.3763 12.6182 14.4617 12.8591 14.5261C12.9019 14.6096 12.9424 14.6881 12.9829 14.7628C13.4534 15.6687 13.5975 15.9423 13.3183 17.1144V17.1159C13.2305 17.485 13.0369 17.8892 12.8501 18.28C12.5755 18.8571 12.3143 19.402 12.3436 19.8952C12.3594 20.1556 12.4472 20.4193 12.5845 20.6808C11.9924 20.53 11.3396 20.4231 10.581 20.3524L10.2996 20.0717C10.1961 19.9525 10.0227 19.8236 9.82913 19.8084C9.68731 19.7975 9.58601 19.8554 9.49597 19.9069L7.49249 21.0546C7.24037 21.1991 7.06928 21.423 6.99725 21.703L6.83742 22.315C6.76445 22.5978 7.03858 22.8555 7.31915 22.762C8.05181 22.5177 8.68858 22.2695 9.48246 22.1808C9.72558 22.1535 9.97545 22.1352 10.2276 22.1256L12.2288 23.0438C12.4517 23.146 12.661 23.1982 12.9064 23.2129L15.198 23.3514V23.3512L15.2295 23.3514L17.0214 23.253C17.1708 23.2449 17.2876 23.1121 17.2713 22.9628C17.2217 22.4378 17.1339 21.8983 17.0101 21.3601C16.8661 20.7349 16.5644 20.088 16.2965 19.517C16.0264 18.9401 15.772 18.3954 15.7585 18.0375C15.7383 17.5626 15.8981 17.0585 16.2312 16.54C16.2718 16.4789 16.319 16.4165 16.3663 16.3503C16.6274 15.9897 16.9538 15.5408 16.83 15.0026C16.7738 14.7518 16.6274 14.5085 16.3956 14.2763C17.8498 13.3782 19.2072 12.3316 20.434 11.1619C20.5398 11.1494 20.6411 11.1286 20.7402 11.1C20.8971 11.5714 21.2996 11.8911 21.7982 11.9479C21.94 11.9641 22.0744 11.8582 22.0908 11.7115C22.1066 11.5657 21.9985 11.435 21.8522 11.4198C21.5476 11.3882 21.3001 11.1703 21.2309 10.8758C21.3525 10.7964 21.465 10.7034 21.5663 10.5987C21.9398 10.9263 22.4578 11.0089 22.9102 10.8083C23.0453 10.7483 23.1061 10.5915 23.0453 10.4578C22.9845 10.3235 22.827 10.2638 22.6919 10.3235C22.4081 10.4491 22.092 10.3783 21.8792 10.1612C21.9468 10.0334 21.9985 9.8972 22.0323 9.75405C22.5157 9.85519 23.0078 9.6657 23.2997 9.2682C23.3875 9.14965 23.3605 8.98368 23.2412 8.89756ZM14.2345 9.98041C13.6898 9.98041 13.244 10.422 13.244 10.9651C13.244 11.5075 13.6898 11.9493 14.2345 11.9493C14.7815 11.9493 15.225 11.5075 15.225 10.9651C15.225 10.422 14.7815 9.98041 14.2345 9.98041ZM14.2345 12.4803C15.0764 12.4803 15.7608 11.8005 15.7608 10.9651C15.7608 10.1294 15.0764 9.44939 14.2345 9.44939C13.3949 9.44939 12.7105 10.1294 12.7105 10.9651C12.7105 11.8005 13.3949 12.4803 14.2345 12.4803Z" fill="white"/>
</svg>
