<svg width="61" height="61" viewBox="0 0 61 61" fill="none" xmlns="http://www.w3.org/2000/svg">
<g id="Group 32">
<circle id="Ellipse 2" cx="30.5" cy="30.5" r="30.5" fill="#F4FBC4"/>
<g id="05 Clap Hand">
<path id="Vector" d="M42.5683 28.1428C42.417 27.8454 42.207 27.582 41.951 27.3686C41.6949 27.1552 41.3983 26.9962 41.0791 26.9014C40.7598 26.8066 40.4247 26.7778 40.0941 26.817C39.7634 26.8561 39.4442 26.9622 39.1557 27.129L38.4596 27.5316C38.3664 27.1724 38.1897 26.8405 37.9442 26.5629C37.6121 26.1896 37.1736 25.9275 36.6882 25.8122L36.8974 25.6024C37.3618 25.1565 37.6379 24.5489 37.6685 23.9049C37.6992 23.2609 37.4822 22.6297 37.0622 22.1414C36.8394 21.8922 36.5682 21.6912 36.2652 21.5507C35.9622 21.4102 35.6338 21.3331 35.3001 21.3241C34.9664 21.3152 34.6344 21.3746 34.3244 21.4987C34.0144 21.6228 33.7329 21.809 33.497 22.0459L32.3281 23.2209C32.2008 22.6822 31.896 22.2024 31.4631 21.8588C31.0302 21.5153 30.4945 21.3281 29.9424 21.3275H29.9389C29.6174 21.3268 29.299 21.3901 29.0021 21.5136C28.7051 21.6372 28.4355 21.8185 28.2089 22.0471L24.199 26.0671L24.192 26.0742L23.7443 26.523C23.6621 25.7977 23.324 25.1258 22.791 24.6285C22.4427 24.3135 21.9867 24.145 21.5178 24.1581C21.0489 24.1712 20.603 24.3648 20.2726 24.6988L16.0523 28.9357C14.1947 30.7441 13.1039 33.201 13.0071 35.7953C12.9102 38.3895 13.8146 40.9213 15.5321 42.864C16.2538 43.6561 17.0981 44.3265 18.0324 44.8494C18.2259 45.0563 18.4357 45.2637 18.6625 45.4671C20.2222 46.8584 22.1798 47.7212 24.2568 47.9325C26.3338 48.1439 28.4244 47.6931 30.2311 46.6444L39.9517 41.0186C40.5143 40.7078 40.9368 40.1927 41.1325 39.5792C41.3281 38.9658 41.2821 38.3005 41.0038 37.72C40.778 37.2713 40.4201 36.9031 39.9786 36.6652L41.2218 35.9461C41.7863 35.6371 42.2112 35.1229 42.4089 34.5092C42.6067 33.8956 42.5623 33.2293 42.2849 32.6475C42.0607 32.2012 41.705 31.8348 41.2662 31.5979L41.5193 31.4514C42.0832 31.1393 42.5063 30.6223 42.7015 30.0067C42.8967 29.3912 42.849 28.7241 42.5683 28.1428ZM16.3959 42.0746C14.8802 40.3547 14.0843 38.115 14.1737 35.8215C14.263 33.5281 15.2309 31.3575 16.8758 29.7613L21.0985 25.528C21.2124 25.4062 21.3691 25.3334 21.5354 25.3251C21.7018 25.3168 21.8649 25.3736 21.9903 25.4835C22.1772 25.6586 22.327 25.8696 22.4309 26.104C22.5348 26.3383 22.5907 26.5912 22.5952 26.8477C22.5997 27.1041 22.5528 27.3588 22.4572 27.5967C22.3617 27.8346 22.2194 28.0508 22.0388 28.2324H22.0359L18.0675 32.2115C17.9579 32.3214 17.8964 32.4705 17.8964 32.626C17.8965 32.7814 17.9581 32.9305 18.0678 33.0404C18.1774 33.1503 18.3261 33.212 18.4812 33.2119C18.6362 33.2119 18.7849 33.15 18.8945 33.0401L22.8559 29.0675L29.0277 22.8792C29.1463 22.7596 29.2874 22.6647 29.4428 22.6002C29.5982 22.5356 29.7648 22.5026 29.933 22.503C30.1878 22.5025 30.437 22.5778 30.649 22.7195C30.861 22.8612 31.0262 23.0629 31.1237 23.2989C31.2212 23.5349 31.2466 23.7946 31.1966 24.0451C31.1467 24.2956 31.0236 24.5256 30.843 24.7058L24.2405 31.3301C24.1847 31.3842 24.1401 31.4488 24.1095 31.5203C24.0789 31.5918 24.0627 31.6687 24.0621 31.7465C24.0614 31.8243 24.0762 31.9015 24.1056 31.9735C24.135 32.0455 24.1784 32.111 24.2332 32.166C24.2881 32.221 24.3534 32.2645 24.4252 32.294C24.497 32.3235 24.574 32.3383 24.6516 32.3376C24.7292 32.3369 24.8059 32.3208 24.8772 32.2901C24.9485 32.2593 25.013 32.2147 25.0669 32.1587L31.6776 25.5309L34.3264 22.8751C34.45 22.7506 34.5977 22.6528 34.7604 22.5876C34.9231 22.5224 35.0973 22.4913 35.2725 22.496C35.4476 22.5008 35.6199 22.5414 35.7789 22.6154C35.9378 22.6893 36.0799 22.7951 36.1966 22.9261C36.412 23.193 36.519 23.5315 36.4962 23.8741C36.4735 24.2166 36.3227 24.5379 36.0739 24.7738L34.3883 26.4639V26.4674L26.8857 33.983C26.8299 34.037 26.7854 34.1017 26.7547 34.1732C26.7241 34.2447 26.708 34.3216 26.7073 34.3994C26.7066 34.4772 26.7214 34.5544 26.7508 34.6264C26.7802 34.6984 26.8236 34.7638 26.8785 34.8189C26.9333 34.8739 26.9986 34.9174 27.0704 34.9469C27.1423 34.9763 27.2192 34.9912 27.2968 34.9905C27.3744 34.9898 27.4511 34.9736 27.5224 34.9429C27.5937 34.9122 27.6582 34.8676 27.7121 34.8116L35.2089 27.2948C35.3292 27.1668 35.476 27.0667 35.6389 27.0015C35.8019 26.9363 35.9771 26.9076 36.1522 26.9174C36.3272 26.9215 36.4995 26.9616 36.6584 27.0353C36.8172 27.109 36.9593 27.2147 37.0757 27.3458C37.2006 27.4916 37.2905 27.6642 37.3384 27.8503C37.3864 28.0365 37.391 28.2312 37.3521 28.4194C37.3413 28.4789 37.3267 28.5376 37.3083 28.5952C37.3001 28.6204 37.2919 28.645 37.2826 28.6696C37.2662 28.713 37.2487 28.7552 37.2288 28.7968C37.2086 28.837 37.1863 28.8761 37.1622 28.914C37.1458 28.9415 37.1306 28.9691 37.1125 28.9954C37.0649 29.0637 37.0118 29.1278 36.9535 29.1871L34.4626 31.694L34.4591 31.6975L29.5321 36.6359C29.4763 36.6899 29.4318 36.7546 29.4011 36.8261C29.3705 36.8976 29.3544 36.9745 29.3537 37.0523C29.353 37.1301 29.3678 37.2072 29.3972 37.2793C29.4266 37.3513 29.47 37.4167 29.5249 37.4717C29.5797 37.5268 29.645 37.5703 29.7168 37.5997C29.7887 37.6292 29.8656 37.644 29.9432 37.6434C30.0208 37.6427 30.0975 37.6265 30.1688 37.5958C30.2401 37.5651 30.3046 37.5204 30.3585 37.4645L35.275 32.5344C35.275 32.5344 35.282 32.5308 35.2849 32.5279C35.4835 32.3118 35.7531 32.1748 36.0444 32.1418C36.3356 32.1089 36.6289 32.1823 36.8705 32.3486C36.8986 32.3662 36.929 32.3791 36.9553 32.399C36.9816 32.4189 37.0108 32.4506 37.0394 32.4758C37.0784 32.5077 37.1157 32.5417 37.151 32.5777C37.1536 32.5816 37.1563 32.5853 37.1592 32.5889C37.2619 32.7149 37.3411 32.8584 37.393 33.0125C37.4257 33.1212 37.4436 33.2337 37.4462 33.3472C37.4462 33.369 37.4462 33.3907 37.4462 33.4122C37.4426 33.6429 37.3845 33.8694 37.2767 34.0732C37.2638 34.0978 37.2504 34.1225 37.2358 34.1471C37.1812 34.2393 37.1163 34.325 37.0423 34.4026C37.0359 34.4096 37.0312 34.4178 37.0242 34.4248L29.0873 42.3829C28.912 42.5587 28.7367 42.7198 28.552 42.8763C27.3314 43.9119 25.8518 44.5934 24.273 44.8471C22.6943 45.1009 21.0763 44.9173 19.5941 44.3161C19.3813 44.2294 19.1707 44.1339 18.9623 44.0296C17.9938 43.5424 17.1237 42.8795 16.3959 42.0746ZM39.365 40.0037L29.6455 45.6294C28.453 46.322 27.1143 46.7226 25.7383 46.7985C24.3622 46.8743 22.9878 46.6233 21.7267 46.066C22.4543 46.1539 23.1894 46.158 23.9179 46.0783C23.9763 46.0724 24.0307 46.0601 24.0879 46.0536C24.3802 46.0179 24.6654 45.9722 24.9512 45.9112C25.0523 45.8902 25.1511 45.8614 25.2516 45.8368C25.4918 45.7782 25.7297 45.7126 25.9652 45.6352C26.0774 45.5989 26.1873 45.5579 26.2983 45.518C26.5198 45.4366 26.7378 45.3481 26.9535 45.2508C27.0651 45.2004 27.1762 45.1494 27.2866 45.0944C27.4982 44.9895 27.7051 44.8746 27.9103 44.7539C28.0149 44.6953 28.1207 44.6332 28.2235 44.5669C28.4345 44.4322 28.6379 44.2851 28.8395 44.1327C28.9278 44.0671 29.0184 44.0061 29.1049 43.937C29.3578 43.733 29.6021 43.515 29.8378 43.283C29.8641 43.2578 29.8927 43.2373 29.9184 43.2115L31.8395 41.2847H31.846C31.9486 41.2847 32.0493 41.2576 32.1382 41.2062L38.1698 37.7141L38.1762 37.7088C38.3281 37.6229 38.4958 37.5687 38.6691 37.5495C38.8425 37.5304 39.0179 37.5467 39.1848 37.5975C39.3517 37.6483 39.5066 37.7325 39.6402 37.845C39.7737 37.9575 39.8831 38.096 39.9617 38.2521C40.1006 38.5656 40.1164 38.9201 40.006 39.2448C39.8956 39.5695 39.6671 39.8405 39.3661 40.0037H39.365ZM40.6391 34.9288L37.5824 36.6986C37.5789 36.6986 37.5771 36.7044 37.5736 36.7062L34.8132 38.306L37.8582 35.2529C37.962 35.1468 38.0565 35.0319 38.1405 34.9095C38.168 34.8708 38.192 34.8321 38.2171 34.7923C38.2671 34.7126 38.3127 34.6302 38.3539 34.5456C38.3802 34.4922 38.4082 34.4401 38.4304 34.3856C38.5034 34.2 38.5561 34.007 38.5876 33.8101C38.597 33.7515 38.6063 33.697 38.6116 33.6402C38.6192 33.5622 38.6227 33.4849 38.6227 33.4058C38.6227 33.3472 38.6186 33.2886 38.6145 33.23C38.6145 33.1966 38.6145 33.1637 38.6104 33.1309L39.4497 32.6445C39.6011 32.557 39.7686 32.5012 39.9422 32.4806C40.1157 32.46 40.2917 32.4749 40.4592 32.5246C40.6268 32.5743 40.7826 32.6576 40.9171 32.7694C41.0516 32.8813 41.162 33.0195 41.2416 33.1755C41.3799 33.49 41.3947 33.8452 41.2833 34.1702C41.1718 34.4952 40.9422 34.7661 40.6402 34.9288H40.6391ZM40.9313 30.4341L38.8653 31.6313L38.1879 32.0234C38.1367 31.9438 38.0809 31.8672 38.0207 31.7942C37.9441 31.7108 37.8621 31.6325 37.7752 31.5598C37.7659 31.5522 37.7583 31.5422 37.7489 31.5346C37.6999 31.4942 37.6461 31.462 37.5941 31.4256C37.542 31.3893 37.4982 31.3524 37.4468 31.3213C37.2354 31.1955 37.0063 31.1026 36.7671 31.0459L37.7864 30.0245C37.8844 29.9219 37.9743 29.8118 38.0552 29.6951C38.0868 29.6512 38.1136 29.6072 38.144 29.5621C38.1867 29.4941 38.2241 29.4244 38.2609 29.3535C38.3273 29.2238 38.3827 29.0888 38.4263 28.9497C38.4322 28.9321 38.4398 28.9157 38.445 28.8982L39.7425 28.1469C39.8937 28.0594 40.0611 28.0038 40.2344 27.9833C40.4077 27.9628 40.5834 27.9779 40.7507 28.0277C40.9181 28.0775 41.0735 28.1609 41.2077 28.2729C41.3418 28.3848 41.4518 28.523 41.5309 28.679C41.669 28.9934 41.6841 29.3484 41.5734 29.6735C41.4627 29.9986 41.2341 30.2701 40.933 30.4341H40.9313Z" fill="#3D7F2D"/>
<path id="Vector_2" d="M42.1147 20.5598C42.2243 20.6696 42.373 20.7313 42.5279 20.7313C42.6829 20.7313 42.8315 20.6696 42.9411 20.5598L46.7401 16.7507C46.7959 16.6966 46.8404 16.632 46.8711 16.5605C46.9017 16.489 46.9178 16.4121 46.9185 16.3343C46.9192 16.2565 46.9044 16.1793 46.875 16.1073C46.8456 16.0353 46.8022 15.9698 46.7473 15.9148C46.6925 15.8598 46.6272 15.8163 46.5554 15.7868C46.4835 15.7573 46.4066 15.7425 46.329 15.7432C46.2514 15.7439 46.1747 15.76 46.1034 15.7907C46.0321 15.8215 45.9676 15.8661 45.9137 15.9221L42.1147 19.7311C42.0052 19.841 41.9436 19.9901 41.9436 20.1455C41.9436 20.3008 42.0052 20.4499 42.1147 20.5598Z" fill="#3D7F2D"/>
<path id="Vector_3" d="M46.0261 20.5224L43.1038 22.2804C43.0365 22.3193 42.9777 22.3712 42.9306 22.4332C42.8836 22.4951 42.8494 22.5658 42.8299 22.6412C42.8105 22.7165 42.8062 22.795 42.8173 22.8721C42.8285 22.9491 42.8548 23.0232 42.8948 23.0899C42.9348 23.1566 42.9876 23.2147 43.0502 23.2607C43.1129 23.3067 43.184 23.3398 43.2595 23.3579C43.335 23.3761 43.4133 23.3789 43.49 23.3664C43.5666 23.3538 43.64 23.3261 43.7058 23.2848L46.628 21.5268C46.6953 21.4879 46.7542 21.436 46.8012 21.374C46.8482 21.3121 46.8824 21.2413 46.9019 21.166C46.9213 21.0906 46.9256 21.0121 46.9145 20.9351C46.9034 20.858 46.877 20.784 46.837 20.7173C46.7971 20.6505 46.7442 20.5925 46.6816 20.5465C46.619 20.5004 46.5478 20.4674 46.4723 20.4492C46.3968 20.4311 46.3185 20.4282 46.2419 20.4408C46.1652 20.4533 46.0919 20.4811 46.0261 20.5224Z" fill="#3D7F2D"/>
<path id="Vector_4" d="M39.6368 20.38C39.7055 20.4144 39.7802 20.4349 39.8568 20.4404C39.9334 20.4458 40.0103 20.4361 40.0832 20.4117C40.156 20.3873 40.2234 20.3488 40.2813 20.2983C40.3393 20.2478 40.3868 20.1863 40.4211 20.1174L42.1745 16.6014C42.2437 16.4623 42.2551 16.3013 42.206 16.1538C42.1569 16.0063 42.0514 15.8844 41.9126 15.8149C41.7739 15.7455 41.6133 15.7341 41.4662 15.7833C41.3191 15.8326 41.1976 15.9384 41.1283 16.0775L39.3749 19.5936C39.3406 19.6624 39.3201 19.7374 39.3147 19.8142C39.3093 19.891 39.319 19.9681 39.3433 20.0412C39.3676 20.1142 39.4061 20.1817 39.4564 20.2399C39.5068 20.298 39.568 20.3456 39.6368 20.38Z" fill="#3D7F2D"/>
<path id="Vector_5" d="M25.9185 18.9113C25.981 19.0519 26.0962 19.1623 26.2392 19.2184C26.3822 19.2746 26.5415 19.272 26.6826 19.2113C26.8238 19.1507 26.9354 19.0367 26.9935 18.8942C27.0515 18.7516 27.0512 18.5919 26.9927 18.4495L25.2394 14.3474C25.1769 14.2068 25.0617 14.0965 24.9187 14.0403C24.7757 13.9842 24.6164 13.9867 24.4752 14.0474C24.3341 14.1081 24.2225 14.222 24.1644 14.3646C24.1064 14.5071 24.1067 14.6669 24.1652 14.8092L25.9185 18.9113Z" fill="#3D7F2D"/>
<path id="Vector_6" d="M28.7934 19.2665C28.9484 19.2665 29.0971 19.2047 29.2067 19.0948C29.3163 18.9849 29.3779 18.8359 29.3779 18.6805V15.1644C29.3779 15.009 29.3163 14.8599 29.2067 14.75C29.0971 14.6401 28.9484 14.5784 28.7934 14.5784C28.6384 14.5784 28.4898 14.6401 28.3802 14.75C28.2706 14.8599 28.209 15.009 28.209 15.1644V18.6805C28.209 18.8359 28.2706 18.9849 28.3802 19.0948C28.4898 19.2047 28.6384 19.2665 28.7934 19.2665Z" fill="#3D7F2D"/>
<path id="Vector_7" d="M23.6613 20.2187C23.7582 20.3401 23.8992 20.4179 24.0533 20.435C24.2074 20.4522 24.362 20.4072 24.483 20.3101C24.6041 20.213 24.6817 20.0716 24.6988 19.9171C24.7159 19.7626 24.6711 19.6076 24.5742 19.4862L22.2364 16.5561C22.1395 16.4347 21.9985 16.3569 21.8444 16.3398C21.6903 16.3226 21.5357 16.3676 21.4147 16.4647C21.2936 16.5618 21.216 16.7032 21.1989 16.8577C21.1818 17.0122 21.2266 17.1672 21.3235 17.2886L23.6613 20.2187Z" fill="#3D7F2D"/>
</g>
</g>
</svg>
