<svg width="37" height="37" viewBox="0 0 37 37" fill="none" xmlns="http://www.w3.org/2000/svg">
<circle cx="18.5" cy="18.5" r="18.5" fill="#CBD2FF"/>
<path d="M22.1168 8.55861H22.5093V8.94877C22.5093 9.38041 22.8625 9.73169 23.2968 9.73169C23.7312 9.73169 24.0844 9.38041 24.0844 8.94877V8.55861H24.4769C24.9112 8.55861 25.2644 8.20733 25.2644 7.77569C25.2644 7.3439 24.9112 6.99262 24.4769 6.99262H24.0844V6.60262C24.0844 6.17083 23.7312 5.81955 23.2968 5.81955C22.8625 5.81955 22.5093 6.17083 22.5093 6.60262V6.99262H22.1168C21.0783 7.01961 21.0786 8.53178 22.1168 8.55861ZM22.1168 7.58891H22.8092C22.975 7.58891 23.1091 7.45542 23.1091 7.29077V6.60262C23.1103 6.3592 23.4832 6.35789 23.4846 6.60263C23.4846 6.60262 23.4846 7.29077 23.4846 7.29077C23.4846 7.45542 23.6187 7.58891 23.7845 7.58891H24.4769C24.7215 7.59013 24.7229 7.96104 24.4769 7.96232C24.4769 7.96232 23.7845 7.96232 23.7845 7.96232C23.6187 7.96232 23.4846 8.09582 23.4846 8.26047V8.94877C23.4834 9.19202 23.1104 9.19332 23.1091 8.94875C23.1091 8.94877 23.1091 8.26047 23.1091 8.26047C23.1091 8.09582 22.975 7.96232 22.8092 7.96232H22.1168C21.8721 7.96117 21.8709 7.59026 22.1168 7.58891ZM20.6333 24.1817H19.8156V23.3691C19.8156 22.7731 19.328 22.2883 18.7284 22.2883C18.1289 22.2883 17.6412 22.7731 17.6412 23.3691V24.1817H16.8235C16.224 24.1817 15.7363 24.6668 15.7363 25.2628C15.7363 25.8588 16.224 26.3436 16.8235 26.3436H17.6412V27.1562C17.6412 27.7522 18.1289 28.2373 18.7284 28.2373C19.328 28.2373 19.8156 27.7522 19.8156 27.1562V26.3436H20.6333C22.0672 26.3063 22.0664 24.2188 20.6333 24.1817ZM20.6333 25.7473H19.5157C19.3499 25.7473 19.2158 25.8806 19.2158 26.0454V27.1562C19.2048 27.7921 18.2525 27.7941 18.2411 27.1562C18.2411 27.1562 18.2411 26.0454 18.2411 26.0454C18.2411 25.8806 18.1069 25.7473 17.9412 25.7473H16.8235C16.5546 25.7473 16.3362 25.5301 16.3362 25.2628C16.3362 24.9955 16.5546 24.778 16.8235 24.778C18.5043 24.7592 18.2191 25.0291 18.2411 23.3691C18.2411 23.1018 18.4596 22.8846 18.7284 22.8846C18.9973 22.8846 19.2158 23.1018 19.2158 23.3691V24.4799C19.2158 24.6447 19.3499 24.778 19.5157 24.778H20.6333C21.2726 24.789 21.2748 25.736 20.6333 25.7473ZM16.2081 11.1787C16.8134 10.34 16.1391 9.09065 15.0993 9.11912C14.061 9.09061 13.3868 10.3408 13.9923 11.1787C13.6155 11.4788 13.3836 11.9365 13.3836 12.4288V13.546C13.3836 13.7107 13.5177 13.8442 13.6835 13.8442H16.5169C16.6826 13.8442 16.8168 13.7107 16.8168 13.546V12.4288C16.8168 11.9363 16.5848 11.4787 16.2081 11.1787ZM15.0993 9.71538C16.3057 9.79875 15.8931 11.5587 14.7729 11.1005C14.0811 10.7812 14.3368 9.70184 15.0993 9.71538ZM16.2169 13.2479H13.9834V12.4288C13.9834 12.093 14.1533 11.7809 14.4268 11.5957C14.8398 11.8319 15.3606 11.8316 15.7735 11.5957C16.0471 11.7807 16.2169 12.0928 16.2169 12.4288V13.2479ZM29.1205 14.0533H28.4963C28.4967 14.0532 30.3688 8.24601 30.3694 8.24577C30.5088 7.80597 30.2651 7.3359 29.8267 7.19833L27.2909 6.39109V5.0851C27.2909 4.62478 26.9154 4.25035 26.4541 4.25035H20.5807L15.1178 2.50894C14.6901 2.35992 14.1879 2.61887 14.061 3.05035C14.061 3.05034 13.6749 4.25035 13.6749 4.25035C13.6077 4.25177 12.9236 4.23746 12.8815 4.26908C12.8264 4.23077 11.9815 5.13285 11.9278 5.17002C11.9278 5.17003 10.2541 6.83569 10.2541 6.83569C10.2283 6.86133 10.2099 6.89152 10.1953 6.92327C10.1399 6.97755 10.1753 7.9007 10.166 7.98587L8.06364 8.37548C7.85042 8.4142 7.66561 8.53358 7.54289 8.71147C7.419 8.89126 7.3736 9.1089 7.4146 9.32276L8.31447 14.118C7.78298 14.2803 7.40055 14.7651 7.40055 15.3473V29.9504C7.40055 30.6638 7.98456 31.2443 8.70242 31.2443H29.1205C29.8381 31.2443 30.4221 30.6638 30.4221 29.9504V15.3473C30.4221 14.6338 29.8381 14.0533 29.1205 14.0533ZM27.2909 7.01708L29.6448 7.76652C29.771 7.80612 29.8378 7.93743 29.7974 8.06568L27.3105 15.778L27.2909 15.8388V7.01708ZM14.6324 3.23101C14.669 3.10729 14.8103 3.03345 14.9329 3.07626C14.9329 3.07626 18.6163 4.25035 18.6163 4.25035H14.3047L14.6324 3.23101ZM12.6757 5.26935V6.50915C12.6757 6.6409 12.5679 6.7482 12.4352 6.7482H11.1899L12.6757 5.26935ZM10.7658 7.34449H12.4352C12.8986 7.34449 13.2755 6.96977 13.2755 6.50915V4.84664H26.4541C26.5848 4.84664 26.6911 4.95364 26.6911 5.0851V19.1456H19.4721C19.2316 19.1456 19.002 19.016 18.8734 18.8087L17.5455 16.6422C17.3082 16.2514 16.8926 16.0181 16.434 16.0181H10.7658V7.34449ZM8.00418 9.21212C7.98017 9.09916 8.05686 8.98082 8.17259 8.96187C8.17259 8.96187 10.166 8.59239 10.166 8.59239V16.0181H9.28117L9.2722 15.9703L8.00418 9.21212ZM8.00037 15.3473C8.00037 15.0584 8.17376 14.812 8.42418 14.7066L8.67108 16.0185C8.43387 16.0269 8.20072 16.0984 8.00037 16.2228V15.3473ZM29.8223 29.9504C29.8223 30.335 29.5074 30.648 29.1205 30.648H8.70242C8.31522 30.648 8.00037 30.335 8.00037 29.9504V17.3121C8.00037 16.9274 8.31522 16.6144 8.70242 16.6144H16.434C16.6806 16.6144 16.9043 16.74 17.0329 16.9515L18.362 19.1202C18.5999 19.5037 19.0251 19.7418 19.4721 19.7418H29.1205C29.5074 19.7418 29.8223 20.0548 29.8223 20.4398V29.9504ZM29.8223 19.3502C29.6132 19.2198 29.3685 19.1492 29.1205 19.1455C29.1205 19.1456 27.2909 19.1456 27.2909 19.1456V17.7911L27.3176 17.7083L28.3046 14.6496H29.1205C29.5074 14.6496 29.8223 14.9626 29.8223 15.3473V19.3502ZM18.5234 14.0382V8.92489C18.5234 8.45831 18.1415 8.07864 17.672 8.07864H12.5284C12.0589 8.07864 11.6769 8.45831 11.6769 8.92489V14.0382C11.6769 14.5049 12.0589 14.8846 12.5284 14.8846H17.672C18.1415 14.8846 18.5234 14.5049 18.5234 14.0382ZM12.2768 14.0382V8.92489C12.2768 8.78703 12.3895 8.67493 12.5284 8.67493H17.672C17.8108 8.67493 17.9236 8.78703 17.9236 8.92489V14.0382C17.9236 14.1761 17.8108 14.2883 17.672 14.2883H12.5284C12.3895 14.2883 12.2768 14.1761 12.2768 14.0382ZM19.3025 9.41724C19.3025 9.25259 19.4366 9.11909 19.6024 9.11909H21.0686C21.2343 9.11909 21.3685 9.25259 21.3685 9.41724C21.3685 9.58189 21.2343 9.71538 21.0686 9.71538H19.6024C19.4366 9.71538 19.3025 9.58189 19.3025 9.41724ZM19.3025 11.2349C19.3025 11.0703 19.4366 10.9368 19.6024 10.9368H24.9645C25.1303 10.9368 25.2644 11.0703 25.2644 11.2349C25.2644 11.3996 25.1303 11.5331 24.9645 11.5331H19.6024C19.4366 11.5331 19.3025 11.3996 19.3025 11.2349ZM19.3025 12.9978C19.3025 12.8331 19.4366 12.6996 19.6024 12.6996H24.9645C25.1303 12.6996 25.2644 12.8331 25.2644 12.9978C25.2644 13.1624 25.1303 13.2959 24.9645 13.2959H19.6024C19.4366 13.2959 19.3025 13.1624 19.3025 12.9978ZM19.3025 14.8533C19.3025 14.6887 19.4366 14.5552 19.6024 14.5552H24.9645C25.1303 14.5552 25.2644 14.6887 25.2644 14.8533C25.2644 15.018 25.1303 15.1514 24.9645 15.1514H19.6024C19.4366 15.1514 19.3025 15.018 19.3025 14.8533ZM19.3025 16.7089C19.3025 16.5442 19.4366 16.4107 19.6024 16.4107H24.9645C25.1303 16.4107 25.2644 16.5442 25.2644 16.7089C25.2644 16.8735 25.1303 17.007 24.9645 17.007H19.6024C19.4366 17.007 19.3025 16.8735 19.3025 16.7089Z" fill="#3C4BAC"/>
</svg>
