<svg width="21" height="21" viewBox="0 0 21 21" fill="none" xmlns="http://www.w3.org/2000/svg">
<g id="Group">
<path id="Vector" d="M10.0263 0C4.49786 0 0 4.55783 0 10.16C0 15.7622 4.49786 20.32 10.0263 20.32C15.5548 20.32 20.0526 15.7622 20.0526 10.16C20.0526 4.55783 15.5548 0 10.0263 0ZM10.0263 1.524C14.742 1.524 18.5487 5.38148 18.5487 10.16C18.5487 14.9386 14.742 18.796 10.0263 18.796C5.31064 18.796 1.50395 14.9386 1.50395 10.16C1.50395 5.38148 5.31064 1.524 10.0263 1.524ZM10.0263 2.794C9.61103 2.794 9.27434 3.13517 9.27434 3.556V10.16C9.27434 10.5809 9.61103 10.922 10.0263 10.922H16.0421C16.4574 10.922 16.7941 10.5809 16.7941 10.16C16.7941 9.73917 16.4574 9.398 16.0421 9.398H10.7783V3.556C10.7783 3.13517 10.4416 2.794 10.0263 2.794Z" fill="#181819"/>
</g>
</svg>
