<svg width="22" height="22" viewBox="0 0 22 22" fill="none" xmlns="http://www.w3.org/2000/svg">
<circle cx="10.555" cy="10.555" r="10.555" fill="#109615"/>
<path d="M8.59272 5.1915C7.59714 5.1915 6.69514 5.3426 6.02675 5.59459C5.69253 5.7206 5.4155 5.87027 5.21223 6.05121C5.00895 6.23216 4.87469 6.4562 4.87469 6.70441C4.87469 6.71057 4.87517 6.71625 4.87517 6.72241C4.87517 6.72383 4.87469 6.72525 4.87469 6.7262V8.41246C4.87469 8.41862 4.87517 8.4243 4.87517 8.43046C4.87517 8.43236 4.87469 8.43378 4.87469 8.4352V10.1215C4.87469 10.1281 4.87469 10.1342 4.87517 10.1409V10.1414C4.87469 10.1423 4.87469 10.1432 4.87469 10.1437V11.831C4.87469 11.8371 4.87469 11.8437 4.87517 11.8499V11.8504C4.87469 11.8508 4.87469 11.8518 4.87469 11.8527V13.54C4.87469 13.774 4.99524 13.9867 5.1796 14.1614C5.36349 14.3362 5.61404 14.4826 5.91896 14.6076C6.52878 14.8577 7.35654 15.0178 8.29069 15.0477C8.33796 15.0496 8.38382 15.0321 8.41833 14.9998C8.45284 14.9676 8.47269 14.9226 8.47458 14.8753C8.476 14.8279 8.45898 14.782 8.42636 14.7474C8.39422 14.7128 8.34978 14.6924 8.30251 14.691C7.4029 14.6626 6.60824 14.5044 6.0547 14.2775C5.77768 14.1638 5.56165 14.0331 5.42409 13.9023C5.28652 13.7716 5.23073 13.6532 5.23073 13.54V12.4988C5.40943 12.6532 5.64295 12.7854 5.92044 12.8991C6.53027 13.1492 7.35658 13.3093 8.29072 13.3387V13.3391C8.338 13.3406 8.38385 13.3235 8.41836 13.2908C8.45287 13.2586 8.47273 13.2141 8.47462 13.1667C8.47604 13.1194 8.45902 13.0734 8.4264 13.0388C8.39425 13.0042 8.34982 12.9839 8.30255 12.9825C7.40294 12.954 6.60828 12.7958 6.05474 12.5689C5.77771 12.4552 5.56168 12.3245 5.42412 12.1938C5.28656 12.063 5.23077 11.9446 5.23077 11.8314V10.7907C5.40899 10.9452 5.64157 11.0773 5.91907 11.191C6.52889 11.4411 7.35665 11.6012 8.2908 11.6306V11.6301C8.33807 11.632 8.38392 11.6145 8.41844 11.5823C8.45295 11.5501 8.4728 11.5051 8.47469 11.4577C8.47611 11.4108 8.45909 11.3648 8.42647 11.3303C8.39433 11.2957 8.34989 11.2753 8.30262 11.2734C7.40301 11.245 6.60835 11.0868 6.05481 10.8599C5.77779 10.7462 5.56176 10.6155 5.42419 10.4847C5.28663 10.354 5.23084 10.2342 5.23084 10.1214V9.08124C5.43223 9.25508 5.70262 9.40144 6.02692 9.52365C6.69535 9.77564 7.59738 9.92533 8.59288 9.92533C9.58846 9.92533 10.49 9.77564 11.1584 9.52365C11.4836 9.40097 11.7531 9.25459 11.9549 9.08029V9.29581L11.9544 9.29628C11.9544 9.39481 12.0334 9.47487 12.1317 9.47534C12.1795 9.47581 12.2248 9.45687 12.2584 9.42323C12.292 9.3896 12.3109 9.34413 12.3104 9.29628V6.70432C12.3104 6.45611 12.1747 6.23254 11.9715 6.05113C11.7682 5.87018 11.4921 5.72049 11.1579 5.5945C10.4894 5.34251 9.5879 5.19141 8.5924 5.19141L8.59272 5.1915ZM8.59272 5.54865C9.55189 5.54865 10.4194 5.69691 11.032 5.92759C11.3383 6.04316 11.5799 6.18053 11.7349 6.31885C11.89 6.45717 11.9547 6.58411 11.9547 6.70442C11.9547 6.82474 11.89 6.95216 11.7349 7.09047C11.5799 7.22878 11.3383 7.36568 11.032 7.48126C10.4193 7.71194 9.55191 7.86068 8.59272 7.86068C7.63354 7.86068 6.76557 7.71241 6.15297 7.48126C5.84665 7.36568 5.60508 7.2288 5.45002 7.09047C5.29496 6.95215 5.23067 6.82474 5.23067 6.70442C5.23067 6.58411 5.29496 6.45716 5.45002 6.31885C5.60508 6.18054 5.84664 6.04317 6.15297 5.92759C6.76563 5.69691 7.63352 5.54865 8.59272 5.54865ZM11.9547 7.37181V8.41295C11.9547 8.53326 11.89 8.66163 11.7349 8.79994C11.5799 8.93825 11.3383 9.0742 11.032 9.18977C10.4193 9.42045 9.55191 9.56872 8.59272 9.56872C7.63354 9.56872 6.76557 9.42045 6.15297 9.18977C5.84665 9.0742 5.60508 8.93825 5.45002 8.79994C5.29496 8.66163 5.23067 8.53326 5.23067 8.41295V7.37276C5.43206 7.5466 5.70245 7.69154 6.02675 7.81375C6.69518 8.06574 7.59721 8.21684 8.59272 8.21684C9.58829 8.21684 10.4898 8.06574 11.1582 7.81375C11.4834 7.69107 11.7529 7.54612 11.9547 7.37181ZM12.5485 9.82262C11.5529 9.82262 10.6514 9.97231 9.98301 10.2243C9.64879 10.3503 9.37129 10.5014 9.16802 10.6823C8.96474 10.8633 8.83048 11.0873 8.83048 11.3355C8.83048 11.3417 8.83095 11.3474 8.83095 11.3535C8.83048 11.355 8.83048 11.3564 8.83048 11.3578V13.0441C8.83048 13.0502 8.83095 13.0564 8.83095 13.0625V13.0621C8.83048 13.0635 8.83048 13.0649 8.83048 13.0663V14.7526C8.83048 15.0008 8.96474 15.2244 9.16802 15.4058C9.37129 15.5867 9.64879 15.7378 9.98301 15.8638C10.6514 16.1158 11.553 16.2655 12.5485 16.2655C13.5441 16.2655 14.4446 16.1158 15.113 15.8638C15.4472 15.7378 15.7242 15.5867 15.9275 15.4058C16.1308 15.2248 16.2651 15.0008 16.2651 14.7526V11.3354L16.2646 11.335C16.2646 11.3293 16.2646 11.3231 16.2641 11.3174C16.258 11.0763 16.1256 10.8589 15.9271 10.6822C15.7238 10.5013 15.4467 10.3502 15.1125 10.2242C14.4441 9.97221 13.5435 9.82252 12.548 9.82252L12.5485 9.82262ZM12.5485 10.1793C13.5077 10.1793 14.3756 10.3276 14.9882 10.5587C15.2946 10.6743 15.5361 10.8098 15.6912 10.9481C15.8462 11.0864 15.9091 11.2152 15.9091 11.3355C15.9091 11.4559 15.8462 11.5828 15.6912 11.7211C15.5361 11.8594 15.2946 11.9954 14.9882 12.1109C14.3756 12.3416 13.5077 12.4913 12.5485 12.4913C11.5893 12.4913 10.7205 12.3421 10.1078 12.1109C9.80145 11.9954 9.55989 11.8594 9.40483 11.7211C9.24976 11.5828 9.18642 11.4559 9.18642 11.3355C9.18642 11.2152 9.24977 11.0864 9.40483 10.9481C9.55988 10.8098 9.80144 10.6743 10.1078 10.5587C10.7204 10.328 11.5893 10.1793 12.5485 10.1793ZM9.18646 12.003C9.38785 12.1768 9.65824 12.3232 9.98301 12.4454C10.6514 12.6974 11.553 12.848 12.5485 12.848C13.5441 12.848 14.4446 12.6974 15.113 12.4454C15.4373 12.3232 15.7077 12.1768 15.9091 12.003V13.0441C15.9091 13.1644 15.8462 13.2918 15.6911 13.4301C15.5361 13.5684 15.2945 13.7053 14.9882 13.8209C14.3755 14.0516 13.5077 14.2003 12.5485 14.2003C11.5893 14.2003 10.7205 14.0521 10.1077 13.8209C9.80142 13.7053 9.55985 13.5685 9.40479 13.4301C9.24973 13.2918 9.18639 13.1644 9.18639 13.0441L9.18646 12.003ZM9.18646 13.713C9.38785 13.8868 9.65824 14.0318 9.98301 14.154C10.6514 14.406 11.553 14.5571 12.5485 14.5571C13.5441 14.5571 14.4446 14.406 15.113 14.154C15.4373 14.0318 15.7077 13.8868 15.9091 13.713V14.7532C15.9091 14.8735 15.8462 15.0009 15.6911 15.1392C15.5361 15.2775 15.2945 15.4144 14.9882 15.53C14.3755 15.7607 13.5077 15.9094 12.5485 15.9094C11.5893 15.9094 10.7205 15.7612 10.1077 15.53C9.80142 15.4144 9.55985 15.2775 9.40479 15.1392C9.24973 15.0009 9.18639 14.8735 9.18639 14.7532L9.18646 13.713Z" fill="white" stroke="white" stroke-width="0.3"/>
</svg>
