<svg width="50" height="50" viewBox="0 0 50 50" fill="none" xmlns="http://www.w3.org/2000/svg">
<circle cx="24.9026" cy="24.9026" r="24.9026" fill="#E2F9E3"/>
<path d="M38.2326 20.8917C38.0816 20.4376 38.006 19.8701 37.9683 19.2647C37.855 18.243 37.7795 17.1836 37.1375 16.3133C36.4956 15.443 35.5138 15.0268 34.5697 14.6106C34.041 14.3835 33.5124 14.1565 33.1347 13.8538C32.7571 13.5889 32.3795 13.1727 32.0019 12.7186C31.3599 11.9619 30.6047 11.1294 29.5851 10.7889C28.5655 10.4483 27.546 10.6754 26.5642 10.9024C25.3935 11.1673 24.4495 11.1673 23.2411 10.9024C22.2593 10.6754 21.2397 10.4483 20.2202 10.7889C19.1628 11.1294 18.4453 11.9619 17.8034 12.7186C17.4258 13.1727 17.0481 13.5511 16.6705 13.8538C16.2929 14.1565 15.7642 14.3457 15.2356 14.6106C14.2915 15.0268 13.3097 15.443 12.6678 16.3133C12.0258 17.1836 11.9503 18.243 11.837 19.2647C11.7615 19.8701 11.7237 20.3998 11.5727 20.8917C11.4216 21.3458 11.1573 21.7998 10.8552 22.2917C10.3643 23.162 9.79785 24.108 9.79785 25.2431C9.79785 26.3783 10.3643 27.3242 10.8552 28.1945C11.1573 28.6864 11.4216 29.1404 11.5727 29.5945C11.7237 30.0486 11.7992 30.6161 11.837 31.2216C11.9503 32.2432 12.0258 33.3027 12.6678 34.1729C13.3097 35.0432 14.2915 35.4594 15.2356 35.8757C15.7642 36.1027 16.2929 36.3297 16.6705 36.6324C17.0481 36.8973 17.4258 37.3135 17.8034 37.7676C18.4453 38.5243 19.2006 39.3568 20.2202 39.6973C21.2397 40.0379 22.2593 39.8108 23.2411 39.5838C24.4117 39.3189 25.3558 39.3189 26.5642 39.5838C27.2061 39.7352 27.8481 39.8487 28.49 39.8487C28.8676 39.8487 29.2075 39.8108 29.5851 39.6973C30.6425 39.3568 31.3599 38.5243 32.0019 37.7676C32.3795 37.3135 32.7571 36.9351 33.1347 36.6324C33.5124 36.3297 34.041 36.1405 34.5697 35.8757C35.5138 35.4594 36.4956 35.0432 37.1375 34.1729C37.7795 33.3027 37.855 32.2432 37.9683 31.2216C38.0438 30.6161 38.0816 30.0864 38.2326 29.5945C38.3837 29.1404 38.648 28.6864 38.9501 28.1945C39.441 27.3242 40.0074 26.3783 40.0074 25.2431C40.0074 24.108 39.441 23.162 38.9501 22.2917C38.648 21.7998 38.3837 21.3458 38.2326 20.8917ZM37.5907 27.3999C37.2886 27.9296 36.9487 28.4972 36.7599 29.1026C36.5711 29.7459 36.4956 30.3891 36.42 31.0324C36.3445 31.8648 36.269 32.6972 35.8914 33.227C35.5138 33.7567 34.7585 34.0973 33.9655 34.4378C33.3613 34.7027 32.7571 34.9675 32.2285 35.3459C31.6998 35.7243 31.2844 36.2162 30.8313 36.7081C30.2648 37.3513 29.7362 37.9568 29.0942 38.1838C28.49 38.373 27.697 38.2216 26.904 38.0324C26.2621 37.8811 25.5824 37.7297 24.9026 37.7297C24.2229 37.7297 23.5432 37.8811 22.9013 38.0324C22.0705 38.2216 21.3153 38.373 20.7111 38.1838C20.0691 37.9568 19.5404 37.3513 18.974 36.7081C18.5586 36.2162 18.1055 35.7243 17.5768 35.3459C17.0481 34.9675 16.444 34.7027 15.8398 34.4378C15.0468 34.0973 14.3293 33.7567 13.9139 33.227C13.5363 32.6972 13.4608 31.9026 13.3852 31.0324C13.3097 30.3891 13.272 29.708 13.0454 29.1026C12.8566 28.4972 12.5167 27.9296 12.2146 27.3999C11.7615 26.6431 11.3461 25.962 11.3461 25.2431C11.3461 24.5242 11.7615 23.8431 12.2146 23.0863C12.5167 22.5566 12.8566 21.989 13.0454 21.3836C13.2342 20.7404 13.3097 20.0971 13.3852 19.4539C13.4608 18.6214 13.5363 17.789 13.9139 17.2592C14.2915 16.7295 15.0468 16.389 15.8398 16.0484C16.444 15.7835 17.0481 15.5187 17.5768 15.1403C18.1055 14.7619 18.5209 14.27 18.974 13.7781C19.5404 13.1349 20.0691 12.5295 20.7111 12.3024C21.3153 12.1132 22.1083 12.2646 22.9013 12.4538C24.1852 12.7186 25.5824 12.7186 26.8663 12.4538C27.697 12.2646 28.4523 12.1132 29.0565 12.3024C29.6984 12.5295 30.2271 13.1349 30.7935 13.7781C31.2089 14.27 31.662 14.7619 32.1907 15.1403C32.7194 15.5187 33.3236 15.7835 33.9277 16.0484C34.7208 16.389 35.4382 16.7295 35.8536 17.2592C36.2312 17.789 36.3068 18.5836 36.3823 19.4539C36.4578 20.0971 36.4956 20.7782 36.7221 21.3836C36.9109 21.989 37.2508 22.5566 37.5529 23.0863C38.006 23.8431 38.4214 24.5242 38.4214 25.2431C38.4214 25.962 38.0438 26.6431 37.5907 27.3999Z" fill="#109615"/>
<path d="M31.2093 20.3598L23.0905 28.4951L18.5968 24.0302C18.2947 23.7274 17.8038 23.7274 17.5017 24.0302C17.1996 24.3329 17.1996 24.8248 17.5017 25.1275L22.5241 30.16C22.6751 30.3113 22.8639 30.387 23.0527 30.387C23.2415 30.387 23.4681 30.3113 23.5814 30.16L32.2667 21.4572C32.5687 21.1544 32.5687 20.6625 32.2667 20.3598C32.0023 20.0571 31.5114 20.0571 31.2093 20.3598Z" fill="#109615"/>
</svg>
