<svg width="21" height="21" viewBox="0 0 21 21" fill="none" xmlns="http://www.w3.org/2000/svg">
<path d="M19.1053 1.39789H17.0211V1.04842C17.0211 0.770362 16.9113 0.503693 16.7159 0.307075C16.5205 0.110458 16.2554 0 15.979 0H15.6316C15.3553 0 15.0902 0.110458 14.8948 0.307075C14.6993 0.503693 14.5895 0.770362 14.5895 1.04842V1.39789H11.4632V1.04842C11.4632 0.770362 11.3534 0.503693 11.158 0.307075C10.9626 0.110458 10.6975 0 10.4211 0H10.0737C9.79737 0 9.5323 0.110458 9.33687 0.307075C9.14144 0.503693 9.03164 0.770362 9.03164 1.04842V1.39789H6.2527V1.04842C6.2527 0.770362 6.1429 0.503693 5.94747 0.307075C5.75204 0.110458 5.48697 0 5.21059 0H4.86322C4.58684 0 4.32178 0.110458 4.12634 0.307075C3.93091 0.503693 3.82112 0.770362 3.82112 1.04842V1.39789H1.73691C1.27644 1.39845 0.834985 1.58273 0.509383 1.9103C0.183782 2.23787 0.000616421 2.682 6.48499e-05 3.14526V19.2211C0.000616421 19.6843 0.183782 20.1284 0.509383 20.456C0.834985 20.7836 1.27644 20.9679 1.73691 20.9684H19.1053C19.5658 20.9679 20.0073 20.7836 20.3329 20.456C20.6585 20.1284 20.8416 19.6843 20.8422 19.2211V3.14526C20.8416 2.682 20.6585 2.23787 20.3329 1.9103C20.0073 1.58273 19.5658 1.39845 19.1053 1.39789ZM15.2843 1.04842C15.2843 0.955735 15.3209 0.866845 15.386 0.801306C15.4512 0.735767 15.5395 0.698947 15.6316 0.698947H15.979C16.0711 0.698947 16.1595 0.735767 16.2246 0.801306C16.2898 0.866845 16.3264 0.955735 16.3264 1.04842V1.39789H15.2843V1.04842ZM9.72638 1.04842C9.72638 0.955735 9.76298 0.866845 9.82812 0.801306C9.89327 0.735767 9.98162 0.698947 10.0737 0.698947H10.4211C10.5132 0.698947 10.6016 0.735767 10.6667 0.801306C10.7319 0.866845 10.7685 0.955735 10.7685 1.04842V1.39789H9.72638V1.04842ZM4.51585 1.04842C4.51585 0.955735 4.55245 0.866845 4.6176 0.801306C4.68274 0.735767 4.77109 0.698947 4.86322 0.698947H5.21059C5.30272 0.698947 5.39107 0.735767 5.45622 0.801306C5.52136 0.866845 5.55796 0.955735 5.55796 1.04842V1.39789H4.51585V1.04842ZM0.694802 3.14526C0.694802 2.8672 0.804594 2.60053 1.00003 2.40392C1.19546 2.2073 1.46052 2.09684 1.73691 2.09684H3.82112V3.14526C3.82112 3.42332 3.93091 3.68999 4.12634 3.88661C4.32178 4.08323 4.58684 4.19368 4.86322 4.19368H5.21059C5.30272 4.19368 5.39107 4.15687 5.45622 4.09133C5.52136 4.02579 5.55796 3.9369 5.55796 3.84421C5.55796 3.75152 5.52136 3.66263 5.45622 3.5971C5.39107 3.53156 5.30272 3.49474 5.21059 3.49474H4.86322C4.77109 3.49474 4.68274 3.45792 4.6176 3.39238C4.55245 3.32684 4.51585 3.23795 4.51585 3.14526V2.09684H9.03164V3.14526C9.03164 3.42332 9.14144 3.68999 9.33687 3.88661C9.5323 4.08323 9.79737 4.19368 10.0737 4.19368H10.4211C10.5132 4.19368 10.6016 4.15687 10.6667 4.09133C10.7319 4.02579 10.7685 3.9369 10.7685 3.84421C10.7685 3.75152 10.7319 3.66263 10.6667 3.5971C10.6016 3.53156 10.5132 3.49474 10.4211 3.49474H10.0737C9.98162 3.49474 9.89327 3.45792 9.82812 3.39238C9.76298 3.32684 9.72638 3.23795 9.72638 3.14526V2.09684H14.5895V3.14526C14.5895 3.42332 14.6993 3.68999 14.8948 3.88661C15.0902 4.08323 15.3553 4.19368 15.6316 4.19368H15.979C16.0711 4.19368 16.1595 4.15687 16.2246 4.09133C16.2898 4.02579 16.3264 3.9369 16.3264 3.84421C16.3264 3.75152 16.2898 3.66263 16.2246 3.5971C16.1595 3.53156 16.0711 3.49474 15.979 3.49474H15.6316C15.5395 3.49474 15.4512 3.45792 15.386 3.39238C15.3209 3.32684 15.2843 3.23795 15.2843 3.14526V2.09684H19.1053C19.3817 2.09684 19.6468 2.2073 19.8422 2.40392C20.0376 2.60053 20.1474 2.8672 20.1474 3.14526V5.94105H0.694802V3.14526ZM19.1053 20.2695H1.73691C1.46052 20.2695 1.19546 20.159 1.00003 19.9624C0.804594 19.7658 0.694802 19.4991 0.694802 19.2211V19.212C0.993674 19.4433 1.35985 19.5692 1.73691 19.5705H15.6316C15.7237 19.5703 15.812 19.5335 15.8772 19.4681L20.1474 15.1721V19.2211C20.1474 19.4991 20.0376 19.7658 19.8422 19.9624C19.6468 20.159 19.3817 20.2695 19.1053 20.2695ZM15.979 18.3774V15.7263C15.979 15.4483 16.0888 15.1816 16.2842 14.985C16.4797 14.7884 16.7447 14.6779 17.0211 14.6779H19.6563L15.979 18.3774ZM20.1474 13.9789H17.0211C16.5606 13.9795 16.1192 14.1638 15.7936 14.4914C15.468 14.8189 15.2848 15.2631 15.2843 15.7263V18.8716H1.73691C1.46052 18.8716 1.19546 18.7611 1.00003 18.5645C0.804594 18.3679 0.694802 18.1012 0.694802 17.8232V6.64H20.1474V13.9789Z" fill="#109615"/>
<path d="M2.43166 17.4677H4.51587C4.608 17.4677 4.69635 17.4308 4.7615 17.3653C4.82664 17.2998 4.86324 17.2109 4.86324 17.1182V15.0213C4.86324 14.9287 4.82664 14.8398 4.7615 14.7742C4.69635 14.7087 4.608 14.6719 4.51587 14.6719H2.43166C2.33953 14.6719 2.25118 14.7087 2.18604 14.7742C2.12089 14.8398 2.08429 14.9287 2.08429 15.0213V17.1182C2.08429 17.2109 2.12089 17.2998 2.18604 17.3653C2.25118 17.4308 2.33953 17.4677 2.43166 17.4677ZM2.77903 15.3708H4.1685V16.7687H2.77903V15.3708Z" fill="#109615"/>
<path d="M5.90505 17.4677H7.98926C8.08139 17.4677 8.16974 17.4308 8.23489 17.3653C8.30003 17.2998 8.33663 17.2109 8.33663 17.1182V15.0213C8.33663 14.9287 8.30003 14.8398 8.23489 14.7742C8.16974 14.7087 8.08139 14.6719 7.98926 14.6719H5.90505C5.81292 14.6719 5.72457 14.7087 5.65942 14.7742C5.59428 14.8398 5.55768 14.9287 5.55768 15.0213V17.1182C5.55768 17.2109 5.59428 17.2998 5.65942 17.3653C5.72457 17.4308 5.81292 17.4677 5.90505 17.4677ZM6.25242 15.3708H7.64189V16.7687H6.25242V15.3708Z" fill="#109615"/>
<path d="M9.37868 17.4677H11.4629C11.555 17.4677 11.6434 17.4308 11.7085 17.3653C11.7737 17.2998 11.8103 17.2109 11.8103 17.1182V15.0213C11.8103 14.9287 11.7737 14.8398 11.7085 14.7742C11.6434 14.7087 11.555 14.6719 11.4629 14.6719H9.37868C9.28656 14.6719 9.1982 14.7087 9.13306 14.7742C9.06791 14.8398 9.03131 14.9287 9.03131 15.0213V17.1182C9.03131 17.2109 9.06791 17.2998 9.13306 17.3653C9.1982 17.4308 9.28656 17.4677 9.37868 17.4677ZM9.72605 15.3708H11.1155V16.7687H9.72605V15.3708Z" fill="#109615"/>
<path d="M2.43166 13.9784H4.51587C4.608 13.9784 4.69635 13.9416 4.7615 13.876C4.82664 13.8105 4.86324 13.7216 4.86324 13.6289V11.5321C4.86324 11.4394 4.82664 11.3505 4.7615 11.285C4.69635 11.2194 4.608 11.1826 4.51587 11.1826H2.43166C2.33953 11.1826 2.25118 11.2194 2.18604 11.285C2.12089 11.3505 2.08429 11.4394 2.08429 11.5321V13.6289C2.08429 13.7216 2.12089 13.8105 2.18604 13.876C2.25118 13.9416 2.33953 13.9784 2.43166 13.9784ZM2.77903 11.8816H4.1685V13.2795H2.77903V11.8816Z" fill="#109615"/>
<path d="M5.90505 13.9784H7.98926C8.08139 13.9784 8.16974 13.9416 8.23489 13.876C8.30003 13.8105 8.33663 13.7216 8.33663 13.6289V11.5321C8.33663 11.4394 8.30003 11.3505 8.23489 11.285C8.16974 11.2194 8.08139 11.1826 7.98926 11.1826H5.90505C5.81292 11.1826 5.72457 11.2194 5.65942 11.285C5.59428 11.3505 5.55768 11.4394 5.55768 11.5321V13.6289C5.55768 13.7216 5.59428 13.8105 5.65942 13.876C5.72457 13.9416 5.81292 13.9784 5.90505 13.9784ZM6.25242 11.8816H7.64189V13.2795H6.25242V11.8816Z" fill="#109615"/>
<path d="M9.37868 13.9784H11.4629C11.555 13.9784 11.6434 13.9416 11.7085 13.876C11.7737 13.8105 11.8103 13.7216 11.8103 13.6289V11.5321C11.8103 11.4394 11.7737 11.3505 11.7085 11.285C11.6434 11.2194 11.555 11.1826 11.4629 11.1826H9.37868C9.28656 11.1826 9.1982 11.2194 9.13306 11.285C9.06791 11.3505 9.03131 11.4394 9.03131 11.5321V13.6289C9.03131 13.7216 9.06791 13.8105 9.13306 13.876C9.1982 13.9416 9.28656 13.9784 9.37868 13.9784ZM9.72605 11.8816H11.1155V13.2795H9.72605V11.8816Z" fill="#109615"/>
<path d="M12.8533 13.9784H14.9375C15.0296 13.9784 15.118 13.9416 15.1831 13.876C15.2483 13.8105 15.2849 13.7216 15.2849 13.6289V11.5321C15.2849 11.4394 15.2483 11.3505 15.1831 11.285C15.118 11.2194 15.0296 11.1826 14.9375 11.1826H12.8533C12.7612 11.1826 12.6728 11.2194 12.6077 11.285C12.5425 11.3505 12.5059 11.4394 12.5059 11.5321V13.6289C12.5059 13.7216 12.5425 13.8105 12.6077 13.876C12.6728 13.9416 12.7612 13.9784 12.8533 13.9784ZM13.2007 11.8816H14.5901V13.2795H13.2007V11.8816Z" fill="#109615"/>
<path d="M9.37868 10.4804H11.4629C11.555 10.4804 11.6434 10.4435 11.7085 10.378C11.7737 10.3125 11.8103 10.2236 11.8103 10.1309V8.03404C11.8103 7.94136 11.7737 7.85247 11.7085 7.78693C11.6434 7.72139 11.555 7.68457 11.4629 7.68457H9.37868C9.28656 7.68457 9.1982 7.72139 9.13306 7.78693C9.06791 7.85247 9.03131 7.94136 9.03131 8.03404V10.1309C9.03131 10.2236 9.06791 10.3125 9.13306 10.378C9.1982 10.4435 9.28656 10.4804 9.37868 10.4804ZM9.72605 8.38352H11.1155V9.78141H9.72605V8.38352Z" fill="#109615"/>
<path d="M12.8533 10.4804H14.9375C15.0296 10.4804 15.118 10.4435 15.1831 10.378C15.2483 10.3125 15.2849 10.2236 15.2849 10.1309V8.03404C15.2849 7.94136 15.2483 7.85247 15.1831 7.78693C15.118 7.72139 15.0296 7.68457 14.9375 7.68457H12.8533C12.7612 7.68457 12.6728 7.72139 12.6077 7.78693C12.5425 7.85247 12.5059 7.94136 12.5059 8.03404V10.1309C12.5059 10.2236 12.5425 10.3125 12.6077 10.378C12.6728 10.4435 12.7612 10.4804 12.8533 10.4804ZM13.2007 8.38352H14.5901V9.78141H13.2007V8.38352Z" fill="#109615"/>
<path d="M16.3262 10.4804H18.4104C18.5025 10.4804 18.5909 10.4435 18.656 10.378C18.7212 10.3125 18.7578 10.2236 18.7578 10.1309V8.03404C18.7578 7.94136 18.7212 7.85247 18.656 7.78693C18.5909 7.72139 18.5025 7.68457 18.4104 7.68457H16.3262C16.2341 7.68457 16.1457 7.72139 16.0806 7.78693C16.0154 7.85247 15.9788 7.94136 15.9788 8.03404V10.1309C15.9788 10.2236 16.0154 10.3125 16.0806 10.378C16.1457 10.4435 16.2341 10.4804 16.3262 10.4804ZM16.6736 8.38352H18.063V9.78141H16.6736V8.38352Z" fill="#109615"/>
</svg>
