<svg width="22" height="22" viewBox="0 0 22 22" fill="none" xmlns="http://www.w3.org/2000/svg">
<circle cx="10.5571" cy="10.5571" r="10.5571" fill="#109615"/>
<path d="M16.2082 8.85657C16.1442 8.66408 16.1122 8.42346 16.0962 8.16681C16.0481 7.7337 16.0161 7.28455 15.744 6.91561C15.4718 6.54666 15.0556 6.37021 14.6554 6.19376C14.4313 6.09752 14.2071 6.00127 14.047 5.87294C13.887 5.76065 13.7269 5.5842 13.5668 5.39171C13.2946 5.07089 12.9745 4.71799 12.5422 4.57362C12.11 4.42925 11.6778 4.5255 11.2615 4.62174C10.7653 4.73403 10.3651 4.73403 9.85277 4.62174C9.43655 4.5255 9.00431 4.42925 8.57208 4.57362C8.12384 4.71799 7.81967 5.07089 7.54753 5.39171C7.38744 5.5842 7.22735 5.74461 7.06727 5.87294C6.90718 6.00127 6.68306 6.08148 6.45894 6.19376C6.05872 6.37021 5.64249 6.54666 5.37035 6.91561C5.0982 7.28455 5.06618 7.7337 5.01815 8.16681C4.98614 8.42346 4.97013 8.64804 4.90609 8.85657C4.84206 9.04906 4.73 9.24156 4.60193 9.45009C4.39382 9.81903 4.15369 10.2201 4.15369 10.7013C4.15369 11.1825 4.39382 11.5835 4.60193 11.9525C4.73 12.161 4.84206 12.3535 4.90609 12.546C4.97013 12.7385 5.00215 12.9791 5.01815 13.2358C5.06618 13.6689 5.0982 14.118 5.37035 14.487C5.64249 14.8559 6.05872 15.0324 6.45894 15.2088C6.68306 15.3051 6.90718 15.4013 7.06727 15.5296C7.22735 15.6419 7.38744 15.8184 7.54753 16.0109C7.81967 16.3317 8.13985 16.6846 8.57208 16.829C9.00431 16.9733 9.43655 16.8771 9.85277 16.7808C10.349 16.6685 10.7493 16.6685 11.2615 16.7808C11.5337 16.845 11.8058 16.8931 12.078 16.8931C12.2381 16.8931 12.3821 16.8771 12.5422 16.829C12.9905 16.6846 13.2946 16.3317 13.5668 16.0109C13.7269 15.8184 13.887 15.658 14.047 15.5296C14.2071 15.4013 14.4313 15.3211 14.6554 15.2088C15.0556 15.0324 15.4718 14.8559 15.744 14.487C16.0161 14.118 16.0481 13.6689 16.0962 13.2358C16.1282 12.9791 16.1442 12.7545 16.2082 12.546C16.2723 12.3535 16.3843 12.161 16.5124 11.9525C16.7205 11.5835 16.9606 11.1825 16.9606 10.7013C16.9606 10.2201 16.7205 9.81903 16.5124 9.45009C16.3843 9.24156 16.2723 9.04906 16.2082 8.85657ZM15.9361 11.6156C15.808 11.8402 15.6639 12.0808 15.5839 12.3375C15.5038 12.6102 15.4718 12.8829 15.4398 13.1556C15.4078 13.5085 15.3758 13.8614 15.2157 14.0859C15.0556 14.3105 14.7354 14.4549 14.3992 14.5993C14.1431 14.7115 13.887 14.8238 13.6628 14.9842C13.4387 15.1446 13.2626 15.3532 13.0705 15.5617C12.8304 15.8344 12.6063 16.0911 12.3341 16.1873C12.078 16.2675 11.7418 16.2034 11.4056 16.1232C11.1335 16.059 10.8453 15.9948 10.5572 15.9948C10.269 15.9948 9.98084 16.059 9.7087 16.1232C9.35651 16.2034 9.03633 16.2675 8.78019 16.1873C8.50805 16.0911 8.28392 15.8344 8.04379 15.5617C7.8677 15.3532 7.6756 15.1446 7.45147 14.9842C7.22735 14.8238 6.97121 14.7115 6.71507 14.5993C6.37889 14.4549 6.07473 14.3105 5.89863 14.0859C5.73855 13.8614 5.70653 13.5245 5.67451 13.1556C5.64249 12.8829 5.62648 12.5941 5.53043 12.3375C5.45039 12.0808 5.30631 11.8402 5.17824 11.6156C4.98614 11.2948 4.81004 11.0061 4.81004 10.7013C4.81004 10.3965 4.98614 10.1078 5.17824 9.78695C5.30631 9.56238 5.45039 9.32176 5.53043 9.0651C5.61048 8.79241 5.64249 8.51971 5.67451 8.24701C5.70653 7.89411 5.73855 7.54121 5.89863 7.31663C6.05872 7.09206 6.37889 6.94769 6.71507 6.80332C6.97121 6.69103 7.22735 6.57875 7.45147 6.41834C7.6756 6.25793 7.85169 6.04939 8.04379 5.84086C8.28392 5.56816 8.50805 5.31151 8.78019 5.21526C9.03633 5.13506 9.37251 5.19922 9.7087 5.27942C10.253 5.39171 10.8453 5.39171 11.3896 5.27942C11.7418 5.19922 12.062 5.13506 12.3181 5.21526C12.5903 5.31151 12.8144 5.56816 13.0545 5.84086C13.2306 6.04939 13.4227 6.25793 13.6468 6.41834C13.871 6.57875 14.1271 6.69103 14.3832 6.80332C14.7194 6.94769 15.0236 7.09206 15.1997 7.31663C15.3598 7.54121 15.3918 7.87807 15.4238 8.24701C15.4558 8.51971 15.4718 8.80845 15.5679 9.0651C15.6479 9.32176 15.792 9.56238 15.9201 9.78695C16.1122 10.1078 16.2883 10.3965 16.2883 10.7013C16.2883 11.0061 16.1282 11.2948 15.9361 11.6156Z" fill="white"/>
<path d="M13.2308 8.6314L9.78894 12.0802L7.88391 10.1874C7.75584 10.0591 7.54773 10.0591 7.41966 10.1874C7.29159 10.3157 7.29159 10.5242 7.41966 10.6526L9.54881 12.786C9.61285 12.8502 9.69289 12.8823 9.77294 12.8823C9.85298 12.8823 9.94903 12.8502 9.99706 12.786L13.6791 9.09659C13.8071 8.96826 13.8071 8.75973 13.6791 8.6314C13.567 8.50307 13.3589 8.50307 13.2308 8.6314Z" fill="white"/>
</svg>
