<svg width="25" height="25" viewBox="0 0 25 25" fill="none" xmlns="http://www.w3.org/2000/svg">
<circle cx="12.5" cy="12.5" r="12.5" fill="#D9FEAA"/>
<path fill-rule="evenodd" clip-rule="evenodd" d="M10.0007 9.28372V7.63543C10.0007 6.18647 11.1254 5 12.4995 5C13.8748 5 14.9983 6.1853 14.9983 7.63605V9.28435H17.2236C17.3532 9.28435 17.4586 9.39492 17.4598 9.53161L17.9971 17.7224C18.0437 18.4186 17.5243 19 16.8695 19H8.13021C7.45986 19 6.9594 18.4168 7.0026 17.7224L7.54049 9.51636C7.54912 9.38453 7.65221 9.28428 7.77546 9.28428L10.0007 9.28372ZM12.5001 10.5201C14.3949 10.5201 15.9336 12.1435 15.9336 14.1422C15.9336 16.141 14.3943 17.7643 12.4995 17.7643C10.6047 17.7643 9.066 16.1409 9.066 14.1422C9.066 12.1433 10.6049 10.5201 12.4995 10.5201H12.5001ZM12.5001 11.0176C10.8633 11.0176 9.53822 12.4156 9.53822 14.1422C9.53822 15.8689 10.8634 17.2661 12.5001 17.2661C14.1368 17.2661 15.462 15.8688 15.462 14.1422C15.462 12.415 14.1368 11.0176 12.5001 11.0176ZM11.9542 12.0134H13.0466C13.1768 12.0134 13.2828 12.1245 13.2828 12.2625L13.2822 13.3171H14.2814C14.4121 13.3171 14.5175 13.4283 14.5175 13.5662V14.7181C14.5175 14.856 14.4121 14.9672 14.2814 14.9672H13.2822V16.0219C13.2822 16.1592 13.1762 16.271 13.0461 16.271H11.9536C11.8234 16.271 11.7175 16.1592 11.7175 16.0219V14.9672H10.7183C10.5881 14.9672 10.4821 14.856 10.4821 14.7181V13.5662C10.4821 13.4289 10.5875 13.3171 10.7183 13.3171H11.718V12.2625C11.718 12.1252 11.824 12.014 11.9536 12.0134H11.9542ZM12.8105 12.5115H12.1897V13.5595C12.1897 13.7005 12.0889 13.8147 11.9536 13.8147H10.9544V14.4696H11.9478C12.0814 14.4696 12.1897 14.5753 12.1897 14.7181V15.7728H12.8099V14.7248C12.8099 14.5838 12.9107 14.4696 13.0461 14.4696H14.0458V13.8147H13.0524C12.9188 13.8147 12.8099 13.7084 12.8099 13.5656L12.8105 12.5115ZM10.473 9.28369H14.5268V7.6354C14.5268 6.45982 13.614 5.4975 12.4996 5.4975C11.3852 5.4975 10.473 6.45923 10.473 7.6354V9.28369ZM17.0043 9.78187L7.99558 9.78126L7.47265 17.7575C7.46171 18.1804 7.71568 18.4921 8.13033 18.5024H16.8702C17.2733 18.4921 17.5388 18.1913 17.5273 17.7575L17.0049 9.78188" fill="#06990A"/>
<path d="M17.0043 9.78187L7.99558 9.78126L7.47265 17.7575C7.46171 18.1804 7.71568 18.4921 8.13033 18.5024H16.8702C17.2733 18.4921 17.5388 18.1913 17.5273 17.7575L17.0049 9.78188M10.0007 9.28372V7.63543C10.0007 6.18647 11.1254 5 12.4995 5C13.8748 5 14.9983 6.1853 14.9983 7.63605V9.28435H17.2236C17.3532 9.28435 17.4586 9.39492 17.4598 9.53161L17.9971 17.7224C18.0437 18.4186 17.5243 19 16.8695 19H8.13021C7.45986 19 6.9594 18.4168 7.0026 17.7224L7.54049 9.51636C7.54912 9.38453 7.65221 9.28428 7.77546 9.28428L10.0007 9.28372ZM12.5001 10.5201C14.3949 10.5201 15.9336 12.1435 15.9336 14.1422C15.9336 16.141 14.3943 17.7643 12.4995 17.7643C10.6047 17.7643 9.066 16.1409 9.066 14.1422C9.066 12.1433 10.6049 10.5201 12.4995 10.5201H12.5001ZM12.5001 11.0176C10.8633 11.0176 9.53822 12.4156 9.53822 14.1422C9.53822 15.8689 10.8634 17.2661 12.5001 17.2661C14.1368 17.2661 15.462 15.8688 15.462 14.1422C15.462 12.415 14.1368 11.0176 12.5001 11.0176ZM11.9542 12.0134H13.0466C13.1768 12.0134 13.2828 12.1245 13.2828 12.2625L13.2822 13.3171H14.2814C14.4121 13.3171 14.5175 13.4283 14.5175 13.5662V14.7181C14.5175 14.856 14.4121 14.9672 14.2814 14.9672H13.2822V16.0219C13.2822 16.1592 13.1762 16.271 13.0461 16.271H11.9536C11.8234 16.271 11.7175 16.1592 11.7175 16.0219V14.9672H10.7183C10.5881 14.9672 10.4821 14.856 10.4821 14.7181V13.5662C10.4821 13.4289 10.5875 13.3171 10.7183 13.3171H11.718V12.2625C11.718 12.1252 11.824 12.014 11.9536 12.0134H11.9542ZM12.8105 12.5115H12.1897V13.5595C12.1897 13.7005 12.0889 13.8147 11.9536 13.8147H10.9544V14.4696H11.9478C12.0814 14.4696 12.1897 14.5753 12.1897 14.7181V15.7728H12.8099V14.7248C12.8099 14.5838 12.9107 14.4696 13.0461 14.4696H14.0458V13.8147H13.0524C12.9188 13.8147 12.8099 13.7084 12.8099 13.5656L12.8105 12.5115ZM10.473 9.28369H14.5268V7.6354C14.5268 6.45982 13.614 5.4975 12.4996 5.4975C11.3852 5.4975 10.473 6.45923 10.473 7.6354V9.28369Z" stroke="#06990A" stroke-width="0.2"/>
</svg>
