<svg width="23" height="23" viewBox="0 0 23 23" fill="none" xmlns="http://www.w3.org/2000/svg">
<circle cx="11.0542" cy="11.0542" r="11.0542" fill="white"/>
<path d="M8.99934 5.43759C7.95668 5.43759 7.01201 5.59584 6.31201 5.85976C5.96198 5.99172 5.67186 6.14847 5.45897 6.33797C5.24608 6.52748 5.10547 6.76212 5.10547 7.02207C5.10547 7.02852 5.10596 7.03447 5.10596 7.04092C5.10596 7.04241 5.10547 7.0439 5.10547 7.04489V8.8109C5.10547 8.81735 5.10596 8.82331 5.10596 8.82976C5.10596 8.83174 5.10547 8.83323 5.10547 8.83472V10.6007C5.10547 10.6077 5.10547 10.6141 5.10596 10.6211V10.6216C5.10547 10.6226 5.10547 10.6236 5.10547 10.624V12.3911C5.10547 12.3975 5.10547 12.4045 5.10596 12.4109V12.4114C5.10547 12.4119 5.10547 12.4129 5.10547 12.4139V14.1809C5.10547 14.426 5.23172 14.6487 5.4248 14.8318C5.61738 15.0148 5.87978 15.1681 6.19912 15.2991C6.83779 15.561 7.7047 15.7287 8.68303 15.76C8.73254 15.7619 8.78056 15.7436 8.8167 15.7099C8.85285 15.6761 8.87364 15.629 8.87562 15.5794C8.87711 15.5298 8.85928 15.4817 8.82512 15.4454C8.79146 15.4092 8.74492 15.3879 8.69541 15.3864C7.75326 15.3566 6.92101 15.191 6.34129 14.9533C6.05116 14.8343 5.82491 14.6974 5.68084 14.5604C5.53677 14.4235 5.47835 14.2995 5.47835 14.1809V13.0905C5.6655 13.2523 5.91006 13.3907 6.20068 13.5097C6.83935 13.7717 7.70474 13.9393 8.68307 13.9701V13.9706C8.73258 13.9721 8.7806 13.9542 8.81674 13.92C8.85289 13.8863 8.87368 13.8396 8.87566 13.79C8.87714 13.7404 8.85932 13.6923 8.82516 13.6561C8.79149 13.6199 8.74495 13.5985 8.69545 13.597C7.75329 13.5673 6.92105 13.4016 6.34133 13.164C6.0512 13.0449 5.82495 12.908 5.68088 12.7711C5.53681 12.6341 5.47838 12.5101 5.47838 12.3916V11.3017C5.66504 11.4634 5.90861 11.6018 6.19924 11.7209C6.83791 11.9828 7.70481 12.1505 8.68314 12.1812V12.1807C8.73265 12.1827 8.78068 12.1644 8.81682 12.1306C8.85296 12.0969 8.87375 12.0498 8.87573 12.0002C8.87722 11.951 8.8594 11.9029 8.82523 11.8667C8.79157 11.8305 8.74503 11.8092 8.69553 11.8072C7.75337 11.7774 6.92112 11.6117 6.3414 11.3741C6.05128 11.255 5.82503 11.1181 5.68096 10.9812C5.53689 10.8443 5.47846 10.7188 5.47846 10.6007V9.51131C5.68937 9.69337 5.97256 9.84666 6.31219 9.97465C7.01224 10.2386 7.95693 10.3953 8.99952 10.3953C10.0422 10.3953 10.9863 10.2386 11.6863 9.97465C12.027 9.84616 12.3092 9.69286 12.5206 9.51032V9.73603L12.5201 9.73653C12.5201 9.83971 12.6027 9.92356 12.7057 9.92405C12.7557 9.92455 12.8033 9.9047 12.8384 9.86948C12.8736 9.83426 12.8934 9.78664 12.8929 9.73653V7.02197C12.8929 6.76202 12.7508 6.52788 12.5379 6.33788C12.325 6.14838 12.0359 5.99161 11.6858 5.85966C10.9858 5.59575 10.0416 5.4375 8.99901 5.4375L8.99934 5.43759ZM8.99934 5.81164C10.0039 5.81164 10.9124 5.96692 11.554 6.2085C11.8748 6.32954 12.1278 6.4734 12.2902 6.61827C12.4526 6.76313 12.5204 6.89607 12.5204 7.02208C12.5204 7.14809 12.4526 7.28153 12.2902 7.42639C12.1278 7.57124 11.8748 7.71461 11.554 7.83566C10.9123 8.07724 10.0039 8.23302 8.99934 8.23302C7.9948 8.23302 7.08578 8.07774 6.4442 7.83566C6.12339 7.71462 5.8704 7.57125 5.708 7.42639C5.54561 7.28152 5.47828 7.14809 5.47828 7.02208C5.47828 6.89608 5.54562 6.76312 5.708 6.61827C5.87039 6.47342 6.12338 6.32955 6.4442 6.2085C7.08584 5.96692 7.99478 5.81164 8.99934 5.81164ZM12.5204 7.72103V8.81141C12.5204 8.93742 12.4526 9.07186 12.2902 9.21671C12.1278 9.36156 11.8748 9.50394 11.554 9.62498C10.9123 9.86656 10.0039 10.0218 8.99934 10.0218C7.9948 10.0218 7.08578 9.86656 6.4442 9.62498C6.12339 9.50394 5.8704 9.36156 5.708 9.21671C5.54561 9.07186 5.47828 8.93742 5.47828 8.81141V7.72202C5.6892 7.90408 5.97238 8.05588 6.31201 8.18387C7.01206 8.44778 7.95675 8.60603 8.99934 8.60603C10.042 8.60603 10.9862 8.44778 11.6862 8.18387C12.0268 8.05539 12.309 7.90359 12.5204 7.72103ZM13.1422 10.2878C12.0995 10.2878 11.1554 10.4445 10.4554 10.7084C10.1054 10.8404 9.81474 10.9987 9.60185 11.1881C9.38896 11.3776 9.24835 11.6123 9.24835 11.8722C9.24835 11.8787 9.24885 11.8846 9.24885 11.8911C9.24835 11.8926 9.24835 11.8941 9.24835 11.8956V13.6616C9.24835 13.668 9.24885 13.6745 9.24885 13.6809V13.6804C9.24835 13.6819 9.24835 13.6834 9.24835 13.6849V15.4509C9.24835 15.7108 9.38896 15.945 9.60185 16.135C9.81474 16.3245 10.1054 16.4827 10.4554 16.6147C11.1554 16.8786 12.0996 17.0354 13.1422 17.0354C14.1849 17.0354 15.128 16.8786 15.828 16.6147C16.178 16.4827 16.4682 16.3245 16.6811 16.135C16.894 15.9455 17.0346 15.7108 17.0346 15.4509V11.8721L17.0341 11.8716C17.0341 11.8657 17.0341 11.8592 17.0336 11.8533C17.0271 11.6008 16.8885 11.3731 16.6806 11.188C16.4677 10.9985 16.1776 10.8403 15.8275 10.7083C15.1275 10.4444 14.1843 10.2877 13.1417 10.2877L13.1422 10.2878ZM13.1422 10.6613C14.1468 10.6613 15.0558 10.8166 15.6974 11.0587C16.0182 11.1797 16.2712 11.3216 16.4336 11.4664C16.5959 11.6113 16.6618 11.7462 16.6618 11.8722C16.6618 11.9982 16.5959 12.1312 16.4336 12.276C16.2712 12.4209 16.0182 12.5633 15.6974 12.6843C15.0557 12.9259 14.1468 13.0827 13.1422 13.0827C12.1377 13.0827 11.2278 12.9264 10.5861 12.6843C10.2653 12.5633 10.0123 12.4209 9.84986 12.276C9.68747 12.1312 9.62113 11.9982 9.62113 11.8722C9.62113 11.7462 9.68747 11.6113 9.84986 11.4664C10.0123 11.3216 10.2652 11.1797 10.5861 11.0587C11.2277 10.8171 12.1376 10.6613 13.1422 10.6613ZM9.62117 12.5712C9.83208 12.7533 10.1153 12.9066 10.4554 13.0345C11.1554 13.2985 12.0996 13.4562 13.1422 13.4562C14.1849 13.4562 15.128 13.2985 15.828 13.0345C16.1677 12.9066 16.4509 12.7533 16.6618 12.5712V13.6616C16.6618 13.7876 16.5959 13.921 16.4335 14.0659C16.2711 14.2108 16.0181 14.3541 15.6973 14.4752C15.0557 14.7168 14.1467 14.8725 13.1422 14.8725C12.1376 14.8725 11.2277 14.7173 10.586 14.4752C10.2652 14.3541 10.0122 14.2108 9.84982 14.0659C9.68743 13.921 9.62109 13.7876 9.62109 13.6616L9.62117 12.5712ZM9.62117 14.3621C9.83208 14.5442 10.1153 14.696 10.4554 14.824C11.1554 15.0879 12.0996 15.2461 13.1422 15.2461C14.1849 15.2461 15.128 15.0879 15.828 14.824C16.1677 14.696 16.4509 14.5442 16.6618 14.3621V15.4515C16.6618 15.5775 16.5959 15.711 16.4335 15.8558C16.2711 16.0007 16.0181 16.144 15.6973 16.2651C15.0557 16.5067 14.1467 16.6624 13.1422 16.6624C12.1376 16.6624 11.2277 16.5072 10.586 16.2651C10.2652 16.144 10.0122 16.0007 9.84982 15.8558C9.68743 15.711 9.62109 15.5775 9.62109 15.4515L9.62117 14.3621Z" fill="#059909" stroke="#059909" stroke-width="0.3"/>
</svg>
