<svg width="50" height="50" viewBox="0 0 50 50" fill="none" xmlns="http://www.w3.org/2000/svg">
<circle cx="24.9026" cy="24.9026" r="24.9026" fill="#E2F9E3"/>
<path d="M24.9015 26.1995C21.6337 26.1995 18.9749 22.0751 18.9749 17.0056C18.9749 16.8835 19.023 16.7667 19.1091 16.6806C19.1948 16.5944 19.3107 16.5462 19.4316 16.5462H19.4343C19.9936 16.5462 20.462 16.125 20.524 15.5658L20.5329 15.4853C20.6386 14.5381 21.3344 13.7584 22.2649 13.5449C24.0254 13.1416 25.79 13.1438 27.5086 13.5521C28.4016 13.764 29.072 14.4818 29.2169 15.3805L29.2553 15.6194C29.3418 16.1564 29.7968 16.5462 30.3379 16.5462C30.5903 16.5462 30.8325 16.7519 30.8325 17.0056C30.8325 22.0751 28.1719 26.1995 24.9015 26.1995ZM19.8942 17.4118C20.0231 21.7869 22.2198 25.2808 24.9015 25.2808C27.5849 25.2808 29.783 21.7885 29.9128 17.4151C29.1041 17.237 28.4872 16.5978 28.3534 15.7661L28.315 15.5274C28.2294 14.997 27.8306 14.5724 27.299 14.4461C25.7164 14.0704 24.0901 14.0684 22.4683 14.4407C21.9161 14.5674 21.503 15.0282 21.441 15.5873L21.4321 15.6676C21.3358 16.5348 20.7064 17.2209 19.8942 17.4118Z" fill="#109615"/>
<path d="M19.4315 17.4669C19.2209 17.4669 19.0314 17.3196 18.9854 17.104L18.5804 15.2094C18.5768 15.1941 18.5746 15.1784 18.5728 15.1627C18.4015 13.5832 18.757 12.2574 19.6286 11.2225C21.2576 9.28839 24.1876 9.02821 24.7586 8.99569C26.3309 8.89049 27.5829 9.37071 28.2975 10.3504L28.6445 10.8257C28.6673 10.8574 28.7039 10.876 28.7427 10.876C29.5446 10.876 30.2971 11.2328 30.8074 11.8553C31.3172 12.4777 31.522 13.2885 31.369 14.0803L30.7864 17.0953C30.7383 17.3442 30.4978 17.5066 30.2512 17.4584C30.0036 17.4102 29.8417 17.1691 29.8899 16.9199L30.4724 13.9049C30.5732 13.3836 30.4381 12.8496 30.1022 12.4398C29.7663 12.0298 29.2708 11.7947 28.7427 11.7947C28.4139 11.7947 28.1017 11.6357 27.9077 11.369L27.5606 10.8939C26.8554 9.92607 25.5374 9.86529 24.8152 9.91261C24.305 9.94177 21.7134 10.169 20.3258 11.8162C19.6264 12.6466 19.3414 13.731 19.4783 15.04L19.8784 16.9111C19.9315 17.159 19.7745 17.4035 19.5278 17.4566C19.4957 17.4636 19.4631 17.4669 19.4315 17.4669Z" fill="#109615"/>
<path d="M37.9177 39.2991H11.8874C11.635 39.2991 11.4307 39.0934 11.4307 38.8397V32.9183C11.4307 31.4085 12.3901 30.0807 13.8179 29.6141L19.3145 27.5291C20.385 27.1789 21.0907 26.2024 21.0907 25.0916V23.9017C21.0907 23.6481 21.295 23.4424 21.5474 23.4424C21.7999 23.4424 22.0042 23.6481 22.0042 23.9017V25.0916C22.0042 26.6018 21.0447 27.9297 19.6165 28.3958L14.1199 30.4808C13.0498 30.831 12.3442 31.8078 12.3442 32.9183V38.3804H37.461V32.9183C37.461 31.8078 36.7553 30.8312 35.7049 30.488L30.1681 28.3886C28.76 27.9297 27.8005 26.6018 27.8005 25.0916V23.9017C27.8005 23.6481 28.0048 23.4424 28.2573 23.4424C28.5097 23.4424 28.714 23.6481 28.714 23.9017V25.0916C28.714 26.2024 29.4197 27.1789 30.4701 27.5219L36.0069 29.6213C37.415 30.0807 38.3745 31.4085 38.3745 32.9183V38.8397C38.3745 39.0934 38.1702 39.2991 37.9177 39.2991Z" fill="#109615"/>
<path d="M24.9733 29.0749C23.4362 29.0749 21.9004 28.5335 20.6756 27.451C20.486 27.2837 20.4673 26.9934 20.6341 26.8028C20.8005 26.6119 21.0886 26.5933 21.2787 26.7611C23.3849 28.6225 26.563 28.6234 28.671 26.7633C28.8588 26.5976 29.146 26.6126 29.3133 26.8005C29.4805 26.9881 29.4681 27.2745 29.2834 27.4447L29.2807 27.4472C28.051 28.5326 26.5112 29.0749 24.9733 29.0749Z" fill="#109615"/>
<path d="M24.9717 37.4612C24.7906 37.4612 24.6264 37.3535 24.5537 37.1868L20.302 27.4669C20.2003 27.2345 20.3052 26.9636 20.5362 26.8613C20.7677 26.7593 21.0367 26.8651 21.1379 27.0968L24.9703 35.8581L28.78 27.0977C28.8808 26.8651 29.1507 26.759 29.3813 26.8611C29.6123 26.9627 29.7181 27.2334 29.6168 27.466L25.3901 37.1859C25.3174 37.3528 25.1532 37.4609 24.9717 37.4612Z" fill="#109615"/>
<path d="M30.2817 32.5525C30.2273 32.5525 30.1729 32.5429 30.1203 32.5229L27.4271 31.4992C27.1911 31.4095 27.072 31.1444 27.1612 30.9071C27.2504 30.6698 27.5145 30.5505 27.75 30.6397L29.6488 31.3615L28.7527 27.3841C28.6969 27.1367 28.8513 26.8906 29.0975 26.8348C29.3433 26.7785 29.5881 26.9339 29.6439 27.1813L30.7273 31.9918C30.7644 32.1567 30.7086 32.3287 30.5815 32.4397C30.4972 32.5137 30.3901 32.5525 30.2817 32.5525Z" fill="#109615"/>
<path d="M19.638 32.5527C19.5296 32.5527 19.423 32.5139 19.3387 32.4403C19.2115 32.3293 19.1553 32.157 19.1924 31.9919L20.2758 27.1814C20.3316 26.934 20.5764 26.7782 20.8222 26.8349C21.0684 26.8908 21.2228 27.1368 21.167 27.3842L20.2718 31.359L22.2058 30.6183C22.44 30.5289 22.705 30.6473 22.7951 30.8841C22.8847 31.1212 22.7665 31.3866 22.5306 31.477L19.8003 32.5226C19.7477 32.5428 19.6928 32.5527 19.638 32.5527Z" fill="#109615"/>
<path d="M17.742 37.0308C17.4895 37.0308 17.2852 36.8251 17.2852 36.5714C17.2852 36.3177 17.4895 36.1121 17.742 36.1121C17.9668 36.1121 18.0788 35.9607 18.1167 35.8956C18.1546 35.8306 18.2304 35.6579 18.1202 35.4607L17.0881 33.6185C16.8776 33.2435 16.2799 33.2435 16.0693 33.6185L15.0372 35.4607C14.927 35.6579 15.0028 35.8306 15.0407 35.8956C15.0787 35.9607 15.1911 36.1121 15.4159 36.1121C15.6683 36.1121 15.8726 36.3177 15.8726 36.5714C15.8726 36.8251 15.6683 37.0308 15.4159 37.0308C14.9315 37.0308 14.4966 36.7798 14.2521 36.3592C14.0077 35.9387 14.0037 35.4342 14.2414 35.0099L15.2736 33.1677C15.5425 32.6873 16.0305 32.4004 16.5787 32.4004C17.1269 32.4004 17.6149 32.6873 17.8838 33.1677L18.916 35.0099C19.1537 35.4342 19.1497 35.9387 18.9053 36.3592C18.6608 36.7798 18.2259 37.0308 17.742 37.0308Z" fill="#109615"/>
<path d="M16.5771 33.3257C16.3247 33.3257 16.1204 33.1201 16.1204 32.8664V29.2269C16.1204 28.9733 16.3247 28.7676 16.5771 28.7676C16.8296 28.7676 17.0339 28.9733 17.0339 29.2269V32.8664C17.0339 33.1201 16.8296 33.3257 16.5771 33.3257Z" fill="#109615"/>
<path d="M33.4371 37.4009C32.1676 37.4009 31.135 36.3624 31.135 35.0857C31.135 33.809 32.1676 32.7705 33.4371 32.7705C34.7065 32.7705 35.7391 33.809 35.7391 35.0857C35.7391 36.3624 34.7065 37.4009 33.4371 37.4009ZM33.4371 33.6892C32.6712 33.6892 32.0485 34.3157 32.0485 35.0857C32.0485 35.8557 32.6712 36.4822 33.4371 36.4822C34.2029 36.4822 34.8256 35.8557 34.8256 35.0857C34.8256 34.3157 34.2029 33.6892 33.4371 33.6892Z" fill="#109615"/>
<path d="M33.4377 35.5465C33.3191 35.5465 33.2 35.4961 33.1134 35.4088C33.0309 35.326 32.981 35.2067 32.981 35.0827C32.981 34.9631 33.0309 34.8483 33.1134 34.761C33.2825 34.591 33.5929 34.5865 33.762 34.761C33.8441 34.8438 33.8945 34.9631 33.8945 35.0827C33.8945 35.2067 33.8441 35.326 33.762 35.4088C33.675 35.4961 33.5564 35.5465 33.4377 35.5465Z" fill="#109615"/>
<path d="M33.4377 33.6931C33.1852 33.6931 32.981 33.4875 32.981 33.2338V29.2269C32.981 28.9733 33.1852 28.7676 33.4377 28.7676C33.6902 28.7676 33.8945 28.9733 33.8945 29.2269V33.2338C33.8945 33.4875 33.6902 33.6931 33.4377 33.6931Z" fill="#109615"/>
</svg>
