<svg width="68" height="68" viewBox="0 0 68 68" fill="none" xmlns="http://www.w3.org/2000/svg">
<circle cx="33.5742" cy="33.5742" r="33.5742" fill="#F4FBC4"/>
<path d="M51.5569 24.382H43.1315V22.2976C43.1315 19.7157 41.0785 17.6123 38.5481 17.6123H16.6921C14.1617 17.6123 12.1086 19.7157 12.1086 22.2976V36.8745C12.1086 39.4563 14.1617 41.555 16.6921 41.555H17.7348L20.7055 46.8182C20.8306 47.0362 21.0577 47.1688 21.3034 47.1688C21.549 47.1688 21.7761 47.0362 21.9012 46.8182L24.8719 41.555H25.1175V43.6395C25.1175 46.2213 27.1706 48.3247 29.701 48.3247H43.3818L46.3525 53.5879C46.4776 53.8059 46.7047 53.9385 46.9503 53.9385C47.1959 53.9385 47.423 53.8059 47.5482 53.5879L50.5188 48.3247H51.5616C54.0873 48.3247 56.1404 46.2261 56.1404 43.6395V29.0673C56.1358 26.4807 54.0827 24.382 51.5569 24.382ZM24.4687 40.148C24.2231 40.148 23.996 40.2807 23.8708 40.4986L21.2941 45.0559L18.7173 40.4986C18.5922 40.2807 18.3651 40.148 18.1195 40.148H16.6828C14.9171 40.148 13.4758 38.6794 13.4758 36.8697V22.2976C13.4758 20.4926 14.9125 19.0193 16.6828 19.0193H38.5435C40.3092 19.0193 41.7505 20.4879 41.7505 22.2976V25.0879V36.8745C41.7505 38.6794 40.3138 40.1527 38.5435 40.1527H25.7988H24.4687V40.148ZM54.7593 43.6395C54.7593 45.4444 53.3227 46.9177 51.5523 46.9177H50.1156C49.87 46.9177 49.6429 47.0504 49.5178 47.2683L46.9411 51.8256L44.3643 47.2683C44.2392 47.0504 44.0121 46.9177 43.7665 46.9177H29.6917C27.926 46.9177 26.4847 45.4491 26.4847 43.6395V41.555H38.5481C41.0739 41.555 43.1315 39.4563 43.1315 36.8745V25.789H51.5523C53.318 25.789 54.7593 27.2576 54.7593 29.0673V43.6395ZM16.7709 24.6994C16.7709 24.311 17.0768 23.9983 17.4568 23.9983H37.7834C38.1634 23.9983 38.4693 24.311 38.4693 24.6994C38.4693 25.0879 38.1634 25.4006 37.7834 25.4006H17.4568C17.0768 25.4006 16.7709 25.0879 16.7709 24.6994ZM16.7709 29.5837C16.7709 29.1952 17.0768 28.8825 17.4568 28.8825H37.7834C38.1634 28.8825 38.4693 29.1952 38.4693 29.5837C38.4693 29.9721 38.1634 30.2848 37.7834 30.2848H17.4568C17.0768 30.2895 16.7709 29.9721 16.7709 29.5837ZM37.7834 35.1738H17.4568C17.0768 35.1738 16.7709 34.8611 16.7709 34.4726C16.7709 34.0842 17.0768 33.7715 17.4568 33.7715H37.7834C38.1634 33.7715 38.4693 34.0842 38.4693 34.4726C38.4693 34.8611 38.1634 35.1738 37.7834 35.1738Z" fill="#059909"/>
</svg>
