<svg width="48" height="47" viewBox="0 0 48 47" fill="none" xmlns="http://www.w3.org/2000/svg">
<path fill-rule="evenodd" clip-rule="evenodd" d="M36.3585 30.2528C36.3261 30.3491 36.2233 30.4022 36.1271 30.3702C32.3599 29.1439 29.009 29.0863 25.6577 30.0795C22.2968 31.0761 18.9313 33.1289 15.1491 36.1173C15.0699 36.1811 14.9538 36.1671 14.8915 36.0867C14.828 36.0076 14.8423 35.8914 14.9229 35.8288C18.7403 32.8123 22.1457 30.737 25.556 29.7259C28.9785 28.7113 32.3998 28.7679 36.243 30.0203C36.3391 30.0524 36.3919 30.1552 36.3596 30.2514L36.3585 30.2528ZM23.6096 10.4549C23.6137 10.3535 23.5345 10.2682 23.4321 10.2657C23.3307 10.2619 23.2452 10.3413 23.2425 10.4438C23.1137 14.2338 22.3159 17.7259 20.8037 21.3844C19.287 25.0512 17.0473 28.8895 14.0368 33.3669C13.9795 33.4514 14.0017 33.5657 14.0847 33.6216C14.169 33.6787 14.2833 33.6562 14.3394 33.573C17.3624 29.0781 19.6103 25.2192 21.14 21.5258C22.6714 17.8249 23.4772 14.293 23.6072 10.4576L23.6096 10.4549ZM16.6878 21.8379C17.0335 18.2564 16.5245 14.9475 14.9713 12.0752C14.9233 11.9859 14.812 11.9526 14.7214 12.0022C14.632 12.0504 14.5985 12.1619 14.6477 12.2523C16.1637 15.0584 16.6614 18.295 16.3227 21.8053C15.9574 25.5893 14.6186 29.6903 12.538 33.9049C12.4938 33.9958 12.5295 34.1052 12.6206 34.1516C12.7114 34.1955 12.8219 34.1581 12.8674 34.0682C14.9687 29.815 16.319 25.6729 16.6892 21.8413L16.6878 21.8379ZM19.5793 16.5313C19.3515 18.6767 18.8665 20.4933 18.3767 22.2106C18.3483 22.3078 18.4061 22.4101 18.5018 22.4372C18.5989 22.4654 18.7013 22.4072 18.7286 22.3114C19.2223 20.5811 19.7113 18.7516 19.9422 16.5692C20.1734 14.3895 20.146 11.8684 19.6036 8.76451C19.5863 8.66371 19.4911 8.59746 19.3917 8.6162C19.2909 8.6338 19.2244 8.72924 19.2428 8.82868C19.7796 11.8978 19.8067 14.3861 19.5791 16.5318L19.5793 16.5313ZM34.2369 24.9277C32.832 25.1445 31.5876 25.4521 30.4513 25.8134C30.3554 25.8445 30.3009 25.9477 30.3317 26.0436C30.3625 26.1394 30.4655 26.1936 30.5614 26.1626C31.6793 25.8066 32.9063 25.503 34.29 25.2893C35.6749 25.0768 37.219 24.9541 38.9731 24.9571C39.0754 24.9571 39.1582 24.8754 39.1573 24.7744C39.1575 24.6721 39.0761 24.5895 38.9752 24.5907C37.2033 24.5867 35.6405 24.7123 34.2355 24.9265L34.2369 24.9277ZM22.0741 6.77016L22.9595 7.63039L22.4139 8.72731C22.383 8.78051 22.3798 8.84773 22.41 8.90574C22.4579 8.99504 22.5681 9.02967 22.6575 8.98149L23.7516 8.40275L24.6335 9.26707C24.6747 9.30643 24.732 9.32672 24.7917 9.31648C24.8914 9.30025 24.9579 9.2048 24.9406 9.104L24.7309 7.88576L25.817 7.31654C25.873 7.29147 25.9141 7.23991 25.9239 7.17591C25.9383 7.07615 25.8685 6.98243 25.7688 6.96835L24.5457 6.79292L24.3411 5.57424C24.3326 5.51814 24.2967 5.46695 24.2416 5.44143C24.1508 5.39753 24.0414 5.43355 23.9948 5.52474L23.4466 6.63577L22.2372 6.45789C22.1767 6.4442 22.1126 6.4624 22.066 6.50939C21.9951 6.58248 21.9973 6.69848 22.0701 6.7692L22.0741 6.77016ZM25.9074 20.1229C25.724 19.9683 25.4937 19.9024 25.2719 19.9229C25.0488 19.9423 24.834 20.0456 24.6789 20.2296C24.5239 20.4136 24.4574 20.6441 24.4773 20.866C24.496 21.0891 24.5998 21.3024 24.7833 21.457C24.9667 21.6116 25.197 21.6774 25.4176 21.6583C25.6408 21.6389 25.8542 21.5345 26.0092 21.3505C26.1643 21.1666 26.2308 20.936 26.2122 20.7153C26.1935 20.4921 26.0909 20.2775 25.9074 20.1229ZM29.9214 10.6796C30.1565 10.8777 30.2894 11.1528 30.3135 11.4387C30.3375 11.7246 30.2534 12.0173 30.0536 12.2544C29.9882 12.3321 29.9979 12.4474 30.0753 12.5127C30.1528 12.578 30.2681 12.5679 30.3336 12.4903C30.5322 12.2545 30.8076 12.1207 31.0934 12.0959C31.3792 12.0711 31.6716 12.1543 31.908 12.3535C31.9855 12.4188 32.1008 12.4088 32.1662 12.3311C32.2317 12.2534 32.222 12.1381 32.1446 12.0728C31.9095 11.8747 31.7765 11.5996 31.7525 11.3137C31.7285 11.0278 31.8125 10.7351 32.0123 10.498C32.0778 10.4203 32.0681 10.305 31.9906 10.2397C31.9132 10.1744 31.7978 10.1845 31.7324 10.2621C31.5337 10.4979 31.2583 10.6317 30.9725 10.6565C30.6867 10.6813 30.3944 10.5981 30.1579 10.3989C30.0805 10.3336 29.9652 10.3436 29.8997 10.4213C29.8343 10.499 29.8439 10.6143 29.9214 10.6796ZM25.6621 13.0679C25.6757 13.2309 25.8171 13.35 25.98 13.3358L26.3486 13.3038L26.3795 13.6724C26.3932 13.8354 26.5345 13.9545 26.6975 13.9403C26.8604 13.9262 26.9799 13.7845 26.9662 13.6215L26.9352 13.2528L27.3038 13.2208C27.4667 13.2067 27.5861 13.065 27.5724 12.902C27.5587 12.739 27.4174 12.6199 27.2545 12.634L26.8859 12.6661L26.855 12.2974C26.8413 12.1344 26.7 12.0153 26.537 12.0295C26.3741 12.0437 26.2546 12.1854 26.2683 12.3484L26.2993 12.717L25.9307 12.749C25.7678 12.7632 25.6484 12.9049 25.6621 13.0679ZM37.4441 20.0433L38.4455 20.7659L38.0607 21.9423C38.0284 22.0386 38.0825 22.1425 38.1773 22.1734C38.2396 22.1933 38.3053 22.1787 38.3525 22.1393L39.341 21.4156L40.3389 22.1423C40.421 22.2021 40.5357 22.1846 40.5957 22.1023C40.6341 22.0485 40.6411 21.9822 40.6174 21.9249L40.237 20.7631L41.239 20.0345C41.3211 19.9756 41.3392 19.8603 41.2792 19.7771C41.2436 19.7285 41.187 19.7018 41.1315 19.7016L39.8957 19.7066L39.5154 18.5309C39.4846 18.4351 39.3805 18.3822 39.2846 18.4133C39.2232 18.4338 39.1793 18.4831 39.1641 18.5425L38.7873 19.7094L37.5512 19.7094C37.4489 19.7094 37.3686 19.7909 37.367 19.8921C37.367 19.9527 37.397 20.0082 37.4425 20.0396L37.4441 20.0433ZM29.665 17.1889L28.5574 17.8774C28.5093 17.9068 28.4746 17.9591 28.4721 18.02C28.4641 18.1204 28.541 18.2085 28.6414 18.2162L29.9393 18.3055L30.244 19.5572C30.254 19.617 30.294 19.6716 30.3555 19.6978C30.4496 19.7352 30.5569 19.6905 30.5945 19.5963L31.0852 18.3879L32.3836 18.4823C32.4407 18.4861 32.4983 18.4647 32.5373 18.4184C32.6028 18.3407 32.5931 18.2254 32.5156 18.1601L31.5198 17.3233L32.0133 16.1173C32.0353 16.0636 32.0314 16.002 31.9992 15.9492C31.9453 15.8643 31.8332 15.8374 31.7456 15.8917L30.6407 16.5825L29.658 15.7522C29.6141 15.7106 29.5505 15.6896 29.4861 15.7053C29.3885 15.7302 29.3274 15.8302 29.3521 15.9278L29.6652 17.1914L29.665 17.1889ZM17.3918 8.7696C17.2083 8.61503 16.978 8.54915 16.7574 8.56829C16.5343 8.58767 16.3208 8.69209 16.1658 8.87607C16.0108 9.06003 15.9443 9.29061 15.9628 9.51131C15.9815 9.73449 16.0853 9.94776 16.2688 10.1023C16.4522 10.2569 16.6825 10.3228 16.9031 10.3037C17.1262 10.2843 17.3411 10.181 17.4961 9.99702C17.6511 9.81306 17.7176 9.58248 17.6977 9.36064C17.679 9.13745 17.5752 8.92418 17.3918 8.7696ZM35.6719 17.1498C35.8554 17.3044 36.0857 17.3703 36.3063 17.3511C36.5294 17.3318 36.7442 17.2285 36.8993 17.0445C37.0543 16.8606 37.1208 16.63 37.1009 16.4081C37.0822 16.1849 36.9784 15.9717 36.7949 15.8171C36.6115 15.6625 36.3812 15.5966 36.1606 15.6158C35.9374 15.6352 35.724 15.7396 35.569 15.9236C35.4139 16.1075 35.3474 16.3381 35.366 16.5588C35.3847 16.782 35.4885 16.9953 35.6719 17.1498ZM37.0837 26.6396C37.07 26.4766 36.9287 26.3576 36.7657 26.3717C36.6027 26.3859 36.4833 26.5276 36.497 26.6906L36.528 27.0592L36.1594 27.0912C35.9965 27.1054 35.8771 27.2471 35.8907 27.4101C35.9044 27.5731 36.0458 27.6922 36.2087 27.678L36.5773 27.646L36.6082 28.0146C36.6219 28.1776 36.7632 28.2967 36.9262 28.2826C37.0891 28.2684 37.2086 28.1267 37.1949 27.9637L37.1639 27.5951L37.5324 27.5631C37.6954 27.5489 37.8148 27.4072 37.8011 27.2442C37.7874 27.0812 37.6461 26.9621 37.4832 26.9763L37.1146 27.0083L37.0837 26.6396ZM17.9093 5.59638C18.1212 5.77499 18.2419 6.02344 18.2622 6.28057C18.2837 6.53636 18.2076 6.80314 18.0285 7.01572C17.963 7.0934 17.9727 7.20875 18.0502 7.27401C18.1276 7.33927 18.2429 7.32926 18.3084 7.25158C18.4875 7.039 18.7362 6.91762 18.9932 6.89657C19.249 6.87436 19.5154 6.94974 19.7274 7.12835C19.8048 7.19362 19.9202 7.1836 19.9856 7.10593C20.0511 7.02825 20.0414 6.9129 19.9639 6.84764C19.7519 6.66902 19.6313 6.42058 19.611 6.16344C19.5895 5.90766 19.6656 5.64088 19.8447 5.42829C19.9102 5.35062 19.9005 5.23527 19.823 5.17001C19.7456 5.10474 19.6303 5.11476 19.5648 5.19243C19.3857 5.40501 19.137 5.5264 18.8799 5.54744C18.6242 5.56965 18.3578 5.49428 18.1458 5.31566C18.0684 5.2504 17.953 5.26042 17.8876 5.33809C17.8221 5.41576 17.8318 5.53111 17.9093 5.59638ZM40.3097 31.8698C39.9822 31.5938 39.7999 31.2118 39.7655 30.817C39.7322 30.4208 39.8496 30.014 40.1263 29.6856C40.1917 29.6079 40.182 29.4926 40.1046 29.4273C40.0271 29.362 39.9118 29.3721 39.8464 29.4497C39.5696 29.7782 39.1873 29.9617 38.7926 29.9972C38.3965 30.0316 37.9902 29.9153 37.6627 29.6394C37.5853 29.5741 37.47 29.5841 37.4045 29.6618C37.3391 29.7395 37.3488 29.8548 37.4262 29.9201C37.7537 30.196 37.936 30.578 37.9704 30.9729C38.0037 31.3691 37.8864 31.7758 37.6096 32.1042C37.5442 32.1819 37.5539 32.2973 37.6313 32.3625C37.7088 32.4278 37.8241 32.4178 37.8896 32.3401C38.1663 32.0117 38.5486 31.8282 38.9433 31.7927C39.3395 31.7583 39.7457 31.8745 40.0732 32.1505C40.1506 32.2157 40.2659 32.2057 40.3314 32.128C40.3968 32.0504 40.3872 31.935 40.3097 31.8698ZM14.6576 10.7487C14.723 10.671 14.7133 10.5557 14.6359 10.4904C14.4008 10.2923 14.2678 10.0172 14.2438 9.7313C14.2198 9.44542 14.3038 9.15269 14.5036 8.91557C14.5691 8.8379 14.5594 8.72255 14.4819 8.65728C14.4045 8.59202 14.2892 8.60204 14.2237 8.67971C14.0251 8.91546 13.7497 9.04926 13.4639 9.07408C13.1781 9.0989 12.8857 9.01567 12.6493 8.81644C12.5718 8.75117 12.4565 8.76119 12.391 8.83887C12.3256 8.91654 12.3353 9.03189 12.4127 9.09715C12.6478 9.29523 12.7808 9.5704 12.8048 9.85627C12.8288 10.1421 12.7448 10.4349 12.545 10.672C12.4795 10.7497 12.4892 10.865 12.5667 10.9303C12.6441 10.9955 12.7594 10.9855 12.8249 10.9079C13.0235 10.6721 13.2989 10.5383 13.5847 10.5135C13.8705 10.4887 14.1629 10.5719 14.3993 10.7711C14.4768 10.8364 14.5921 10.8264 14.6576 10.7487ZM41.9586 25.2388C42.1137 25.0548 42.1801 24.8242 42.1616 24.6035C42.1429 24.3804 42.0391 24.1671 41.8557 24.0125C41.6722 23.8579 41.4419 23.7921 41.2213 23.8112C40.9982 23.8306 40.7847 23.935 40.6297 24.119C40.4747 24.303 40.4082 24.5335 40.4267 24.7542C40.4454 24.9774 40.5492 25.1907 40.7327 25.3453C40.9161 25.4998 41.1464 25.5657 41.367 25.5466C41.5902 25.5272 41.8036 25.4228 41.9586 25.2388ZM32.6799 32.7043C32.6662 32.5413 32.5249 32.4222 32.362 32.4363L31.9934 32.4683L31.9625 32.0997C31.9488 31.9367 31.8075 31.8176 31.6445 31.8318C31.4815 31.8459 31.3621 31.9877 31.3758 32.1507L31.4068 32.5193L31.0382 32.5513C30.8753 32.5654 30.7558 32.7072 30.7695 32.8702C30.7832 33.0332 30.9245 33.1522 31.0875 33.1381L31.456 33.1061L31.487 33.4747C31.5007 33.6377 31.642 33.7568 31.805 33.7426C31.9679 33.7285 32.0873 33.5868 32.0737 33.4238L32.0427 33.0551L32.4112 33.0231C32.5742 33.009 32.6936 32.8673 32.6799 32.7043ZM12.949 14.3425L13.3176 14.3105C13.4805 14.2964 13.6 14.1547 13.5863 13.9917C13.5726 13.8287 13.4313 13.7096 13.2683 13.7237L12.8998 13.7557L12.8688 13.3871C12.8551 13.2241 12.7138 13.105 12.5508 13.1192C12.3879 13.1333 12.2685 13.2751 12.2822 13.4381L12.3131 13.8067L11.9446 13.8387C11.7816 13.8528 11.6622 13.9946 11.6759 14.1576C11.6896 14.3206 11.8309 14.4396 11.9938 14.4255L12.3624 14.3935L12.3933 14.7621C12.407 14.9251 12.5484 15.0442 12.7113 15.03C12.8743 15.0159 12.9937 14.8742 12.98 14.7112L12.949 14.3425ZM35.6088 33.541C35.4253 33.3864 35.1951 33.3205 34.9744 33.3397C34.7513 33.3591 34.5378 33.4635 34.3828 33.6475C34.2278 33.8314 34.1613 34.062 34.1798 34.2827C34.1986 34.5059 34.3023 34.7192 34.4858 34.8737C34.6692 35.0283 34.8995 35.0942 35.1201 35.075C35.3433 35.0557 35.5567 34.9512 35.7118 34.7673C35.8668 34.5833 35.9333 34.3527 35.9147 34.132C35.896 33.9088 35.7922 33.6956 35.6088 33.541ZM14.2774 18.1905C14.094 18.036 13.8637 17.9701 13.6431 17.9892C13.4199 18.0086 13.2065 18.113 13.0514 18.297C12.8964 18.481 12.8299 18.7115 12.8484 18.9322C12.8672 19.1554 12.971 19.3687 13.1544 19.5233C13.3379 19.6779 13.5681 19.7437 13.7888 19.7246C14.0119 19.7052 14.2254 19.6008 14.3804 19.4168C14.5354 19.2328 14.6019 19.0023 14.5834 18.7816C14.5646 18.5584 14.4609 18.3451 14.2774 18.1905ZM23.1608 23.4272C23.1471 23.2642 23.0058 23.1451 22.8429 23.1593L22.4743 23.1913L22.4434 22.8227C22.4297 22.6597 22.2884 22.5406 22.1254 22.5548C21.9624 22.5689 21.843 22.7106 21.8567 22.8736L21.8877 23.2423L21.5191 23.2743C21.3562 23.2884 21.2367 23.4301 21.2504 23.5931C21.2641 23.7561 21.4054 23.8752 21.5684 23.8611L21.9369 23.8291L21.9679 24.1977C21.9816 24.3607 22.1229 24.4798 22.2859 24.4656C22.4488 24.4515 22.5682 24.3097 22.5545 24.1467L22.5236 23.7781L22.8921 23.7461C23.0551 23.7319 23.1745 23.5902 23.1608 23.4272ZM36.4465 21.5912C36.5457 21.57 36.6095 21.4723 36.5899 21.3742C36.5689 21.275 36.4714 21.2115 36.3734 21.2313C32.6167 22.011 29.2727 23.404 25.8838 25.5398C22.5022 27.6723 19.0815 30.5433 15.1644 34.2848C15.0908 34.3556 15.0891 34.4707 15.1597 34.5441C15.2303 34.6176 15.3453 34.6189 15.4189 34.5481C19.3208 30.8219 22.7248 27.9652 26.0802 25.8472C29.4282 23.7353 32.7345 22.3595 36.4488 21.5884L36.4465 21.5912Z" fill="#059909"/>
</svg>
