<svg width="31" height="28" viewBox="0 0 31 28" fill="none" xmlns="http://www.w3.org/2000/svg">
<g id="Group">
<path id="Vector" d="M4.48979 6.77795H11.3917C11.515 6.77795 11.6102 6.67844 11.6102 6.56019C11.6102 6.43725 11.5103 6.34242 11.3917 6.34242L4.48979 6.34125C4.36646 6.34125 4.27132 6.44077 4.27132 6.55902C4.27132 6.67727 4.36646 6.77795 4.48979 6.77795Z" fill="#8209CD" stroke="#8209CD" stroke-width="0.3"/>
<path id="Vector_2" d="M8.84507 7.91241H8.23898C8.11565 7.91241 8.02051 8.01193 8.02051 8.13018C8.02051 8.25312 8.12035 8.34795 8.23898 8.34795H8.84507C8.9684 8.34795 9.06354 8.24843 9.06354 8.13018C9.06354 8.0131 8.9684 7.91241 8.84507 7.91241Z" fill="#8209CD" stroke="#8209CD" stroke-width="0.3"/>
<path id="Vector_3" d="M4.48979 8.35391H6.85426C6.9776 8.35391 7.07274 8.25439 7.07274 8.13614C7.07274 8.01321 6.9729 7.91838 6.85426 7.91838L4.48979 7.91721C4.36646 7.91721 4.27132 8.01672 4.27132 8.13497C4.27132 8.25322 4.36646 8.35391 4.48979 8.35391Z" fill="#8209CD" stroke="#8209CD" stroke-width="0.3"/>
<path id="Vector_4" d="M28.1579 26.5553H27.6247C27.5013 26.5553 27.4062 26.6548 27.4062 26.773C27.4062 26.8913 27.506 26.9908 27.6247 26.9908H28.1579C28.2813 26.9908 28.3764 26.8913 28.3764 26.773C28.3764 26.6548 28.2813 26.5553 28.1579 26.5553Z" fill="#8209CD" stroke="#8209CD" stroke-width="0.3"/>
<path id="Vector_5" d="M1.40993 26.5553H1.21847C1.09514 26.5553 1 26.6548 1 26.773C1 26.8913 1.09984 26.9908 1.21847 26.9908H1.40993C1.53327 26.9908 1.62841 26.8913 1.62841 26.773C1.62841 26.6548 1.53327 26.5553 1.40993 26.5553Z" fill="#8209CD" stroke="#8209CD" stroke-width="0.3"/>
<path id="Vector_6" d="M22.9415 17.8725V18.8267H21.9842C21.8608 18.8267 21.7657 18.9263 21.7657 19.0445V20.371C21.7657 20.494 21.8655 20.5888 21.9842 20.5888H22.9415V21.543C22.9415 21.6659 23.0413 21.7608 23.1599 21.7608H24.4908C24.6141 21.7608 24.7092 21.6612 24.7092 21.543V20.5888H25.6665C25.7899 20.5888 25.885 20.4893 25.885 20.371V19.0445C25.885 18.9216 25.7852 18.8267 25.6665 18.8267H24.7092V17.8725C24.7092 17.7496 24.6094 17.6548 24.4908 17.6548H23.1599C23.0413 17.6536 22.9415 17.7543 22.9415 17.8725ZM23.3831 19.048V18.0938H24.2711V19.048C24.2711 19.171 24.371 19.2658 24.4896 19.2658H25.4469V20.1509H24.4896C24.3663 20.1509 24.2711 20.2504 24.2711 20.3687V21.3229H23.3831V20.3687C23.3831 20.2457 23.2833 20.1509 23.1646 20.1509H22.2073L22.2085 19.2658H23.1658C23.2833 19.2658 23.3831 19.171 23.3831 19.048Z" fill="#8209CD" stroke="#8209CD" stroke-width="0.3"/>
<path id="Vector_7" d="M29.5568 14.7428L25.5338 13.2758V7.84453C25.5338 7.8176 25.5291 7.78599 25.515 7.75789C25.5056 7.73096 25.4879 7.70754 25.4692 7.6853L18.8231 1.06439C18.8043 1.04566 18.7773 1.0281 18.7503 1.01873C18.7233 1.00937 18.6951 1 18.6634 1L8.97764 1.00117C7.97571 1.00117 7.15466 1.81369 7.15466 2.81825V3.9352H3.66026C2.65833 3.9352 1.83728 4.74772 1.83728 5.75228V25.1888C1.83728 25.7379 2.08277 26.2285 2.4704 26.5645H2.05694C1.93361 26.5645 1.83847 26.664 1.83847 26.7822C1.83847 26.9005 1.93831 27 2.05694 27H20.6319C20.7552 27 20.8504 26.9005 20.8504 26.7822C20.8504 26.664 20.7505 26.5645 20.6319 26.5645H19.5842C19.9436 26.2554 20.1809 25.8105 20.2126 25.307C20.7952 25.8339 21.4706 26.2612 22.2176 26.5645H21.4706C21.3472 26.5645 21.2521 26.664 21.2521 26.7822C21.2521 26.9005 21.3519 27 21.4706 27H26.7514C26.8747 27 26.9699 26.9005 26.9699 26.7822C26.9699 26.664 26.87 26.5645 26.7514 26.5645H25.4488C27.9824 25.5342 29.7042 23.0625 29.7042 20.2433L29.7019 14.9526C29.7019 14.8565 29.6432 14.7746 29.5563 14.743L29.5568 14.7428ZM18.8868 1.75039L24.782 7.62648H20.2667C19.5056 7.62648 18.8866 7.0083 18.8866 6.2508L18.8868 1.75039ZM7.59656 2.81348C7.59656 2.05482 8.21675 1.4378 8.9767 1.4378H18.4487V6.25197C18.4487 7.25065 19.2638 8.06905 20.2716 8.06905H25.1014V13.1188L23.9128 12.688C23.8622 12.6692 23.8082 12.6692 23.7624 12.688L20.2268 13.9782V10.7855C20.2268 10.7586 20.2221 10.727 20.208 10.6989C20.1986 10.6719 20.181 10.6485 20.1622 10.6263L13.5057 3.99848C13.4869 3.97975 13.4599 3.96219 13.4328 3.95282C13.4058 3.94346 13.3776 3.93409 13.3459 3.93409L7.59629 3.93526L7.59656 2.81348ZM13.5693 4.68442L19.4645 10.5605H14.9492C14.1881 10.5605 13.5691 9.94233 13.5691 9.18483L13.5693 4.68442ZM18.3991 26.555H3.66013C2.89901 26.555 2.27999 25.9368 2.27999 25.1793V5.7428C2.27999 4.98414 2.90018 4.36713 3.66013 4.36713H13.1321V9.1813C13.1321 10.18 13.9473 10.9984 14.9551 10.9984H19.7849V14.1314L18.1122 14.7402C18.0253 14.7718 17.9666 14.8538 17.9666 14.9486V20.23C17.9666 22.0061 18.6502 23.6406 19.7849 24.8665V25.1802C19.779 25.9413 19.16 26.5548 18.3988 26.5548L18.3991 26.555ZM29.2606 20.2338C29.2606 23.3258 27.0465 25.9696 23.9936 26.5232L23.8291 26.5548L23.6647 26.5232C20.612 25.9694 18.3977 23.3258 18.3977 20.2338V15.1022L23.8289 13.1224L29.2601 15.1022L29.2606 20.2338Z" fill="#8209CD" stroke="#8209CD" stroke-width="0.3"/>
<path id="Vector_8" d="M23.7522 14.62L19.93 16.0144C19.8431 16.046 19.7843 16.1279 19.7843 16.2228V20.2328C19.7843 22.5943 21.4652 24.6561 23.7851 25.1372C23.7992 25.1419 23.8168 25.1419 23.8309 25.1419C23.845 25.1419 23.8626 25.1419 23.8767 25.1372C26.1954 24.656 27.8775 22.5942 27.8775 20.2328L27.8763 16.224C27.8763 16.1326 27.8176 16.0472 27.7307 16.0156L23.9085 14.6212C23.858 14.6024 23.8027 14.6024 23.7522 14.62ZM27.4345 16.3773V20.2327C27.4345 22.3717 25.9216 24.2427 23.8309 24.6971C21.7402 24.2381 20.2274 22.3719 20.2274 20.2327V16.3773L23.8309 15.0649L27.4345 16.3773Z" fill="#8209CD" stroke="#8209CD" stroke-width="0.3"/>
<path id="Vector_9" d="M7.74212 12.5266L7.6693 12.5992C7.63758 12.5173 7.55536 12.4634 7.46374 12.4634H4.11157C3.98824 12.4634 3.8931 12.5629 3.8931 12.6812V16.0237C3.8931 16.1467 3.99294 16.2415 4.11157 16.2415H7.46495C7.58828 16.2415 7.68342 16.142 7.68342 16.0237V13.2033L8.04754 12.8403C8.13446 12.7537 8.13446 12.6132 8.04754 12.5265C7.96179 12.4411 7.82904 12.4412 7.74212 12.5266ZM7.24645 15.8059H4.33462V12.9035H7.24645V13.0218L5.78876 14.4747L5.29661 13.9842C5.20969 13.8975 5.06874 13.8975 4.98181 13.9842C4.89488 14.0708 4.89489 14.2113 4.98181 14.298L5.629 14.9431C5.67012 14.984 5.72884 15.0063 5.78405 15.0063C5.83925 15.0063 5.89799 14.984 5.9391 14.9431L7.23702 13.6493V15.8059L7.24645 15.8059Z" fill="#8209CD" stroke="#8209CD" stroke-width="0.3"/>
<path id="Vector_10" d="M16.6728 14.1341H11.5294C11.4061 14.1341 11.3109 14.2336 11.3109 14.3519C11.3109 14.4701 11.4108 14.5696 11.5294 14.5696L16.6728 14.5708C16.7961 14.5708 16.8913 14.4713 16.8913 14.353C16.8913 14.2348 16.7961 14.1341 16.6728 14.1341Z" fill="#8209CD" stroke="#8209CD" stroke-width="0.3"/>
<path id="Vector_11" d="M9.33731 14.1341C9.21398 14.1341 9.11884 14.2336 9.11884 14.3519C9.11884 14.4701 9.21868 14.5696 9.33731 14.5696H10.1983C10.3216 14.5696 10.4168 14.4701 10.4168 14.3519C10.4168 14.2336 10.3169 14.1341 10.1983 14.1341H9.33731Z" fill="#8209CD" stroke="#8209CD" stroke-width="0.3"/>
<path id="Vector_12" d="M16.6728 15.806H9.33731C9.21398 15.806 9.11884 15.9055 9.11884 16.0237C9.11884 16.1467 9.21868 16.2415 9.33731 16.2415H16.6728C16.7962 16.2415 16.8913 16.142 16.8913 16.0237C16.896 15.9055 16.7962 15.806 16.6728 15.806Z" fill="#8209CD" stroke="#8209CD" stroke-width="0.3"/>
<path id="Vector_13" d="M7.74212 18.5715L7.6693 18.6441C7.63758 18.5621 7.55536 18.5083 7.46374 18.5083H4.11157C3.98824 18.5083 3.8931 18.6078 3.8931 18.726V22.0686C3.8931 22.1915 3.99294 22.2863 4.11157 22.2863H7.46495C7.58828 22.2863 7.68342 22.1868 7.68342 22.0686V19.2481L8.04754 18.8852C8.13446 18.7985 8.13446 18.658 8.04754 18.5714C7.97001 18.4847 7.82904 18.4849 7.74212 18.5715ZM7.24645 21.8499H4.33462V18.9486H7.24645V19.0669L5.78876 20.5199L5.29661 20.0293C5.20969 19.9427 5.06874 19.9427 4.98181 20.0293C4.89489 20.1159 4.89489 20.2564 4.98181 20.3431L5.629 20.9882C5.67012 21.0292 5.72884 21.0514 5.78405 21.0514C5.83925 21.0514 5.89799 21.0292 5.9391 20.9882L7.23702 19.6945V21.8499L7.24645 21.8499Z" fill="#8209CD" stroke="#8209CD" stroke-width="0.3"/>
<path id="Vector_14" d="M16.6728 20.179H11.5294C11.4061 20.179 11.3109 20.2785 11.3109 20.3967C11.3109 20.515 11.4108 20.6145 11.5294 20.6145H16.6728C16.7961 20.6145 16.8913 20.515 16.8913 20.3967C16.8913 20.2785 16.7961 20.179 16.6728 20.179Z" fill="#8209CD" stroke="#8209CD" stroke-width="0.3"/>
<path id="Vector_15" d="M9.33731 20.6192H10.1983C10.3216 20.6192 10.4168 20.5197 10.4168 20.4014C10.4168 20.2832 10.3169 20.1837 10.1983 20.1837H9.33731C9.21398 20.1837 9.11884 20.2832 9.11884 20.4014C9.11884 20.5197 9.21398 20.6192 9.33731 20.6192Z" fill="#8209CD" stroke="#8209CD" stroke-width="0.3"/>
<path id="Vector_16" d="M16.6728 21.8496H9.33731C9.21398 21.8496 9.11884 21.9491 9.11884 22.0674C9.11884 22.1903 9.21868 22.2851 9.33731 22.2851L16.6728 22.2863C16.7962 22.2863 16.8913 22.1868 16.8913 22.0685C16.896 21.9503 16.7962 21.8496 16.6728 21.8496Z" fill="#8209CD" stroke="#8209CD" stroke-width="0.3"/>
<path id="Vector_17" d="M23.7203 3.82176C23.7755 3.82176 23.8342 3.79951 23.8753 3.75853L24.8913 2.74579C24.9783 2.65916 24.9783 2.51866 24.8913 2.43201C24.8044 2.34538 24.6635 2.34538 24.5765 2.43201L23.5605 3.44475C23.4736 3.53139 23.4736 3.67189 23.5605 3.75853C23.6063 3.79834 23.6662 3.82176 23.7203 3.82176Z" fill="#8209CD" stroke="#8209CD" stroke-width="0.3"/>
<path id="Vector_18" d="M22.8909 2.99514C23.0143 2.99514 23.1094 2.89563 23.1094 2.77738V1.34667C23.1094 1.22374 23.0096 1.12891 22.8909 1.12891C22.7723 1.12891 22.6724 1.22842 22.6724 1.34667V2.77738C22.6677 2.89446 22.7688 2.99514 22.8909 2.99514Z" fill="#8209CD" stroke="#8209CD" stroke-width="0.3"/>
<path id="Vector_19" d="M24.331 4.42572C24.331 4.54866 24.4308 4.64349 24.5494 4.64349H25.9848C26.1081 4.64349 26.2033 4.54397 26.2033 4.42572C26.2033 4.30747 26.1034 4.20796 25.9848 4.20796H24.5494C24.4273 4.20679 24.331 4.30747 24.331 4.42572Z" fill="#8209CD" stroke="#8209CD" stroke-width="0.3"/>
<path id="Vector_20" d="M25.4294 2.11368C25.4846 2.11368 25.5434 2.09144 25.5845 2.05046L25.817 1.81864C25.904 1.732 25.904 1.59151 25.817 1.50486C25.7301 1.41822 25.5892 1.41822 25.5022 1.50486L25.2697 1.73668C25.1828 1.82332 25.1828 1.96381 25.2697 2.05046C25.3155 2.09612 25.3742 2.11368 25.4294 2.11368Z" fill="#8209CD" stroke="#8209CD" stroke-width="0.3"/>
</g>
</svg>
