<svg width="43" height="43" viewBox="0 0 43 43" fill="none" xmlns="http://www.w3.org/2000/svg">
<path d="M30.485 16.1096C30.3221 15.884 30.3725 15.5692 30.5976 15.406C30.8226 15.2427 31.1367 15.2932 31.2997 15.5187C32.3477 16.9697 33.1791 18.5907 33.7418 20.3364C34.286 22.0196 34.5799 23.814 34.5799 25.6724C34.5799 25.7431 34.5783 25.8744 34.5732 26.0511V26.0528C34.5699 26.1909 34.5665 26.3154 34.5615 26.4299C34.5497 26.7076 34.3146 26.9231 34.0374 26.9113C33.7603 26.8995 33.5453 26.6639 33.557 26.3861C33.5621 26.2565 33.5671 26.137 33.5688 26.0292C33.5705 25.9619 33.5705 25.8458 33.5705 25.6724C33.5705 23.9151 33.295 22.2251 32.7844 20.6427C32.2553 19.0049 31.4726 17.4782 30.4833 16.1095L30.485 16.1096ZM33.2195 29.4193C33.2363 29.4479 33.2631 29.463 33.2951 29.463C33.327 29.463 33.3555 29.4462 33.3706 29.4193C34.6035 27.2445 36.4897 25.5646 39.0714 26.4365C41.0567 27.1064 42.4944 29.0708 42.4944 31.3903C42.4944 34.6878 39.1167 37.3641 36.9433 39.4885L33.8881 42.308C33.5522 42.6177 33.0382 42.6177 32.7023 42.308L29.647 39.4885C28.2277 38.1015 26.2945 36.4788 25.1236 34.6002C25.1001 34.5615 25.0984 34.5177 25.1202 34.479C25.1421 34.4403 25.1807 34.4167 25.2244 34.4167H27.4381C27.5641 34.4167 27.6749 34.3561 27.7455 34.2619L29.4217 32.2369L31.4322 36.7025C31.5196 36.8944 31.7446 36.9819 31.9378 36.8944C32.0151 36.859 32.0772 36.8001 32.1142 36.7311L33.6359 34.4149H36.2444C36.2629 34.4149 36.2813 34.4132 36.2981 34.4116C36.4711 35.0344 37.0422 35.4905 37.7191 35.4905C38.5337 35.4905 39.1938 34.829 39.1938 34.0126C39.1938 33.1963 38.5337 32.5347 37.7191 32.5347C37.0288 32.5347 36.4493 33.0094 36.2881 33.6507C36.2729 33.649 36.2578 33.6473 36.2444 33.6473H33.431V33.649C33.3067 33.649 33.1858 33.7096 33.1119 33.8207L31.8421 35.7514L29.8702 31.3699C29.8467 31.3143 29.8115 31.2621 29.7611 31.2217C29.5981 31.0871 29.358 31.109 29.2219 31.2722L27.2584 33.6456H24.6886C24.6399 33.6456 24.5979 33.6187 24.5794 33.5733C24.2754 32.8764 24.094 32.1475 24.094 31.3867C24.094 29.0049 25.6107 26.9965 27.6783 26.3808C30.2011 25.6283 32.0267 27.3133 33.2178 29.414L33.2195 29.4193ZM27.0656 38.7262C27.2873 38.5595 27.6014 38.605 27.7676 38.8272C27.9339 39.0494 27.8886 39.3641 27.6668 39.5308C26.1972 40.6384 24.5428 41.517 22.7607 42.1129C21.0375 42.6886 19.1982 43 17.2901 43C12.5151 43 8.19333 41.0609 5.06391 37.9251C1.9348 34.7892 0 30.4565 0 25.6724C0 20.8871 1.93493 16.556 5.06391 13.4198C8.1929 10.2836 12.5147 8.34487 17.2901 8.34487C19.1645 8.34487 20.9701 8.64449 22.6631 9.19998C24.4166 9.77396 26.0459 10.6223 27.5022 11.6929C27.7256 11.8579 27.7743 12.1727 27.6097 12.3965C27.4451 12.6204 27.131 12.6692 26.9076 12.5059C25.537 11.4977 24.0018 10.6998 22.3523 10.1595C20.7601 9.63766 19.0586 9.35653 17.2901 9.35653C12.7938 9.35653 8.7223 11.1829 5.77648 14.1354C2.83041 17.0879 1.00797 21.1679 1.00797 25.674C1.00797 30.1801 2.83037 34.2605 5.77648 37.2127C8.72256 40.1651 12.7938 41.9915 17.2901 41.9915C19.0957 41.9915 20.8291 41.6986 22.4448 41.1583C24.121 40.5978 25.678 39.7696 27.0637 38.726L27.0656 38.7262ZM32.0491 11.6961L18.2677 25.3355C18.0695 25.5307 17.752 25.5274 17.5572 25.3287C17.3624 25.1301 17.3657 24.812 17.5622 24.6167L31.3368 10.9821L30.2786 9.92167L30.2501 9.89137C29.7848 9.40827 29.5513 8.78379 29.5513 8.16099C29.5513 7.5247 29.7932 6.88677 30.2786 6.40031V6.39862L36.3706 0.293405L36.4092 0.258056C36.5436 0.136861 36.7032 0.0560644 36.8745 0.0207163C37.0609 -0.0179989 37.2574 -0.00284962 37.4422 0.0695305C37.6286 0.143596 37.7832 0.264787 37.894 0.421335C38.0049 0.576197 38.0687 0.763038 38.0771 0.965021L38.2232 4.85671L42.0242 4.95771C42.2291 4.96276 42.4155 5.02504 42.5717 5.13445C42.5885 5.14624 42.6036 5.15802 42.6188 5.17149C42.7531 5.27753 42.8606 5.42061 42.9278 5.58894C43.0017 5.77578 43.0185 5.97272 42.9799 6.15955C42.9412 6.34808 42.8489 6.52314 42.7061 6.66623V6.66791L36.6274 12.7598L36.5972 12.7884C36.1168 13.2546 35.492 13.4886 34.8705 13.4886V13.4869C34.2323 13.4869 33.5957 13.2445 33.1137 12.7598L32.0505 11.6942L32.0491 11.6961ZM27.2337 19.2893C27.0842 19.0553 27.1514 18.7439 27.3848 18.5924C27.6183 18.4426 27.929 18.5099 28.0802 18.7439C28.6647 19.6562 29.1367 20.646 29.476 21.6947C29.8069 22.7147 30.0135 23.7904 30.0806 24.9047C30.0974 25.1824 29.8858 25.4214 29.6086 25.4366C29.3315 25.4534 29.093 25.2413 29.0779 24.9636C29.0174 23.9385 28.8259 22.947 28.5219 22.0061C28.2078 21.0399 27.7728 20.1275 27.2353 19.2876L27.2337 19.2893ZM24.0474 35.3762C24.2742 35.218 24.5866 35.2736 24.7461 35.5008C24.904 35.728 24.8486 36.0428 24.6218 36.201C23.5637 36.9434 22.3896 37.5291 21.1333 37.9247C19.9189 38.3068 18.6273 38.5139 17.2903 38.5139C13.753 38.5139 10.5481 37.0764 8.23053 34.7534C5.91292 32.4305 4.47824 29.2187 4.47824 25.674C4.47824 22.129 5.91262 18.9173 8.23053 16.5946C10.5484 14.272 13.7532 12.8342 17.2903 12.8342C18.545 12.8342 19.7627 13.0177 20.9149 13.356C22.1024 13.7061 23.221 14.2262 24.2389 14.8861C24.4724 15.0376 24.5379 15.349 24.3867 15.583C24.2355 15.8169 23.9248 15.8826 23.6913 15.7311C22.7541 15.1234 21.7262 14.6471 20.6311 14.3222C19.5746 14.0108 18.4543 13.8441 17.2903 13.8441C14.0302 13.8441 11.0792 15.1689 8.94261 17.31C6.80602 19.4511 5.48425 22.4086 5.48425 25.6758C5.48425 28.943 6.80611 31.9004 8.94261 34.0416C11.0791 36.1828 14.0302 37.5075 17.2903 37.5075C18.5265 37.5075 19.7173 37.3173 20.8343 36.9655C21.9932 36.6002 23.0749 36.0615 24.0474 35.3798L24.0474 35.3762ZM23.7921 22.6069C23.6729 22.3561 23.7804 22.0548 24.0323 21.937C24.2842 21.8191 24.5832 21.9269 24.7025 22.1777C24.9544 22.7129 25.1509 23.2836 25.2836 23.8811C25.413 24.4635 25.4818 25.0628 25.4818 25.6738C25.4818 25.7984 25.4785 25.9381 25.4701 26.0946V26.103C25.4634 26.2394 25.4516 26.3757 25.4382 26.5121C25.4113 26.7881 25.1644 26.9901 24.8889 26.9632C24.6135 26.9363 24.4119 26.6888 24.4388 26.4128C24.4505 26.2933 24.4606 26.1721 24.4657 26.0509V26.0425C24.4707 25.9381 24.4741 25.8136 24.4741 25.6722C24.4741 25.1251 24.4153 24.5982 24.3027 24.0966C24.1868 23.5782 24.0155 23.0799 23.7921 22.6053L23.7921 22.6069ZM22.4316 30.6999C22.6248 30.5013 22.9439 30.4963 23.1421 30.6898C23.3419 30.8834 23.3453 31.2032 23.1521 31.4018C22.3946 32.1795 21.4843 32.8074 20.4681 33.2366C19.4872 33.6507 18.4139 33.8796 17.2903 33.8796C15.0295 33.8796 12.9805 32.9606 11.4988 31.4742C10.0157 29.9879 9.09865 27.936 9.09865 25.6702C9.09865 23.4046 10.0157 21.3512 11.4988 19.8662C12.9819 18.3799 15.0294 17.4608 17.2903 17.4608C17.8949 17.4608 18.4895 17.5282 19.0673 17.6578C19.6568 17.7891 20.2229 17.9827 20.757 18.2334C21.0073 18.3513 21.1164 18.6509 20.9989 18.9017C20.8813 19.1525 20.5823 19.2619 20.3321 19.1441C19.8635 18.9253 19.3679 18.7536 18.8506 18.6391C18.3535 18.528 17.8311 18.4708 17.2903 18.4708C15.3066 18.4708 13.5111 19.2771 12.2113 20.5799C10.9113 21.8827 10.1067 23.6822 10.1067 25.6699C10.1067 27.6576 10.9113 29.4573 12.2113 30.7599C13.5113 32.0627 15.3068 32.869 17.2903 32.869C18.2829 32.869 19.2252 32.6687 20.0784 32.3085C20.9686 31.9331 21.7665 31.381 22.4333 30.6976L22.4316 30.6999ZM37.2359 5.36681L37.0713 1.01887L30.9892 7.11418L30.9875 7.1125C30.7003 7.40034 30.5575 7.78076 30.5575 8.16117C30.5575 8.53317 30.6936 8.90351 30.9657 9.18796L30.9892 9.20984L33.821 12.0478C34.1099 12.3373 34.4895 12.4821 34.8658 12.4821V12.4804C35.2353 12.4804 35.6048 12.3441 35.8903 12.0714L41.9806 5.96615L37.7345 5.85337C37.4658 5.85169 37.2441 5.6396 37.234 5.36691L37.2359 5.36681Z" fill="#059909"/>
</svg>
