<svg width="28" height="35" viewBox="0 0 28 35" fill="none" xmlns="http://www.w3.org/2000/svg">
<path id="Vector" d="M17.8989 7.40927H18.3763V7.88377C18.3763 8.40874 18.8058 8.83598 19.3341 8.83598C19.8624 8.83598 20.292 8.40874 20.292 7.88377V7.40927H20.7693C21.2975 7.40927 21.7271 6.98203 21.7271 6.45706C21.7271 5.93191 21.2975 5.50468 20.7693 5.50468H20.292V5.03035C20.292 4.5052 19.8624 4.07797 19.3341 4.07797C18.8058 4.07797 18.3763 4.5052 18.3763 5.03035V5.50468H17.8989C16.6359 5.5375 16.6362 7.37663 17.8989 7.40927ZM17.8989 6.2299H18.741C18.9426 6.2299 19.1058 6.06754 19.1058 5.86729V5.03035C19.1073 4.7343 19.5608 4.73271 19.5624 5.03036C19.5624 5.03035 19.5624 5.86729 19.5624 5.86729C19.5624 6.06754 19.7256 6.2299 19.9272 6.2299H20.7693C21.0668 6.23138 21.0685 6.68248 20.7693 6.68405C20.7693 6.68405 19.9272 6.68405 19.9272 6.68405C19.7256 6.68405 19.5624 6.84641 19.5624 7.04666V7.88377C19.561 8.17962 19.1074 8.1812 19.1058 7.88376C19.1058 7.88377 19.1058 7.04666 19.1058 7.04666C19.1058 6.84641 18.9426 6.68405 18.741 6.68405H17.8989C17.6013 6.68264 17.5998 6.23154 17.8989 6.2299ZM16.0947 26.4103H15.1002V25.422C15.1002 24.6971 14.5071 24.1075 13.7779 24.1075C13.0488 24.1075 12.4557 24.6971 12.4557 25.422V26.4103H11.4611C10.732 26.4103 10.1389 27.0003 10.1389 27.7251C10.1389 28.45 10.732 29.0396 11.4611 29.0396H12.4557V30.0279C12.4557 30.7528 13.0488 31.3427 13.7779 31.3427C14.5071 31.3427 15.1002 30.7528 15.1002 30.0279V29.0396H16.0947C17.8386 28.9943 17.8376 26.4555 16.0947 26.4103ZM16.0947 28.3144H14.7354C14.5338 28.3144 14.3707 28.4766 14.3707 28.677V30.0279C14.3573 30.8014 13.199 30.8038 13.1852 30.0279C13.1852 30.0279 13.1852 28.677 13.1852 28.677C13.1852 28.4766 13.0221 28.3144 12.8204 28.3144H11.4611C11.1341 28.3144 10.8684 28.0502 10.8684 27.7251C10.8684 27.4001 11.1341 27.1355 11.4611 27.1355C13.5054 27.1127 13.1585 27.441 13.1852 25.422C13.1852 25.0969 13.4509 24.8328 13.7779 24.8328C14.1049 24.8328 14.3707 25.0969 14.3707 25.422V26.7729C14.3707 26.9734 14.5338 27.1355 14.7354 27.1355H16.0947C16.8722 27.1489 16.8749 28.3007 16.0947 28.3144ZM10.7127 10.5958C11.4489 9.57581 10.6288 8.05633 9.36409 8.09096C8.10138 8.05628 7.28137 9.57679 8.01779 10.5958C7.55957 10.9608 7.27745 11.5175 7.27745 12.1163V13.475C7.27745 13.6753 7.4406 13.8376 7.64221 13.8376H11.0882C11.2898 13.8376 11.453 13.6753 11.453 13.475V12.1163C11.453 11.5172 11.1709 10.9607 10.7127 10.5958ZM9.36413 8.81615C10.8314 8.91753 10.3296 11.058 8.96718 10.5007C8.12572 10.1124 8.43674 8.79968 9.36413 8.81615ZM10.7234 13.1124H8.00697V12.1163C8.00697 11.7078 8.21357 11.3282 8.54627 11.103C9.04848 11.3902 9.68191 11.3899 10.1841 11.103C10.5168 11.328 10.7234 11.7076 10.7234 12.1163V13.1124ZM26.417 14.092H25.6578C25.6582 14.0918 27.9351 7.02907 27.9359 7.02878C28.1054 6.49389 27.8091 5.92218 27.2758 5.75486L24.1918 4.77309V3.18472C24.1918 2.62487 23.7351 2.16949 23.1741 2.16949H16.0307L9.38657 0.0515473C8.86645 -0.129687 8.25567 0.185253 8.10137 0.710027C8.10137 0.710017 7.63179 2.16949 7.63179 2.16949C7.55007 2.17121 6.718 2.15381 6.66681 2.19227C6.59983 2.14567 5.57216 3.24279 5.50687 3.288C5.50688 3.28801 3.47134 5.31381 3.47134 5.31381C3.43997 5.345 3.41758 5.38171 3.39981 5.42033C3.33241 5.48635 3.37546 6.6091 3.36412 6.71269L0.807243 7.18653C0.547922 7.23363 0.323153 7.37881 0.173901 7.59517C0.0232239 7.81384 -0.0319886 8.07854 0.0178808 8.33863L1.11232 14.1706C0.465904 14.368 0.000782679 14.9577 0.000782679 15.6657V33.4263C0.000782679 34.2939 0.711067 35 1.58414 35H26.417C27.2897 35 28 34.2939 28 33.4263V15.6657C28 14.798 27.2897 14.092 26.417 14.092ZM24.1918 5.53442L27.0546 6.44591C27.2081 6.49407 27.2894 6.65377 27.2402 6.80976L24.2156 16.1896L24.1918 16.2636V5.53442ZM8.79633 0.929743C8.84082 0.779273 9.0127 0.689474 9.16181 0.741536C9.16181 0.741533 13.6415 2.16949 13.6415 2.16949H8.39773L8.79633 0.929743ZM6.41649 3.40881V4.91668C6.41649 5.07691 6.28541 5.2074 6.12404 5.2074H4.6095L6.41649 3.40881ZM4.09364 5.93262H6.12404C6.68757 5.93262 7.14601 5.47688 7.14601 4.91668V2.8947H23.1741C23.3329 2.8947 23.4622 3.02484 23.4622 3.18472V20.2853H14.6824C14.3899 20.2853 14.1106 20.1277 13.9543 19.8756L12.3392 17.2406C12.0507 16.7654 11.5452 16.4816 10.9874 16.4816H4.09364V5.93262ZM0.734932 8.20407C0.70573 8.06669 0.798998 7.92275 0.939756 7.89971C0.939754 7.89971 3.36412 7.45034 3.36412 7.45034V16.4816H2.28803L2.27712 16.4235L0.734932 8.20407ZM0.730302 15.6657C0.730302 15.3144 0.941179 15.0147 1.24574 14.8865L1.54602 16.4821C1.25753 16.4923 0.973973 16.5793 0.730302 16.7305V15.6657ZM27.2705 33.4263C27.2705 33.8941 26.8876 34.2748 26.417 34.2748H1.58414C1.11323 34.2748 0.730302 33.8941 0.730302 33.4263V18.0554C0.730302 17.5875 1.11323 17.2068 1.58414 17.2068H10.9874C11.2873 17.2068 11.5595 17.3596 11.7158 17.6169L13.3323 20.2545C13.6216 20.7208 14.1388 21.0105 14.6824 21.0105H26.417C26.8876 21.0105 27.2705 21.3912 27.2705 21.8593V33.4263ZM27.2705 20.5342C27.0161 20.3756 26.7186 20.2897 26.417 20.2853C26.417 20.2853 24.1918 20.2853 24.1918 20.2853V18.638L24.2242 18.5373L25.4246 14.8173H26.417C26.8876 14.8173 27.2705 15.1979 27.2705 15.6657V20.5342ZM13.5286 14.0736V7.85474C13.5286 7.28727 13.0641 6.82551 12.4931 6.82551H6.23732C5.66631 6.82551 5.20181 7.28727 5.20181 7.85474V14.0736C5.20181 14.6413 5.66631 15.103 6.23732 15.103H12.4931C13.0641 15.103 13.5286 14.6413 13.5286 14.0736ZM5.93133 14.0736V7.85474C5.93133 7.68707 6.06847 7.55073 6.23732 7.55073H12.4931C12.6619 7.55073 12.7991 7.68707 12.7991 7.85474V14.0736C12.7991 14.2413 12.6619 14.3778 12.4931 14.3778H6.23732C6.06847 14.3778 5.93133 14.2413 5.93133 14.0736ZM14.4761 8.45354C14.4761 8.25329 14.6393 8.09093 14.8409 8.09093H16.6241C16.8257 8.09093 16.9888 8.25329 16.9888 8.45354C16.9888 8.65379 16.8257 8.81615 16.6241 8.81615H14.8409C14.6393 8.81615 14.4761 8.65379 14.4761 8.45354ZM14.4761 10.6643C14.4761 10.464 14.6393 10.3016 14.8409 10.3016H21.3624C21.564 10.3016 21.7271 10.464 21.7271 10.6643C21.7271 10.8645 21.564 11.0269 21.3624 11.0269H14.8409C14.6393 11.0269 14.4761 10.8645 14.4761 10.6643ZM14.4761 12.8082C14.4761 12.608 14.6393 12.4456 14.8409 12.4456H21.3624C21.564 12.4456 21.7271 12.608 21.7271 12.8082C21.7271 13.0085 21.564 13.1708 21.3624 13.1708H14.8409C14.6393 13.1708 14.4761 13.0085 14.4761 12.8082ZM14.4761 15.065C14.4761 14.8647 14.6393 14.7024 14.8409 14.7024H21.3624C21.564 14.7024 21.7271 14.8647 21.7271 15.065C21.7271 15.2652 21.564 15.4276 21.3624 15.4276H14.8409C14.6393 15.4276 14.4761 15.2652 14.4761 15.065ZM14.4761 17.3217C14.4761 17.1215 14.6393 16.9591 14.8409 16.9591H21.3624C21.564 16.9591 21.7271 17.1215 21.7271 17.3217C21.7271 17.522 21.564 17.6843 21.3624 17.6843H14.8409C14.6393 17.6843 14.4761 17.522 14.4761 17.3217Z" fill="#3C4BAC"/>
</svg>
