<svg width="35" height="40" viewBox="0 0 35 40" fill="none" xmlns="http://www.w3.org/2000/svg">
<path id="Vector" d="M26.8597 26.4199C25.2438 28.0128 24.4243 29.9636 24.4243 32.2182V39.4449C24.4243 39.752 24.1711 39.9999 23.8612 39.9999C23.5497 39.9999 23.2982 39.7503 23.2982 39.4449V32.2182C23.2982 29.6598 24.2294 27.4448 26.0651 25.6351L32.988 18.8106C33.2262 18.5758 33.2129 18.4001 33.1829 18.2868C33.0913 17.9518 32.6049 17.4904 31.7486 17.2638C30.6226 16.9666 29.4815 17.249 28.7002 18.0208L26.8962 19.7992C26.0433 20.64 25.2787 20.929 24.624 20.663C23.7328 20.3001 23.3014 19.0077 23.3014 16.7121L23.298 5.19751C23.298 4.33212 22.5851 3.62929 21.7072 3.62929C20.8293 3.62929 20.1163 4.33212 20.1163 5.19751V14.1928C20.1163 14.4998 19.8631 14.7478 19.5533 14.7478C19.2418 14.7478 18.9903 14.4982 18.9903 14.1928L18.9886 2.73073C18.9886 1.83743 18.2506 1.10997 17.3444 1.10997C16.4382 1.10997 15.7003 1.83743 15.7003 2.73073V13.9922C15.7003 14.2993 15.4471 14.5473 15.1372 14.5473C14.8257 14.5473 14.5742 14.2977 14.5742 13.9922L14.5725 5.62251C14.5725 4.75876 13.8596 4.05429 12.9817 4.05429C12.1038 4.05429 11.3908 4.75712 11.3908 5.62251V16.6557C11.3908 16.9628 11.1376 17.2108 10.8278 17.2108C10.5163 17.2108 10.2648 16.9612 10.2648 16.6557V11.301C10.2648 10.5226 9.62342 9.8904 8.83382 9.8904C8.04421 9.8904 7.40288 10.5226 7.40288 11.301V12.925C7.40288 13.2321 7.14968 13.48 6.83985 13.48C6.52834 13.48 6.27681 13.2304 6.27681 12.925V11.301C6.27681 9.91011 7.42455 8.78035 8.83382 8.78035C9.36355 8.78035 9.8566 8.93963 10.2648 9.2122V5.62255C10.2648 4.14467 11.4841 2.94428 12.9817 2.94428C13.5747 2.94428 14.1244 3.13313 14.5725 3.45168V2.73082C14.5725 1.22502 15.8152 0 17.3428 0C18.8703 0 20.113 1.22502 20.113 2.73082V3.02639C20.5611 2.70618 21.1108 2.519 21.7038 2.519C23.2031 2.519 24.4208 3.72102 24.4208 5.19727V16.7102C24.4208 18.8202 24.8322 19.5461 25.0488 19.6347C25.1571 19.6791 25.5002 19.597 26.0932 19.0124L27.8973 17.2339C28.9684 16.1781 30.5143 15.7873 32.0352 16.1896C33.1912 16.495 34.0458 17.188 34.2657 17.9975C34.4206 18.5657 34.2474 19.1338 33.7793 19.5953L26.8564 26.4197L26.8597 26.4199ZM17.248 32.4612C17.5379 32.9554 17.6145 33.5302 17.4646 34.0819C17.3146 34.6337 16.9565 35.0934 16.4551 35.3792C15.8471 35.7257 15.1224 35.7568 14.4994 35.4859C14.2396 35.7339 13.9497 35.949 13.6332 36.1296C12.9536 36.5171 12.189 36.7142 11.4211 36.7142C11.1862 36.7142 10.953 36.6945 10.7198 36.6583V39.445C10.7198 39.752 10.4666 40 10.1567 40C9.84523 40 9.5937 39.7504 9.5937 39.445V32.8682C9.5937 30.6809 8.83412 29.3836 8.03117 28.0107C7.1683 26.5377 6.27707 25.0171 6.27707 22.4159C6.27707 22.1088 6.53027 21.8609 6.8401 21.8609C7.15161 21.8609 7.40314 22.1105 7.40314 22.4159C7.40314 23.6606 7.62969 24.6196 7.9695 25.462C8.42925 25.4751 8.88235 25.5753 9.30048 25.7592C9.53536 25.3733 9.86518 25.0498 10.27 24.8199C10.8963 24.4636 11.6259 24.3683 12.3239 24.5539C13.0219 24.7378 13.6066 25.1795 13.9681 25.797C14.4978 26.7001 14.4362 27.7757 13.8931 28.5902C14.5294 28.843 15.0691 29.2995 15.4256 29.9104C15.7005 30.38 15.8438 30.9104 15.8454 31.4457C16.4268 31.5755 16.9399 31.9384 17.2464 32.4606L17.248 32.4612ZM16.2718 33.0162C16.0703 32.673 15.6805 32.4743 15.2807 32.5071C15.1041 32.5219 14.9309 32.4546 14.8126 32.3232C14.6943 32.1935 14.646 32.0145 14.681 31.8437C14.7776 31.3725 14.696 30.8831 14.4528 30.466C14.0979 29.8601 13.4616 29.4906 12.752 29.4775C12.5021 29.4726 12.2855 29.3067 12.2189 29.0702C12.1523 28.8338 12.2522 28.5809 12.4638 28.4511C13.1884 28.0045 13.4216 27.0833 12.9935 26.3525C12.782 25.9929 12.4421 25.7351 12.034 25.6267C11.6259 25.5183 11.2011 25.5742 10.8346 25.7827C10.4798 25.9847 10.2216 26.3098 10.1084 26.6974C10.0584 26.8698 9.92512 27.0061 9.75521 27.0668C9.58364 27.126 9.39373 27.1013 9.24548 26.9979C9.03393 26.8517 8.8007 26.7434 8.55584 26.6711C8.70243 26.9355 8.85402 27.1949 9.00727 27.4577C9.85019 28.8962 10.7214 30.3839 10.7214 32.87V35.5302C11.5176 35.701 12.3555 35.5762 13.0701 35.1706C13.4116 34.9752 13.7115 34.7272 13.9613 34.43C14.1546 34.2001 14.4977 34.1624 14.7393 34.3446C15.0741 34.5992 15.5272 34.6287 15.8936 34.4202C16.1335 34.2839 16.3068 34.0622 16.3784 33.7978C16.45 33.5334 16.4134 33.2575 16.2751 33.0194L16.2718 33.0162ZM17.0964 25.2064C16.5184 25.2064 16.0486 25.6695 16.0486 26.2393C16.0486 26.809 16.5184 27.2721 17.0964 27.2721C17.6745 27.2721 18.1442 26.809 18.1442 26.2393C18.1442 25.6695 17.6744 25.2064 17.0964 25.2064ZM28.9951 20.8958C28.9951 20.5017 28.6702 20.1815 28.2705 20.1815C27.8707 20.1815 27.5458 20.5018 27.5458 20.8958C27.5458 21.2899 27.8707 21.6102 28.2705 21.6102C28.6702 21.6102 28.9951 21.2899 28.9951 20.8958ZM25.6602 22.9863C25.6602 22.359 25.1438 21.8499 24.5074 21.8499C23.8711 21.8499 23.3547 22.359 23.3547 22.9863C23.3547 23.6135 23.8711 24.1226 24.5074 24.1226C25.1438 24.1226 25.6602 23.6135 25.6602 22.9863ZM21.9404 26.7582C21.3624 26.7582 20.8926 27.2213 20.8926 27.791C20.8926 28.3609 21.3624 28.8239 21.9404 28.8239C22.5184 28.8239 22.9882 28.3608 22.9882 27.791C22.9882 27.2212 22.5184 26.7582 21.9404 26.7582ZM19.3384 19.2309C19.3384 19.7087 19.7315 20.0963 20.2163 20.0963C20.701 20.0963 21.0942 19.7087 21.0942 19.2309C21.0942 18.753 20.701 18.3655 20.2163 18.3655C19.7315 18.3655 19.3384 18.753 19.3384 19.2309ZM21.5039 17.84C21.9037 17.84 22.2285 17.5198 22.2285 17.1257C22.2285 16.7316 21.9037 16.4114 21.5039 16.4114C21.1041 16.4114 20.7793 16.7316 20.7793 17.1257C20.7793 17.5198 21.1041 17.84 21.5039 17.84ZM20.3729 24.704C20.9509 24.704 21.4206 24.2409 21.4206 23.6711C21.4206 23.1013 20.9509 22.6382 20.3729 22.6382C19.7949 22.6382 19.3251 23.1013 19.3251 23.6711C19.3251 24.2409 19.7949 24.704 20.3729 24.704ZM14.1178 20.8138C14.1178 19.7202 15.0206 18.8302 16.1301 18.8302C17.2395 18.8302 18.1424 19.7202 18.1424 20.8138C18.1424 21.9075 17.2395 22.7975 16.1301 22.7975C15.0206 22.7975 14.1178 21.9075 14.1178 20.8138ZM15.2455 20.8138C15.2455 21.295 15.6436 21.6874 16.1317 21.6874C16.6198 21.6874 17.0179 21.295 17.0179 20.8138C17.0179 20.3327 16.6214 19.9402 16.1317 19.9402C15.6436 19.9402 15.2455 20.3327 15.2455 20.8138ZM22.31 32.3906C22.31 33.4843 21.4071 34.3743 20.2977 34.3743C19.1882 34.3743 18.2854 33.4843 18.2854 32.3906C18.2854 31.297 19.1882 30.4069 20.2977 30.4069C21.4071 30.4069 22.31 31.297 22.31 32.3906ZM21.1823 32.3906C21.1823 31.9095 20.7841 31.517 20.2961 31.517C19.808 31.517 19.4099 31.9095 19.4099 32.3906C19.4099 32.8717 19.808 33.2642 20.2961 33.2642C20.7841 33.2642 21.1823 32.8717 21.1823 32.3906ZM4.99568 21.0223V22.0684C4.99568 22.3754 4.74248 22.6234 4.43265 22.6234C4.12114 22.6234 3.86961 22.3738 3.86961 22.0684V21.0223C3.39818 20.909 2.9684 20.6578 2.61194 20.3048L1.93564 20.9714C1.8257 21.0798 1.68077 21.134 1.53751 21.134C1.39259 21.134 1.24933 21.0798 1.13939 20.9714C0.919505 20.7547 0.919505 20.4032 1.13939 20.1865L1.96064 19.3769C1.80072 19.0419 1.68745 18.6725 1.63247 18.2784H0.563036C0.25153 18.2784 0 18.0288 0 17.7233C0 17.4163 0.253202 17.1683 0.563036 17.1683H1.63247C1.68745 16.7759 1.80072 16.4047 1.96064 16.0697L1.13939 15.2602C0.919505 15.0434 0.919505 14.692 1.13939 14.4752C1.35927 14.2585 1.71577 14.2585 1.93565 14.4752L2.61195 15.1419C2.96843 14.7889 3.39823 14.5376 3.86962 14.4243V13.3783C3.86962 13.0712 4.12282 12.8233 4.43265 12.8233C4.74416 12.8233 4.99569 13.0729 4.99569 13.3783V14.4243C5.46713 14.5376 5.8969 14.7889 6.25336 15.1419L6.92966 14.4752C7.14954 14.2585 7.50605 14.2585 7.72592 14.4752C7.9458 14.692 7.9458 15.0434 7.72592 15.2602L6.90467 16.0697C7.06459 16.4047 7.17786 16.7742 7.23283 17.1683H8.30227C8.61378 17.1683 8.86531 17.4179 8.86531 17.7233C8.86531 18.0304 8.61211 18.2784 8.30227 18.2784H7.23283C7.17786 18.6708 7.06459 19.0419 6.90467 19.3769L7.72592 20.1865C7.9458 20.4033 7.9458 20.7547 7.72592 20.9714C7.61598 21.0798 7.47105 21.134 7.3278 21.134C7.18287 21.134 7.03961 21.0798 6.92967 20.9714L6.25337 20.3048C5.89689 20.6578 5.46707 20.909 4.99568 21.0223ZM6.14841 17.7233C6.14841 16.5016 5.36213 15.4687 4.43265 15.4687C3.50317 15.4687 2.71689 16.5016 2.71689 17.7233C2.71689 18.9451 3.50317 19.978 4.43265 19.978C5.36213 19.978 6.14841 18.9451 6.14841 17.7233ZM35 32.0162C35 32.3233 34.7468 32.5712 34.4369 32.5712H33.2326C33.1743 33.0211 33.0443 33.4432 32.8578 33.8225L33.7723 34.724C33.9922 34.9408 33.9922 35.2922 33.7723 35.5089C33.6623 35.6173 33.5174 35.6715 33.3742 35.6715C33.2292 35.6715 33.086 35.6173 32.976 35.5089L32.2064 34.7503C31.81 35.1542 31.3252 35.4399 30.7922 35.5598V36.734C30.7922 37.041 30.539 37.289 30.2291 37.289C29.9176 37.289 29.6661 37.0394 29.6661 36.734V35.5598C29.1314 35.44 28.6483 35.1542 28.2518 34.7503L27.4822 35.5089C27.3723 35.6173 27.2274 35.6715 27.0841 35.6715C26.9392 35.6715 26.7959 35.6173 26.686 35.5089C26.4661 35.2922 26.4661 34.9408 26.686 34.724L27.6005 33.8225C27.4156 33.4432 27.2857 33.0212 27.2257 32.5712H26.0213C25.7098 32.5712 25.4583 32.3216 25.4583 32.0162C25.4583 31.7091 25.7115 31.4612 26.0213 31.4612H27.2257C27.284 31.0112 27.4139 30.5892 27.6005 30.2099L26.686 29.3084C26.4661 29.0916 26.4661 28.7402 26.686 28.5234C26.9059 28.3067 27.2624 28.3067 27.4822 28.5234L28.2518 29.2821C28.6483 28.8781 29.133 28.5924 29.6661 28.4725V27.2984C29.6661 26.9913 29.9193 26.7434 30.2291 26.7434C30.5406 26.7434 30.7922 26.993 30.7922 27.2984V28.4725C31.3252 28.5924 31.81 28.8781 32.2064 29.2821L32.976 28.5234C33.1959 28.3067 33.5524 28.3067 33.7723 28.5234C33.9922 28.7402 33.9922 29.0916 33.7723 29.3084L32.8578 30.2099C33.0427 30.5892 33.1726 31.0112 33.2326 31.4612H34.437C34.7485 31.4612 35 31.7108 35 32.0162ZM32.1415 32.0162C32.1415 30.6631 31.2653 29.5185 30.2291 29.5185C29.193 29.5185 28.3168 30.6615 28.3168 32.0162C28.3168 33.3693 29.193 34.5138 30.2291 34.5138C31.2653 34.5138 32.1415 33.3709 32.1415 32.0162Z" fill="#FF6159"/>
</svg>
