<svg width="33" height="33" viewBox="0 0 33 33" fill="none" xmlns="http://www.w3.org/2000/svg">
<g id="Group">
<path id="Vector" d="M13.003 7.00058C13.003 7.27621 13.2267 7.50121 13.5038 7.50121C13.7795 7.50121 14.0045 7.27761 14.0045 7.00058C14.0045 3.69162 16.6968 1 20.0067 1C23.3165 1 26.0088 3.69162 26.0088 7.00058C26.0088 8.84281 25.5235 10.7889 24.567 12.7844C24.4475 13.0334 24.553 13.3315 24.8019 13.451C25.0509 13.5706 25.3491 13.4651 25.4687 13.2162C26.4899 11.0843 27.0075 8.99331 27.0075 7.00032C27.0075 3.13997 23.8665 0 20.0054 0C17.0627 0 14.5376 1.82393 13.5038 4.40179C12.4699 1.82552 9.94497 0 7.00216 0C3.1408 0 0 3.14022 0 7.00032C0 16.9988 12.6863 25.5575 13.2265 25.9176C13.3109 25.9738 13.4065 26.0019 13.5036 26.0019C13.6007 26.0019 13.6963 25.9738 13.7807 25.919C13.8046 25.9035 14.387 25.5154 15.3097 24.8038C15.5292 24.635 15.5686 24.3214 15.3998 24.102C15.231 23.8827 14.9159 23.8433 14.6979 24.012C14.1718 24.4171 13.7568 24.7166 13.5036 24.8952C11.6384 23.5775 0.999841 15.6783 0.999841 7.00324C0.999841 3.69428 3.69217 1.00266 7.002 1.00266C10.3118 1.00266 13.0042 3.69428 13.0042 7.00324L13.003 7.00058Z" fill="#D8A900"/>
<path id="Vector_2" d="M1.49957 6.99968C1.49957 7.27528 1.72323 7.50024 2.00033 7.50024C2.27603 7.50024 2.50108 7.27668 2.50108 6.99968C2.50108 4.51935 4.52103 2.50019 7.00234 2.50019C7.27804 2.50019 7.5031 2.27662 7.5031 1.99963C7.5031 1.72404 7.27944 1.49907 7.00234 1.49907C3.96821 1.49907 1.50109 3.96677 1.50109 6.99817L1.49957 6.99968Z" fill="#D8A900"/>
<path id="Vector_3" d="M26.0077 18.002C27.1105 18.002 28.0079 17.1048 28.0079 16.0023C28.0079 14.8998 27.1105 14.0026 26.0077 14.0026H18.0051C16.9023 14.0026 16.0049 14.8998 16.0049 16.0023C16.0049 17.1048 16.9023 18.002 18.0051 18.002H19.0053V18.5026C19.0053 18.7783 18.7816 19.0033 18.5045 19.0033H17.5044C16.6773 19.0033 16.0035 19.6755 16.0035 20.5038V31.5037C16.0035 32.3306 16.6759 33.0043 17.5044 33.0043H26.5069C27.334 33.0043 28.0078 32.3321 28.0078 31.5037V20.5038C28.0078 19.6769 27.3354 19.0033 26.5069 19.0033H25.5068C25.2311 19.0033 25.006 18.7783 25.006 18.5026V18.002H26.0077ZM17.0051 16.0009C17.0051 15.4496 17.4539 15.001 18.0053 15.001H26.0078C26.5592 15.001 27.0079 15.4496 27.0079 16.0009C27.0079 16.5521 26.5592 17.0007 26.0078 17.0007H18.0053C17.4539 17.0007 17.0051 16.5521 17.0051 16.0009ZM25.5068 20.0016H26.5069C26.7826 20.0016 27.0076 20.2266 27.0076 20.5023V31.5022C27.0076 31.7779 26.784 32.0029 26.5069 32.0029H17.5044C17.2287 32.0029 17.0036 31.7779 17.0036 31.5022V20.5023C17.0036 20.2266 17.2273 20.0016 17.5044 20.0016H18.5045C19.3316 20.0016 20.0054 19.3294 20.0054 18.5011V18.0005H24.0057V18.5011C24.0057 19.328 24.6782 20.0016 25.5068 20.0016Z" fill="#D8A900"/>
<path id="Vector_4" d="M23.5064 23.5018C23.5064 22.6749 22.834 22.0013 22.0055 22.0013C21.1784 22.0013 20.5046 22.6735 20.5046 23.5018V24.5017H19.5045C18.6774 24.5017 18.0036 25.1739 18.0036 26.0022C18.0036 26.8291 18.676 27.5027 19.5045 27.5027H20.5046V28.5025C20.5046 29.3294 21.177 30.003 22.0055 30.003C22.8326 30.003 23.5064 29.3308 23.5064 28.5025V27.5027H24.5065C25.3336 27.5027 26.0074 26.8305 26.0074 26.0022C26.0074 25.1753 25.335 24.5017 24.5065 24.5017H23.5064V23.5018ZM24.5065 25.5015C24.7822 25.5015 25.0073 25.7265 25.0073 26.0022C25.0073 26.2778 24.7836 26.5028 24.5065 26.5028H23.0056C22.7285 26.5028 22.5049 26.7264 22.5049 27.0034V28.5039C22.5049 28.7795 22.2812 29.0045 22.0041 29.0045C21.7284 29.0045 21.5034 28.7795 21.5034 28.5039V27.0034C21.5034 26.7278 21.2797 26.5028 21.0026 26.5028H19.5017C19.226 26.5028 19.001 26.2778 19.001 26.0022C19.001 25.7265 19.2246 25.5015 19.5017 25.5015H21.0026C21.2797 25.5015 21.5034 25.2779 21.5034 25.0009V23.5004C21.5034 23.2248 21.727 22.9998 22.0041 22.9998C22.2798 22.9998 22.5049 23.2248 22.5049 23.5004V25.0009C22.5049 25.2765 22.7285 25.5015 23.0056 25.5015H24.5065Z" fill="#D8A900"/>
<path id="Vector_5" d="M31.6918 25.3173C30.9829 24.61 30.0503 24.1557 29.0656 24.039C28.7885 24.0053 28.5424 24.2036 28.51 24.4778C28.4776 24.752 28.6746 25.0009 28.9474 25.0333C29.5551 25.105 30.1164 25.337 30.6002 25.7013L28.9024 27.3986C28.7069 27.5941 28.7069 27.9105 28.9024 28.106C28.9995 28.203 29.1275 28.2522 29.2555 28.2522C29.3835 28.2522 29.5115 28.203 29.6086 28.106L31.3064 26.4086C32.3276 27.7797 32.2221 29.7345 30.9814 30.9789C30.3892 31.5709 29.6029 31.9295 28.7688 31.9886C28.4931 32.0083 28.2863 32.2474 28.3046 32.523C28.3229 32.786 28.5423 32.9885 28.8025 32.9885C28.8138 32.9885 28.8264 32.9885 28.8377 32.9871C29.9124 32.9111 30.9238 32.4499 31.6876 31.6863C33.4374 29.9312 33.4374 27.075 31.6876 25.3185L31.6918 25.3173Z" fill="#D8A900"/>
</g>
</svg>
