<svg width="25" height="28" viewBox="0 0 25 28" fill="none" xmlns="http://www.w3.org/2000/svg">
<g id="Group">
<g id="Group_2">
<g id="Group_3">
<path id="Vector" d="M7.67072 12.1871H4.97186C4.68777 12.1871 4.46049 12.4143 4.46049 12.6984C4.46049 12.9825 4.68777 13.2098 4.97186 13.2098H7.67072C7.95481 13.2098 8.18209 12.9825 8.18209 12.6984C8.18209 12.4143 7.95481 12.1871 7.67072 12.1871Z" fill="#FF6159"/>
<path id="Vector_2" d="M13.8636 12.1871H11.1647C10.8807 12.1871 10.6534 12.4143 10.6534 12.6984C10.6534 12.9825 10.8807 13.2098 11.1647 13.2098H13.8636C14.1477 13.2098 14.375 12.9825 14.375 12.6984C14.4034 12.4143 14.1477 12.1871 13.8636 12.1871Z" fill="#FF6159"/>
<path id="Vector_3" d="M20.0852 12.1871H17.3863C17.1022 12.1871 16.875 12.4143 16.875 12.6984C16.875 12.9825 17.1022 13.2098 17.3863 13.2098H20.0852C20.3693 13.2098 20.5966 12.9825 20.5966 12.6984C20.5966 12.4143 20.3693 12.1871 20.0852 12.1871Z" fill="#FF6159"/>
<path id="Vector_4" d="M7.67072 16.7896H4.97186C4.68777 16.7896 4.46049 17.0169 4.46049 17.301C4.46049 17.5851 4.68777 17.8123 4.97186 17.8123H7.67072C7.95481 17.8123 8.18209 17.5851 8.18209 17.301C8.18209 17.0169 7.95481 16.7896 7.67072 16.7896Z" fill="#FF6159"/>
<path id="Vector_5" d="M13.8636 16.7896H11.1647C10.8807 16.7896 10.6534 17.0169 10.6534 17.301C10.6534 17.5851 10.8807 17.8123 11.1647 17.8123H13.8636C14.1477 17.8123 14.375 17.5851 14.375 17.301C14.375 17.0169 14.1477 16.7896 13.8636 16.7896Z" fill="#FF6159"/>
<path id="Vector_6" d="M20.0852 16.7896H17.3863C17.1022 16.7896 16.875 17.0169 16.875 17.301C16.875 17.5851 17.1022 17.8123 17.3863 17.8123H20.0852C20.3693 17.8123 20.5966 17.5851 20.5966 17.301C20.5966 17.0169 20.3693 16.7896 20.0852 16.7896Z" fill="#FF6159"/>
<path id="Vector_7" d="M7.67072 21.4201H4.97186C4.68777 21.4201 4.46049 21.6474 4.46049 21.9315C4.46049 22.2155 4.68777 22.4428 4.97186 22.4428H7.67072C7.95481 22.4428 8.18209 22.2155 8.18209 21.9315C8.18209 21.6474 7.95481 21.4201 7.67072 21.4201Z" fill="#FF6159"/>
<path id="Vector_8" d="M13.8636 21.4201H11.1647C10.8807 21.4201 10.6534 21.6474 10.6534 21.9315C10.6534 22.2155 10.8807 22.4428 11.1647 22.4428H13.8636C14.1477 22.4428 14.375 22.2155 14.375 21.9315C14.375 21.6474 14.1477 21.4201 13.8636 21.4201Z" fill="#FF6159"/>
<path id="Vector_9" d="M25 8.18182V5.14205C25 3.69318 23.8352 2.52841 22.3864 2.52841H20.625V1.90341C20.625 0.852273 19.7727 0 18.7216 0C17.6705 0 16.8182 0.852273 16.8182 1.90341V2.55682H14.4034V1.90341C14.4034 0.852273 13.5511 0 12.5 0C11.4489 0 10.5966 0.852273 10.5966 1.90341V2.55682H8.18182V1.90341C8.18182 0.852273 7.32955 0 6.27841 0C5.22727 0 4.375 0.852273 4.375 1.90341V2.55682H2.61364C1.16477 2.55682 0 3.72159 0 5.17045V24.4034C0 25.8523 1.16477 27.017 2.61364 27.017H22.3864C23.8352 27.017 25 25.8523 25 24.4034V8.18182ZM17.8693 1.90341C17.8693 1.42045 18.267 1.05114 18.7216 1.05114C19.2045 1.05114 19.5739 1.44886 19.5739 1.90341V4.26136C19.5739 4.74432 19.1761 5.11364 18.7216 5.11364C18.2386 5.11364 17.8693 4.71591 17.8693 4.26136V1.90341ZM11.6761 1.90341C11.6761 1.42045 12.0739 1.05114 12.5284 1.05114C12.983 1.05114 13.3807 1.44886 13.3807 1.90341V4.26136C13.3807 4.74432 12.983 5.11364 12.5284 5.11364C12.0739 5.11364 11.6761 4.71591 11.6761 4.26136V1.90341ZM5.45455 1.90341C5.45455 1.42045 5.85227 1.05114 6.30682 1.05114C6.78977 1.05114 7.15909 1.44886 7.15909 1.90341V4.26136C7.15909 4.74432 6.76136 5.11364 6.30682 5.11364C5.82386 5.11364 5.45455 4.71591 5.45455 4.26136V1.90341ZM2.64205 3.60795H4.40341V4.26136C4.40341 5.3125 5.25568 6.16477 6.30682 6.16477C7.35795 6.16477 8.21023 5.3125 8.21023 4.26136V3.60795H10.625V4.26136C10.625 5.3125 11.4773 6.16477 12.5284 6.16477C13.5795 6.16477 14.4318 5.3125 14.4318 4.26136V3.60795H16.8466V4.26136C16.8466 5.3125 17.6989 6.16477 18.75 6.16477C19.8011 6.16477 20.6534 5.3125 20.6534 4.26136V3.60795H22.4148C23.267 3.60795 23.9773 4.31818 23.9773 5.17045V7.67045H1.07955V5.17045C1.07955 4.31818 1.78977 3.60795 2.64205 3.60795ZM22.4148 25.9375H2.64205C1.78977 25.9375 1.07955 25.2273 1.07955 24.375V8.69318H23.9489V24.375C23.9773 25.2557 23.267 25.9375 22.4148 25.9375Z" fill="#FF6159"/>
</g>
</g>
</g>
</svg>
