<svg width="32" height="32" viewBox="0 0 32 32" fill="none" xmlns="http://www.w3.org/2000/svg">
<g id="Group">
<path id="Vector" d="M8.52672 22.1891C8.52672 21.855 8.25896 21.5548 7.89195 21.5548H5.21697V18.481C5.21697 18.1468 4.94921 17.8466 4.58219 17.8466C4.21385 17.8466 3.94742 18.1142 3.94742 18.481V21.5548L1.27114 21.5535V19.6492C1.27114 15.2048 4.8827 11.5957 9.33018 11.5957C11.4696 11.5957 13.5098 12.4311 15.0811 14.0013C15.3149 14.2349 15.7158 14.2023 15.951 13.9673C16.1848 13.7337 16.1848 13.2991 15.917 13.0654C14.8473 11.9965 13.5764 11.2616 12.2048 10.793C13.9433 9.7906 15.1136 7.91889 15.1136 5.78094C15.1136 2.60662 12.5052 0 9.32859 0C6.15199 0 3.54361 2.60655 3.54361 5.78094C3.54361 7.91889 4.71392 9.7906 6.45239 10.793C2.70909 12.0304 0 15.5388 0 19.649V22.1551C0 22.4892 0.267759 22.7894 0.634773 22.7894H7.92443C8.2588 22.7907 8.52672 22.5233 8.52672 22.1891ZM4.78208 5.81631C4.78208 3.31027 6.82229 1.30544 9.29611 1.30544C11.7699 1.30544 13.8101 3.34422 13.8101 5.81631C13.8101 8.2884 11.7699 10.3272 9.29611 10.3272C6.82099 10.3272 4.78208 8.2884 4.78208 5.81631Z" fill="#F23CFF"/>
<path id="Vector_2" d="M31.5643 11.1625L26.5829 6.15045C26.3491 5.91681 25.9481 5.91681 25.6803 6.15045C25.4465 6.38408 25.4465 6.78478 25.6803 7.01974L26.7174 8.05611L23.273 11.4967L20.6986 8.92413C20.4648 8.6905 20.0639 8.6905 19.7961 8.92413C19.5623 9.15777 19.5623 9.55846 19.7961 9.79343L20.8998 10.8964L10.5342 21.2547C10.0667 21.7219 9.79889 22.3576 9.79889 23.0259C9.79889 23.3939 9.8655 23.7281 10.0327 24.0622L9.13015 24.9641C8.76181 25.3322 8.59462 25.7995 8.59462 26.3007C8.59462 26.8019 8.79576 27.2692 9.13015 27.6372L9.16411 27.6712L6.12078 30.7124C5.88698 30.946 5.88698 31.3467 6.12078 31.5817C6.25401 31.7148 6.38854 31.7487 6.55574 31.7487C6.72293 31.7487 6.89011 31.6822 6.99069 31.5817L10.034 28.5405L10.068 28.5744C10.4363 28.9425 10.9039 29.1096 11.4055 29.1096C11.907 29.1096 12.3746 28.9086 12.743 28.5744L13.6455 27.6725C13.9799 27.8056 14.3142 27.9061 14.6826 27.9061C15.3174 27.9061 15.9861 27.6725 16.455 27.1713L26.8206 16.813L27.9204 17.912C28.0536 18.0451 28.1881 18.0791 28.3553 18.0791C28.5225 18.0791 28.6897 18.0125 28.7903 17.912C29.0241 17.6784 29.0241 17.2777 28.7903 17.0427L27.2516 15.4725L26.2145 14.4362L29.6589 10.9942L30.696 12.0306C30.8292 12.1637 30.9637 12.1976 31.1309 12.1976C31.2981 12.1976 31.4653 12.1311 31.5659 12.0306C31.7997 11.7969 31.7994 11.3962 31.5643 11.1625ZM10.9339 27.7024L9.99737 26.7665C9.86415 26.6334 9.83019 26.499 9.83019 26.3319C9.83019 26.1648 9.8968 25.9978 9.99737 25.8972L10.7993 25.0959L12.6044 26.8997L11.8024 27.7011C11.6026 27.936 11.1677 27.936 10.9339 27.7024ZM24.3753 17.4447L23.205 16.2752C22.9712 16.0416 22.5702 16.0416 22.3025 16.2752C22.0687 16.5088 22.0687 16.9095 22.3025 17.1445L23.4728 18.314L21.9341 19.8515L20.7638 18.6821C20.53 18.4484 20.1291 18.4484 19.8613 18.6821C19.6275 18.9157 19.6275 19.3164 19.8613 19.5514L21.0316 20.7208L19.4929 22.2584L18.3226 21.0889C18.0888 20.8553 17.6879 20.8553 17.4201 21.0889C17.1863 21.3226 17.1863 21.7233 17.4201 21.9582L18.5904 23.1277L17.0518 24.6653L15.8815 23.4958C15.6477 23.2622 15.2467 23.2622 14.9789 23.4958C14.7451 23.7294 14.7451 24.1301 14.9789 24.3651L16.1492 25.5346L15.5484 26.2655C15.0468 26.7667 14.2449 26.7667 13.7759 26.2655L11.4693 23.9605C11.2355 23.7268 11.101 23.3927 11.101 23.0586C11.101 22.7244 11.2342 22.3903 11.4693 22.1567L21.8349 11.7984L25.9139 15.9073L24.3753 17.4447ZM25.3458 13.568L24.1755 12.3985L27.6198 8.95654L28.7901 10.126L25.3458 13.568Z" fill="#F23CFF"/>
</g>
</svg>
