<svg width="30" height="30" viewBox="0 0 30 30" fill="none" xmlns="http://www.w3.org/2000/svg">
<circle cx="14.5337" cy="14.5337" r="14.5337" fill="#109615"/>
<path d="M22.3134 12.1929C22.2252 11.9279 22.1811 11.5966 22.1591 11.2433C22.093 10.647 22.0489 10.0287 21.6742 9.52081C21.2996 9.01289 20.7266 8.76998 20.1756 8.52706C19.8671 8.39456 19.5585 8.26207 19.3382 8.0854C19.1178 7.93082 18.8974 7.6879 18.677 7.4229C18.3023 6.98124 17.8616 6.49541 17.2665 6.29666C16.6715 6.09791 16.0764 6.23041 15.5034 6.36291C14.8202 6.51749 14.2693 6.51749 13.564 6.36291C12.991 6.23041 12.396 6.09791 11.8009 6.29666C11.1838 6.49541 10.7651 6.98124 10.3905 7.4229C10.1701 7.6879 9.94968 7.90873 9.7293 8.0854C9.50891 8.26207 9.20037 8.37248 8.89183 8.52706C8.34086 8.76998 7.76786 9.01289 7.3932 9.52081C7.01854 10.0287 6.97447 10.647 6.90835 11.2433C6.86427 11.5966 6.84223 11.9058 6.75408 12.1929C6.66592 12.4579 6.51165 12.7229 6.33534 13.01C6.04884 13.5179 5.71826 14.0699 5.71826 14.7324C5.71826 15.3949 6.04884 15.947 6.33534 16.4549C6.51165 16.742 6.66592 17.007 6.75408 17.272C6.84223 17.537 6.88631 17.8683 6.90835 18.2216C6.97447 18.8178 7.01854 19.4362 7.3932 19.9441C7.76786 20.452 8.34086 20.6949 8.89183 20.9378C9.20037 21.0703 9.50891 21.2028 9.7293 21.3795C9.94968 21.5341 10.1701 21.777 10.3905 22.042C10.7651 22.4836 11.2059 22.9695 11.8009 23.1682C12.396 23.367 12.991 23.2345 13.564 23.102C14.2472 22.9474 14.7982 22.9474 15.5034 23.102C15.8781 23.1903 16.2527 23.2565 16.6274 23.2565C16.8478 23.2565 17.0461 23.2345 17.2665 23.1682C17.8836 22.9695 18.3023 22.4836 18.677 22.042C18.8974 21.777 19.1178 21.5561 19.3382 21.3795C19.5585 21.2028 19.8671 21.0924 20.1756 20.9378C20.7266 20.6949 21.2996 20.452 21.6742 19.9441C22.0489 19.4362 22.093 18.8178 22.1591 18.2216C22.2032 17.8683 22.2252 17.5591 22.3134 17.272C22.4015 17.007 22.5558 16.742 22.7321 16.4549C23.0186 15.947 23.3492 15.3949 23.3492 14.7324C23.3492 14.0699 23.0186 13.5179 22.7321 13.01C22.5558 12.7229 22.4015 12.4579 22.3134 12.1929ZM21.9387 15.9912C21.7624 16.3003 21.5641 16.6316 21.4539 16.9849C21.3437 17.3603 21.2996 17.7358 21.2555 18.1112C21.2114 18.597 21.1674 19.0828 20.947 19.392C20.7266 19.7012 20.2858 19.8999 19.823 20.0987C19.4704 20.2532 19.1178 20.4078 18.8092 20.6286C18.5007 20.8495 18.2583 21.1366 17.9938 21.4236C17.6632 21.7991 17.3547 22.1524 16.98 22.2849C16.6274 22.3953 16.1646 22.307 15.7018 22.1966C15.3271 22.1082 14.9304 22.0199 14.5337 22.0199C14.137 22.0199 13.7403 22.1082 13.3657 22.1966C12.8808 22.307 12.4401 22.3953 12.0874 22.2849C11.7128 22.1524 11.4042 21.7991 11.0737 21.4236C10.8312 21.1366 10.5668 20.8495 10.2582 20.6286C9.94968 20.4078 9.59706 20.2532 9.24445 20.0987C8.78163 19.8999 8.3629 19.7012 8.12048 19.392C7.90009 19.0828 7.85601 18.6191 7.81193 18.1112C7.76786 17.7358 7.74582 17.3383 7.61359 16.9849C7.50339 16.6316 7.30504 16.3003 7.12874 15.9912C6.86427 15.5495 6.62185 15.152 6.62185 14.7324C6.62185 14.3129 6.86427 13.9154 7.12874 13.4737C7.30504 13.1645 7.50339 12.8333 7.61359 12.48C7.72378 12.1045 7.76786 11.7291 7.81193 11.3537C7.85601 10.8679 7.90009 10.3821 8.12048 10.0729C8.34086 9.76372 8.78163 9.56497 9.24445 9.36623C9.59706 9.21164 9.94968 9.05706 10.2582 8.83623C10.5668 8.6154 10.8092 8.32832 11.0737 8.04123C11.4042 7.66582 11.7128 7.31249 12.0874 7.17999C12.4401 7.06957 12.9029 7.15791 13.3657 7.26832C14.115 7.4229 14.9304 7.4229 15.6797 7.26832C16.1646 7.15791 16.6054 7.06957 16.958 7.17999C17.3326 7.31249 17.6412 7.66582 17.9718 8.04123C18.2142 8.32832 18.4786 8.6154 18.7872 8.83623C19.0957 9.05706 19.4483 9.21164 19.801 9.36623C20.2638 9.56497 20.6825 9.76372 20.9249 10.0729C21.1453 10.3821 21.1894 10.8458 21.2335 11.3537C21.2776 11.7291 21.2996 12.1266 21.4318 12.48C21.542 12.8333 21.7404 13.1645 21.9167 13.4737C22.1811 13.9154 22.4236 14.3129 22.4236 14.7324C22.4236 15.152 22.2032 15.5495 21.9387 15.9912Z" fill="white"/>
<path d="M18.2143 11.8825L13.476 16.6304L10.8534 14.0246C10.6771 13.8479 10.3906 13.8479 10.2143 14.0246C10.038 14.2012 10.038 14.4883 10.2143 14.665L13.1454 17.602C13.2336 17.6904 13.3438 17.7345 13.4539 17.7345C13.5641 17.7345 13.6964 17.6904 13.7625 17.602L18.8314 12.5229C19.0077 12.3462 19.0077 12.0592 18.8314 11.8825C18.6771 11.7058 18.3906 11.7058 18.2143 11.8825Z" fill="white"/>
</svg>
