<svg width="179" height="59" viewBox="0 0 179 59" fill="none" xmlns="http://www.w3.org/2000/svg">
<path d="M19.4656 23H17.0356L6.41559 12.35V23H0.505586V0.499998H2.90559L13.5556 11.12V0.499998H19.4656V23ZM23.9717 23V0.499998H29.8817V23H23.9717ZM45.2921 10.91H56.5421V11.75C56.5421 17.96 51.5021 23 45.2921 23C39.0821 23 34.0721 17.96 34.0721 11.75C34.0721 5.54 39.0821 0.499998 45.2921 0.499998C48.3821 0.499998 51.1721 1.76 53.2121 3.77L49.0421 7.91C48.0821 7.01 46.8221 6.41 45.2921 6.41C42.4721 6.41 39.9821 8.66 39.9821 11.75C39.9821 14.84 42.5321 17.09 45.2921 17.09C47.0621 17.09 48.7121 16.22 49.6421 14.87H45.2921V10.91ZM59.7732 23V0.499998H73.7532V5.39H65.6832V9.05H72.8232V14.03H65.6832V18.17H73.7532V23H59.7732ZM77.5458 11.78C77.5458 5.57 82.5558 0.499998 88.7658 0.499998C94.9758 0.499998 100.016 5.57 100.016 11.78C100.016 17.99 94.9758 23 88.7658 23C82.5558 23 77.5458 17.99 77.5458 11.78ZM94.1358 11.75C94.1358 8.78 91.7358 6.38 88.7658 6.38C85.8258 6.38 83.4258 8.78 83.4258 11.75C83.4258 14.69 85.8258 17.12 88.7658 17.12C91.7358 17.12 94.1358 14.69 94.1358 11.75ZM117.629 7.4H112.409C112.409 6.47 111.629 5.69 110.699 5.69C109.769 5.69 109.019 6.47 109.019 7.4C109.019 8.33 109.769 9.08 110.699 9.08C112.889 9.08 114.869 10.13 116.129 11.75C117.089 12.95 117.629 14.45 117.629 16.1C117.629 19.94 114.539 23 110.699 23C106.859 23 103.769 19.97 103.769 16.01H109.019C109.019 16.97 109.769 17.72 110.699 17.72C111.629 17.72 112.409 16.97 112.409 16.04C112.409 15.11 111.629 14.33 110.699 14.33C106.859 14.33 103.799 11.27 103.799 7.43C103.799 3.59 106.859 0.499998 110.699 0.499998C114.539 0.499998 117.629 3.56 117.629 7.4ZM125.648 23H119.738L130.238 0.499998H132.908L143.498 23H137.588L136.208 20.06H126.998L125.648 23ZM131.618 10.13L129.308 15.08H133.898L131.618 10.13ZM146.492 23V0.499998H160.592V5.36H152.402V9.02H159.632V14.03H152.402V23H146.492ZM164.832 23V0.499998H178.812V5.39H170.742V9.05H177.882V14.03H170.742V18.17H178.812V23H164.832ZM35.4393 39.77L31.2993 43.94C30.3693 43.01 29.0493 42.47 27.5193 42.47C24.4593 42.47 22.2393 44.69 22.2393 47.75C22.2393 50.81 24.4593 53.03 27.5193 53.03C29.0493 53.03 30.3693 52.49 31.2993 51.53L35.4993 55.67C33.4593 57.71 30.6393 59 27.5193 59C21.3093 59 16.2693 53.96 16.2693 47.75C16.2693 41.54 21.3093 36.5 27.5193 36.5C30.6093 36.5 33.3993 37.73 35.4393 39.77ZM39.123 47.78C39.123 41.57 44.133 36.5 50.343 36.5C56.553 36.5 61.593 41.57 61.593 47.78C61.593 53.99 56.553 59 50.343 59C44.133 59 39.123 53.99 39.123 47.78ZM55.713 47.75C55.713 44.78 53.313 42.38 50.343 42.38C47.403 42.38 45.003 44.78 45.003 47.75C45.003 50.69 47.403 53.12 50.343 53.12C53.313 53.12 55.713 50.69 55.713 47.75ZM84.6658 59H82.2358L71.6158 48.35V59H65.7058V36.5H68.1058L78.7558 47.12V36.5H84.6658V59ZM102.702 43.4H97.4819C97.4819 42.47 96.7019 41.69 95.7719 41.69C94.8419 41.69 94.0919 42.47 94.0919 43.4C94.0919 44.33 94.8419 45.08 95.7719 45.08C97.9619 45.08 99.9419 46.13 101.202 47.75C102.162 48.95 102.702 50.45 102.702 52.1C102.702 55.94 99.6119 59 95.7719 59C91.9319 59 88.8419 55.97 88.8419 52.01H94.0919C94.0919 52.97 94.8419 53.72 95.7719 53.72C96.7019 53.72 97.4819 52.97 97.4819 52.04C97.4819 51.11 96.7019 50.33 95.7719 50.33C91.9319 50.33 88.8719 47.27 88.8719 43.43C88.8719 39.59 91.9319 36.5 95.7719 36.5C99.6119 36.5 102.702 39.56 102.702 43.4ZM112.807 36.5V50.03C112.807 51.65 114.127 52.97 115.747 52.97C117.367 52.97 118.687 51.65 118.687 50.03V36.5H124.627V50.12C124.627 55.07 120.637 59 115.747 59C110.797 59 106.867 55.07 106.867 50.12V36.5H112.807ZM129.134 59V36.5H135.044V53.06H143.144V59H129.134ZM144.943 42.35V36.47H162.673V42.35H156.703V59H150.793V42.35H144.943Z" fill="white"/>
</svg>
