<svg width="24" height="30" viewBox="0 0 24 30" fill="none" xmlns="http://www.w3.org/2000/svg">
<path d="M15.1168 6.55886H15.5093V6.94901C15.5093 7.38065 15.8625 7.73193 16.2968 7.73193C16.7312 7.73193 17.0844 7.38065 17.0844 6.94901V6.55886H17.4769C17.9112 6.55886 18.2644 6.20758 18.2644 5.77594C18.2644 5.34415 17.9112 4.99287 17.4769 4.99287H17.0844V4.60286C17.0844 4.17107 16.7312 3.81979 16.2968 3.81979C15.8625 3.81979 15.5093 4.17107 15.5093 4.60286V4.99287H15.1168C14.0783 5.01985 14.0786 6.53202 15.1168 6.55886ZM15.1168 5.58916H15.8092C15.975 5.58916 16.1091 5.45566 16.1091 5.29101V4.60286C16.1103 4.35944 16.4832 4.35814 16.4846 4.60287C16.4846 4.60286 16.4846 5.29101 16.4846 5.29101C16.4846 5.45566 16.6187 5.58916 16.7845 5.58916H17.4769C17.7215 5.59037 17.7229 5.96128 17.4769 5.96257C17.4769 5.96257 16.7845 5.96257 16.7845 5.96257C16.6187 5.96257 16.4846 6.09606 16.4846 6.26071V6.94901C16.4834 7.19226 16.1104 7.19356 16.1091 6.949C16.1091 6.94901 16.1091 6.26071 16.1091 6.26071C16.1091 6.09606 15.975 5.96257 15.8092 5.96257H15.1168C14.8721 5.96141 14.8709 5.59051 15.1168 5.58916ZM13.6333 22.182H12.8156V21.3693C12.8156 20.7733 12.328 20.2886 11.7284 20.2886C11.1289 20.2886 10.6412 20.7733 10.6412 21.3693V22.182H9.82351C9.22398 22.182 8.73632 22.667 8.73632 23.263C8.73632 23.859 9.22398 24.3438 9.82351 24.3438H10.6412V25.1564C10.6412 25.7524 11.1289 26.2375 11.7284 26.2375C12.328 26.2375 12.8156 25.7524 12.8156 25.1564V24.3438H13.6333C15.0672 24.3066 15.0664 22.2191 13.6333 22.182ZM13.6333 23.7475H12.5157C12.3499 23.7475 12.2158 23.8809 12.2158 24.0457V25.1564C12.2048 25.7924 11.2525 25.7944 11.2411 25.1564C11.2411 25.1564 11.2411 24.0457 11.2411 24.0457C11.2411 23.8809 11.1069 23.7475 10.9412 23.7475H9.82351C9.55464 23.7475 9.33615 23.5303 9.33615 23.263C9.33615 22.9957 9.55464 22.7782 9.82351 22.7782C11.5043 22.7595 11.2191 23.0294 11.2411 21.3693C11.2411 21.1021 11.4596 20.8848 11.7284 20.8848C11.9973 20.8848 12.2158 21.1021 12.2158 21.3693V22.4801C12.2158 22.6449 12.3499 22.7782 12.5157 22.7782H13.6333C14.2726 22.7892 14.2748 23.7363 13.6333 23.7475ZM9.20814 9.1789C9.81341 8.34024 9.13914 7.09089 8.09927 7.11936C7.06104 7.09085 6.38681 8.34105 6.99231 9.1789C6.61555 9.47903 6.38358 9.93671 6.38358 10.4291V11.5462C6.38358 11.7109 6.51773 11.8444 6.6835 11.8444H9.51686C9.68263 11.8444 9.81677 11.7109 9.81677 11.5462V10.4291C9.81677 9.93651 9.58483 9.47894 9.20814 9.1789ZM8.0993 7.71563C9.30568 7.79899 8.89309 9.55893 7.77291 9.10073C7.08105 8.78146 7.33678 7.70209 8.0993 7.71563ZM9.21695 11.2481H6.98341V10.4291C6.98341 10.0932 7.15328 9.7811 7.42684 9.59593C7.83977 9.8321 8.36058 9.83183 8.77352 9.59593C9.04707 9.78096 9.21695 10.0931 9.21695 10.4291V11.2481ZM22.1205 12.0536H21.4963C21.4967 12.0534 23.3688 6.24625 23.3694 6.24602C23.5088 5.80622 23.2651 5.33614 22.8267 5.19857L20.2909 4.39133V3.08535C20.2909 2.62502 19.9154 2.2506 19.4541 2.2506H13.5807L8.11775 0.50918C7.6901 0.360166 7.1879 0.619116 7.06103 1.0506C7.06103 1.05059 6.67493 2.2506 6.67493 2.2506C6.60774 2.25202 5.92359 2.23771 5.8815 2.26933C5.82643 2.23102 4.98146 3.13309 4.92778 3.17026C4.92779 3.17027 3.25412 4.83593 3.25412 4.83593C3.22832 4.86157 3.20991 4.89176 3.1953 4.92352C3.13988 4.9778 3.17528 5.90094 3.16596 5.98612L1.06364 6.37572C0.850416 6.41444 0.665606 6.53382 0.542888 6.71172C0.418998 6.89151 0.373601 7.10915 0.414604 7.323L1.31447 12.1182C0.782979 12.2805 0.400546 12.7654 0.400546 13.3475V27.9507C0.400546 28.664 0.984557 29.2446 1.70242 29.2446H22.1205C22.8381 29.2446 23.4221 28.664 23.4221 27.9507V13.3475C23.4221 12.634 22.8381 12.0536 22.1205 12.0536ZM20.2909 5.01732L22.6448 5.76676C22.771 5.80636 22.8378 5.93767 22.7974 6.06593L20.3105 13.7783L20.2909 13.8391V5.01732ZM7.63244 1.23125C7.66902 1.10753 7.81034 1.0337 7.93294 1.0765C7.93294 1.0765 11.6163 2.2506 11.6163 2.2506H7.30471L7.63244 1.23125ZM5.67568 3.26959V4.5094C5.67568 4.64115 5.5679 4.74844 5.43523 4.74844H4.18994L5.67568 3.26959ZM3.76579 5.34473H5.43523C5.89857 5.34473 6.27551 4.97001 6.27551 4.5094V2.84689H19.4541C19.5848 2.84689 19.6911 2.95389 19.6911 3.08535V17.1458H12.4721C12.2316 17.1458 12.002 17.0162 11.8734 16.8089L10.5455 14.6424C10.3082 14.2517 9.89263 14.0183 9.43397 14.0183H3.76579V5.34473ZM1.00418 7.21236C0.980169 7.09941 1.05686 6.98106 1.17259 6.96211C1.17259 6.96211 3.16596 6.59263 3.16596 6.59263V14.0183H2.28117L2.2722 13.9706L1.00418 7.21236ZM1.00037 13.3475C1.00037 13.0587 1.17376 12.8122 1.42418 12.7068L1.67108 14.0188C1.43387 14.0271 1.20072 14.0986 1.00037 14.223V13.3475ZM22.8223 27.9507C22.8223 28.3353 22.5074 28.6483 22.1205 28.6483H1.70242C1.31522 28.6483 1.00037 28.3353 1.00037 27.9507V15.3124C1.00037 14.9276 1.31522 14.6146 1.70242 14.6146H9.43397C9.68058 14.6146 9.90435 14.7403 10.0329 14.9518L11.362 17.1205C11.5999 17.5039 12.0251 17.7421 12.4721 17.7421H22.1205C22.5074 17.7421 22.8223 18.0551 22.8223 18.44V27.9507ZM22.8223 17.3505C22.6132 17.2201 22.3685 17.1495 22.1205 17.1458C22.1205 17.1458 20.2909 17.1458 20.2909 17.1458V15.7914L20.3176 15.7086L21.3046 12.6499H22.1205C22.5074 12.6499 22.8223 12.9629 22.8223 13.3475V17.3505ZM11.5234 12.0385V6.92514C11.5234 6.45856 11.1415 6.07889 10.672 6.07889H5.52836C5.05887 6.07889 4.67695 6.45856 4.67695 6.92514V12.0385C4.67695 12.5052 5.05887 12.8848 5.52836 12.8848H10.672C11.1415 12.8848 11.5234 12.5052 11.5234 12.0385ZM5.27678 12.0385V6.92514C5.27678 6.78727 5.38954 6.67518 5.52836 6.67518H10.672C10.8108 6.67518 10.9236 6.78727 10.9236 6.92514V12.0385C10.9236 12.1763 10.8108 12.2886 10.672 12.2886H5.52836C5.38954 12.2886 5.27678 12.1763 5.27678 12.0385ZM12.3025 7.41748C12.3025 7.25283 12.4366 7.11934 12.6024 7.11934H14.0686C14.2343 7.11934 14.3685 7.25283 14.3685 7.41748C14.3685 7.58213 14.2343 7.71563 14.0686 7.71563H12.6024C12.4366 7.71563 12.3025 7.58213 12.3025 7.41748ZM12.3025 9.23518C12.3025 9.07053 12.4366 8.93704 12.6024 8.93704H17.9645C18.1303 8.93704 18.2644 9.07053 18.2644 9.23518C18.2644 9.39983 18.1303 9.53333 17.9645 9.53333H12.6024C12.4366 9.53333 12.3025 9.39983 12.3025 9.23518ZM12.3025 10.998C12.3025 10.8333 12.4366 10.6999 12.6024 10.6999H17.9645C18.1303 10.6999 18.2644 10.8333 18.2644 10.998C18.2644 11.1626 18.1303 11.2961 17.9645 11.2961H12.6024C12.4366 11.2961 12.3025 11.1626 12.3025 10.998ZM12.3025 12.8535C12.3025 12.6889 12.4366 12.5554 12.6024 12.5554H17.9645C18.1303 12.5554 18.2644 12.6889 18.2644 12.8535C18.2644 13.0182 18.1303 13.1517 17.9645 13.1517H12.6024C12.4366 13.1517 12.3025 13.0182 12.3025 12.8535ZM12.3025 14.7091C12.3025 14.5444 12.4366 14.411 12.6024 14.411H17.9645C18.1303 14.411 18.2644 14.5444 18.2644 14.7091C18.2644 14.8737 18.1303 15.0072 17.9645 15.0072H12.6024C12.4366 15.0072 12.3025 14.8737 12.3025 14.7091Z" fill="#9A9A9A"/>
</svg>
