<svg width="24" height="24" viewBox="0 0 24 24" fill="none" xmlns="http://www.w3.org/2000/svg">
<g id="notification-03">
<path id="Vector" d="M2.52954 14.3935C2.31689 15.7466 3.26762 16.6857 4.43167 17.1537C8.89443 18.9481 15.1048 18.9481 19.5675 17.1537C20.7316 16.6857 21.6823 15.7466 21.4697 14.3935C21.339 13.562 20.6928 12.8696 20.214 12.1935C19.5869 11.297 19.5246 10.3192 19.5245 9.27889C19.5245 5.25858 16.1555 1.99948 11.9996 1.99948C7.84375 1.99948 4.47475 5.25858 4.47475 9.27889C4.47465 10.3192 4.41234 11.297 3.78523 12.1935C3.30646 12.8696 2.66023 13.562 2.52954 14.3935Z" stroke="white" stroke-width="1.125" stroke-linecap="round" stroke-linejoin="round"/>
<path id="Vector_2" d="M9.00034 21C9.79647 21.6219 10.8478 22 12.0003 22C13.1528 22 14.2042 21.6219 15.0003 21" stroke="white" stroke-width="1.125" stroke-linecap="round" stroke-linejoin="round"/>
</g>
</svg>
