<svg width="22" height="28" viewBox="0 0 22 28" fill="none" xmlns="http://www.w3.org/2000/svg">
<g id="Group">
<path id="Vector" d="M20.2203 2.97745C20.2591 3.02161 20.3153 3.0468 20.374 3.0468C20.4334 3.0468 20.489 3.02161 20.5283 2.97745L21.9495 1.55076C22.0032 1.49013 22.0164 1.4043 21.9832 1.3306C21.9495 1.25753 21.8758 1.21026 21.7949 1.21026H21.2855V0.204613C21.2858 0.0914226 21.1943 0 21.0806 0H19.6678C19.5541 0 19.4623 0.0914226 19.4623 0.204613V1.21026H18.9531C18.8722 1.21026 18.7985 1.25753 18.7654 1.3306C18.732 1.4043 18.7457 1.49013 18.7992 1.55076L20.2203 2.97745Z" fill="#109615"/>
<path id="Vector_2" d="M13.3972 12.7129C12.8096 12.0608 12.2293 11.3322 11.7067 10.6767C11.4603 10.367 11.2245 10.0716 11.0039 9.80324L10.9877 9.78365C11.3107 8.86787 11.4953 8.11845 11.5365 7.55561C11.6411 6.12177 11.4803 5.19821 11.0452 4.7327C10.7512 4.4177 10.3099 4.30793 9.89479 4.44693C9.59743 4.54613 9.19481 4.812 8.96461 5.51415C8.62165 6.56085 8.78782 8.41449 9.76297 9.94753C9.32787 11.0819 8.72129 12.3855 8.0513 13.6265C6.77535 14.0718 5.75834 14.6573 5.02838 15.3676C4.07478 16.2942 3.68715 17.2141 3.96452 17.8907C4.13537 18.3099 4.5305 18.5599 5.0212 18.5599C5.36291 18.5599 5.73242 18.4371 6.09006 18.2051C6.99306 17.6174 8.17218 15.6593 8.80469 14.5246C10.1131 14.1178 11.405 13.9515 12.0616 13.8883C12.3586 13.8597 12.6535 13.837 12.9374 13.8212C14.0865 15.0293 15.0264 15.6664 15.8922 15.8253C16.0665 15.8577 16.2408 15.8738 16.411 15.8738C17.1166 15.8738 17.6998 15.5937 17.9718 15.1244C18.177 14.7699 18.173 14.3563 17.9603 13.9894C17.4799 13.1613 16.03 12.7054 13.8776 12.7054C13.7226 12.7058 13.5627 12.7079 13.3972 12.7129ZM5.49097 17.294C5.32011 17.405 5.14457 17.4712 5.02088 17.4712C4.99746 17.4712 4.98153 17.4687 4.97247 17.4666C4.95092 17.358 5.02838 16.8888 5.79207 16.1459C6.15065 15.797 6.60418 15.4786 7.14111 15.1969C6.46363 16.2821 5.85392 17.058 5.49097 17.294ZM10.0035 5.85216C10.0831 5.6093 10.1818 5.49954 10.2434 5.47901C10.2449 5.4787 10.2462 5.47808 10.2474 5.47777C10.3068 5.54431 10.5592 5.92462 10.4461 7.47756C10.4264 7.74841 10.3602 8.09078 10.2487 8.49751C9.88385 7.56214 9.78359 6.52291 10.0035 5.85216ZM11.956 12.8056C11.3744 12.8612 10.4886 12.976 9.50029 13.2089C9.88354 12.447 10.2384 11.6749 10.5348 10.9594C10.6376 11.0875 10.7428 11.219 10.8496 11.3537C11.2073 11.8024 11.609 12.3068 12.0253 12.7994L11.956 12.8056ZM17.0126 14.5339C17.0288 14.5619 17.0285 14.5731 17.0245 14.5805C16.9786 14.6598 16.7708 14.7858 16.4095 14.7858C16.3086 14.7858 16.2011 14.7755 16.0902 14.755C15.6392 14.672 15.1132 14.3616 14.4863 13.8081C16.1874 13.889 16.8749 14.2973 17.0126 14.5339Z" fill="#109615"/>
<path id="Vector_3" d="M15.7143 0H1.57112C0.704348 0 0 0.699352 0 1.56445V26.4221C0 27.2862 0.704348 27.9865 1.57112 27.9865H20.4286C21.2972 27.9865 21.9997 27.2862 21.9997 26.4221V6.25779L15.7143 0ZM15.7143 2.21187L19.7783 6.25779H15.7143V2.21187ZM20.4289 26.4221H1.57112V1.56445H14.1429V6.25779C14.1429 7.12195 14.8457 7.82223 15.714 7.82223H20.4286L20.4289 26.4221Z" fill="#109615"/>
<path id="Vector_4" d="M8.40308 20.0115C8.2747 19.8986 8.12071 19.8165 7.9458 19.7683C7.77307 19.7192 7.52569 19.6943 7.21053 19.6943H6.16447C5.9655 19.6943 5.81557 19.7397 5.71843 19.8302C5.62036 19.9216 5.57007 20.0697 5.57007 20.2696V23.3581C5.57007 23.5378 5.61473 23.6778 5.70282 23.7748C5.79246 23.8743 5.91178 23.925 6.05733 23.925C6.19664 23.925 6.31408 23.8743 6.40592 23.7741C6.49587 23.6759 6.54179 23.5341 6.54179 23.3528V22.2965H7.21053C7.72684 22.2965 8.12353 22.1842 8.38871 21.9625C8.65858 21.738 8.7957 21.4059 8.7957 20.9752C8.7957 20.7746 8.76259 20.5911 8.69669 20.4294C8.63047 20.2656 8.53177 20.1253 8.40308 20.0115ZM7.72715 21.3029C7.66874 21.3813 7.58535 21.4363 7.47165 21.4718C7.35077 21.5091 7.19678 21.5284 7.01312 21.5284H6.5421V20.4593H7.01312C7.43761 20.4593 7.60971 20.5436 7.67812 20.6123C7.76932 20.7093 7.81367 20.8334 7.81367 20.991C7.81367 21.121 7.78463 21.2258 7.72715 21.3029Z" fill="#109615"/>
<path id="Vector_5" d="M12.2685 20.0771C12.0989 19.9294 11.9071 19.8271 11.6984 19.7733C11.4954 19.7211 11.2493 19.6943 10.9678 19.6943H9.90554C9.70907 19.6943 9.56227 19.7413 9.46887 19.8346C9.37548 19.9279 9.328 20.074 9.328 20.2693V23.2073C9.328 23.345 9.34018 23.4554 9.36517 23.544C9.3936 23.6448 9.45482 23.7235 9.54696 23.7779C9.63473 23.8307 9.7578 23.8562 9.92209 23.8562H10.9844C11.1724 23.8562 11.3442 23.8441 11.4951 23.8199C11.6488 23.795 11.7946 23.7514 11.9283 23.6908C12.0632 23.6296 12.1888 23.5468 12.3028 23.4448C12.4456 23.3142 12.5646 23.164 12.6564 22.9977C12.7473 22.8319 12.8157 22.6438 12.8588 22.4392C12.9019 22.2364 12.9238 22.0091 12.9238 21.7644C12.9235 21.0156 12.7026 20.4478 12.2685 20.0771ZM11.5585 22.8873C11.5057 22.933 11.4423 22.9697 11.3698 22.9955C11.2939 23.0222 11.2202 23.0393 11.1499 23.0459C11.0759 23.0527 10.9713 23.0565 10.8388 23.0565H10.2991V20.4923H10.7592C11 20.4923 11.2065 20.5184 11.3733 20.5697C11.5291 20.617 11.6634 20.7317 11.7725 20.9114C11.8843 21.0952 11.9411 21.3804 11.9411 21.7594C11.9411 22.294 11.8127 22.673 11.5585 22.8873Z" fill="#109615"/>
<path id="Vector_6" d="M15.9651 19.6943H14.0435C13.9155 19.6943 13.8118 19.7133 13.7268 19.7522C13.6359 19.7932 13.5681 19.8601 13.525 19.9512C13.4851 20.0364 13.4657 20.1406 13.4657 20.2696V23.3525C13.4657 23.5381 13.5113 23.6809 13.6003 23.7766C13.6912 23.8749 13.8099 23.925 13.953 23.925C14.0932 23.925 14.211 23.8758 14.3028 23.7785C14.3921 23.6824 14.4374 23.5391 14.4374 23.3525V22.1102H15.7018C15.8433 22.1102 15.9542 22.0763 16.0307 22.0088C16.1104 21.9389 16.1507 21.8449 16.1507 21.7293C16.1507 21.6139 16.1113 21.5197 16.0332 21.4494C15.9573 21.3804 15.8458 21.3455 15.7018 21.3455H14.4374V20.4761H15.9654C16.115 20.4761 16.2303 20.4403 16.3081 20.3694C16.3877 20.2973 16.428 20.2012 16.428 20.084C16.428 19.9692 16.3877 19.8741 16.3078 19.8007C16.2291 19.7298 16.1141 19.6943 15.9651 19.6943Z" fill="#109615"/>
</g>
</svg>
