<svg width="52" height="52" viewBox="0 0 52 52" fill="none" xmlns="http://www.w3.org/2000/svg">
<g id="Group 9">
<circle id="Ellipse 3" cx="26" cy="26" r="26" fill="#FFEFB4"/>
<g id="Group">
<path id="Vector" d="M17.3368 11.5562C17.3368 11.8747 17.5953 12.1347 17.9155 12.1347C18.2341 12.1347 18.4942 11.8764 18.4942 11.5562C18.4942 7.73255 21.6053 4.62223 25.43 4.62223C29.2547 4.62223 32.3658 7.73255 32.3658 11.5562C32.3658 13.685 31.805 15.9339 30.6997 18.2398C30.5616 18.5274 30.6835 18.8719 30.9712 19.0101C31.2589 19.1482 31.6035 19.0263 31.7416 18.7387C32.9217 16.2752 33.5199 13.8589 33.5199 11.5559C33.5199 7.09509 29.8902 3.46667 25.4285 3.46667C22.028 3.46667 19.1102 5.57433 17.9155 8.55319C16.7208 5.57616 13.8031 3.46667 10.4025 3.46667C5.94052 3.46667 2.31116 7.09538 2.31116 11.5559C2.31116 23.1097 16.9709 32.9998 17.5951 33.4158C17.6926 33.4808 17.8032 33.5134 17.9153 33.5134C18.0275 33.5134 18.138 33.4809 18.2355 33.4175C18.2632 33.3996 18.9361 32.9511 20.0024 32.1288C20.256 31.9338 20.3015 31.5714 20.1064 31.3179C19.9114 31.0644 19.5473 31.0189 19.2953 31.2139C18.6874 31.6819 18.2079 32.0281 17.9153 32.2344C15.76 30.7118 3.46653 21.5838 3.46653 11.5593C3.46653 7.73562 6.57766 4.6253 10.4024 4.6253C14.227 4.6253 17.3382 7.73562 17.3382 11.5593L17.3368 11.5562Z" fill="#D8A900"/>
<path id="Vector_2" d="M4.04407 11.5552C4.04407 11.8736 4.30251 12.1336 4.62272 12.1336C4.94131 12.1336 5.20137 11.8753 5.20137 11.5552C5.20137 8.68901 7.53553 6.35576 10.4028 6.35576C10.7214 6.35576 10.9815 6.09742 10.9815 5.77734C10.9815 5.45888 10.723 5.19891 10.4028 5.19891C6.89671 5.19891 4.04582 8.05048 4.04582 11.5534L4.04407 11.5552Z" fill="#D8A900"/>
<path id="Vector_3" d="M32.3645 24.269C33.6388 24.269 34.6759 23.2322 34.6759 21.9582C34.6759 20.6842 33.6388 19.6474 32.3645 19.6474H23.1171C21.8427 19.6474 20.8057 20.6842 20.8057 21.9582C20.8057 23.2322 21.8427 24.269 23.1171 24.269H24.2728V24.8475C24.2728 25.166 24.0143 25.426 23.6941 25.426H22.5384C21.5827 25.426 20.8041 26.2028 20.8041 27.1599V39.871C20.8041 40.8265 21.581 41.6049 22.5384 41.6049H32.9414C33.8971 41.6049 34.6757 40.8281 34.6757 39.871V27.1599C34.6757 26.2044 33.8988 25.426 32.9414 25.426H31.7857C31.4671 25.426 31.207 25.166 31.207 24.8475V24.269H32.3645ZM21.9615 21.9566C21.9615 21.3196 22.4801 20.8012 23.1172 20.8012H32.3646C33.0017 20.8012 33.5203 21.3196 33.5203 21.9566C33.5203 22.5936 33.0017 23.1119 32.3646 23.1119H23.1172C22.4801 23.1119 21.9615 22.5936 21.9615 21.9566ZM31.7856 26.5797H32.9413C33.2599 26.5797 33.52 26.8397 33.52 27.1582V39.8692C33.52 40.1877 33.2615 40.4477 32.9413 40.4477H22.5384C22.2198 40.4477 21.9598 40.1877 21.9598 39.8692V27.1582C21.9598 26.8397 22.2182 26.5797 22.5384 26.5797H23.6941C24.6499 26.5797 25.4285 25.8029 25.4285 24.8457V24.2672H30.0511V24.8457C30.0511 25.8013 30.8282 26.5797 31.7856 26.5797Z" fill="#D8A900"/>
<path id="Vector_4" d="M29.4742 30.6244C29.4742 29.6688 28.6972 28.8904 27.7398 28.8904C26.784 28.8904 26.0054 29.6672 26.0054 30.6244V31.7797H24.8497C23.894 31.7797 23.1154 32.5565 23.1154 33.5136C23.1154 34.4692 23.8923 35.2476 24.8497 35.2476H26.0054V36.4029C26.0054 37.3585 26.7824 38.1369 27.7398 38.1369C28.6956 38.1369 29.4742 37.3601 29.4742 36.4029V35.2476H30.6298C31.5856 35.2476 32.3642 34.4708 32.3642 33.5136C32.3642 32.5581 31.5872 31.7797 30.6298 31.7797H29.4742V30.6244ZM30.6298 32.9352C30.9484 32.9352 31.2085 33.1952 31.2085 33.5136C31.2085 33.8321 30.95 34.0922 30.6298 34.0922H28.8955C28.5752 34.0922 28.3168 34.3505 28.3168 34.6707V36.4046C28.3168 36.7231 28.0584 36.9831 27.7382 36.9831C27.4196 36.9831 27.1595 36.7231 27.1595 36.4046V34.6707C27.1595 34.3521 26.9011 34.0922 26.5809 34.0922H24.8465C24.5279 34.0922 24.2678 33.8321 24.2678 33.5136C24.2678 33.1952 24.5263 32.9352 24.8465 32.9352H26.5809C26.9011 32.9352 27.1595 32.6768 27.1595 32.3567V30.6227C27.1595 30.3042 27.418 30.0442 27.7382 30.0442C28.0567 30.0442 28.3168 30.3042 28.3168 30.6227V32.3567C28.3168 32.6752 28.5753 32.9352 28.8955 32.9352H30.6298Z" fill="#D8A900"/>
<path id="Vector_5" d="M38.9328 32.7223C38.1135 31.9049 37.0359 31.38 35.8981 31.2451C35.5778 31.2061 35.2934 31.4352 35.256 31.7521C35.2186 32.069 35.4462 32.3566 35.7615 32.394C36.4637 32.4769 37.1122 32.745 37.6714 33.1659L35.7095 35.1273C35.4835 35.3532 35.4835 35.7188 35.7095 35.9447C35.8216 36.0568 35.9695 36.1137 36.1175 36.1137C36.2654 36.1137 36.4133 36.0568 36.5254 35.9447L38.4873 33.9833C39.6674 35.5677 39.5455 37.8265 38.1119 39.2645C37.4276 39.9486 36.5189 40.363 35.555 40.4313C35.2365 40.454 34.9975 40.7303 35.0186 41.0488C35.0398 41.3527 35.2933 41.5867 35.594 41.5867C35.607 41.5867 35.6217 41.5867 35.6347 41.5851C36.8765 41.4973 38.0452 40.9643 38.9279 40.0819C40.9499 38.0539 40.9499 34.7533 38.9279 32.7236L38.9328 32.7223Z" fill="#D8A900"/>
</g>
</g>
</svg>
