<svg width="52" height="52" viewBox="0 0 52 52" fill="none" xmlns="http://www.w3.org/2000/svg">
<circle cx="26" cy="26" r="26" fill="#FFE7E6"/>
<path d="M47.9838 24.1639C47.8719 21.2699 46.6412 18.5897 44.5205 16.6246C40.143 12.5684 33.2862 12.8366 29.2377 17.2259C27.3531 19.268 26.4178 21.8519 26.3828 24.4371L23.4738 25.3609L27.1346 15.3185C27.7028 13.7655 27.6311 12.0827 26.9335 10.5839C26.2395 9.08517 25 7.94578 23.4511 7.3761C20.2518 6.20516 16.6976 7.85989 15.5299 11.0695L9.85504 26.6457C9.38476 27.9341 9.37603 29.2803 9.73441 30.5056C8.15927 32.1428 7.60333 34.4986 8.28861 36.6704C8.78512 38.2462 9.86376 39.5381 11.3323 40.3006C12.2222 40.7669 13.1942 41 14.1749 41C14.8008 41 15.4284 40.9053 16.0455 40.709L31.8162 35.7096C32.4561 35.508 33.0417 35.203 33.5802 34.8121C34.7218 35.2153 35.935 35.4361 37.1745 35.4361C37.3179 35.4361 37.4647 35.4361 37.6081 35.4274C40.4944 35.3152 43.1675 34.0812 45.1273 31.9549C47.0871 29.8286 48.1081 27.0645 47.9909 24.1683L47.9838 24.1639ZM29.893 17.8358C31.8441 15.7183 34.5068 14.6455 37.1831 14.6455C39.4523 14.6455 41.7217 15.4308 43.5696 16.9962L30.1294 31.5712C26.4284 27.8148 26.2797 21.7533 29.8916 17.8357L29.893 17.8358ZM16.3686 11.3748C17.1518 9.22931 19.1797 7.89709 21.3319 7.89709C21.9315 7.89709 22.5452 8.00051 23.1396 8.21962C24.4647 8.70341 25.5207 9.67803 26.1151 10.9612C26.7095 12.2443 26.7689 13.6799 26.2847 15.0086L23.5189 22.5968L13.5959 18.9613L16.3616 11.3731L16.3686 11.3748ZM10.6937 26.9493L13.2986 19.8044L23.2216 23.4399L20.6167 30.5848C19.6185 33.3263 16.5801 34.7444 13.8458 33.74C11.1115 32.739 9.69725 29.6925 10.699 26.951L10.6937 26.9493ZM15.7689 39.847C14.421 40.2729 12.9945 40.1485 11.741 39.4964C10.4875 38.8461 9.56616 37.7417 9.14135 36.3955C8.59941 34.6777 8.97177 32.8319 10.0941 31.454C10.7707 32.8545 11.9613 34.0079 13.5312 34.5811C14.2287 34.8371 14.9402 34.958 15.643 34.958C18.136 34.958 20.4806 33.4277 21.4155 30.9684L23.447 37.4088L15.7617 39.8453L15.7689 39.847ZM31.536 34.8475L24.3036 37.1403L21.9225 29.5925L23.0764 26.4198L26.398 25.3645C26.5903 28.0167 27.7319 30.6058 29.8263 32.5498C30.6497 33.3123 31.571 33.9223 32.5571 34.3903C32.2302 34.5744 31.891 34.7321 31.5274 34.8443L31.536 34.8475ZM44.4607 31.3435C42.6618 33.2962 40.2142 34.4268 37.564 34.5303C35.0675 34.6284 32.6813 33.7906 30.7846 32.1831L44.2249 17.6081C45.9696 19.3767 46.9906 21.6958 47.0884 24.2005C47.1916 26.8579 46.2598 29.3924 44.4608 31.3453L44.4607 31.3435Z" fill="#FF6159" stroke="#FF6159" stroke-width="0.5"/>
</svg>
