<svg width="23" height="23" viewBox="0 0 23 23" fill="none" xmlns="http://www.w3.org/2000/svg">
<g id="Group">
<path id="Vector" d="M9.0627 4.87919C9.0627 5.0713 9.21858 5.22811 9.41171 5.22811C9.60386 5.22811 9.76072 5.07227 9.76072 4.87919C9.76072 2.57295 11.6372 0.696972 13.944 0.696972C16.2509 0.696972 18.1274 2.57295 18.1274 4.87919C18.1274 6.16317 17.7891 7.51955 17.1225 8.91037C17.0391 9.08385 17.1127 9.29163 17.2862 9.37496C17.4597 9.45827 17.6676 9.38476 17.7509 9.21128C18.4627 7.72539 18.8234 6.26806 18.8234 4.87901C18.8234 2.18847 16.6342 0 13.9431 0C11.8922 0 10.1323 1.27123 9.41172 3.06792C8.69113 1.27233 6.93134 0 4.88029 0C2.18904 0 0 2.18864 0 4.87901C0 11.8476 8.842 17.8128 9.21846 18.0637C9.27729 18.1029 9.34395 18.1226 9.4116 18.1226C9.47925 18.1226 9.54591 18.103 9.60474 18.0647C9.6214 18.0539 10.0273 17.7834 10.6704 17.2875C10.8234 17.1699 10.8508 16.9513 10.7332 16.7984C10.6155 16.6455 10.3959 16.618 10.244 16.7357C9.8773 17.0179 9.58807 17.2267 9.41161 17.3512C8.11161 16.4328 0.696859 10.9273 0.696859 4.88104C0.696859 2.5748 2.57333 0.698821 4.88018 0.698821C7.18703 0.698821 9.0635 2.5748 9.0635 4.88104L9.0627 4.87919Z" fill="white"/>
<path id="Vector_2" d="M1.04516 4.87859C1.04516 5.07067 1.20104 5.22747 1.39417 5.22747C1.58632 5.22747 1.74318 5.07165 1.74318 4.87859C1.74318 3.14987 3.15102 1.74258 4.88042 1.74258C5.07257 1.74258 5.22943 1.58676 5.22943 1.39371C5.22943 1.20163 5.07355 1.04483 4.88042 1.04483C2.76572 1.04483 1.04621 2.76474 1.04621 4.87754L1.04516 4.87859Z" fill="white"/>
<path id="Vector_3" d="M18.1265 12.5469C18.8952 12.5469 19.5207 11.9215 19.5207 11.1531C19.5207 10.3847 18.8952 9.75937 18.1265 9.75937H12.549C11.7804 9.75937 11.1549 10.3847 11.1549 11.1531C11.1549 11.9215 11.7804 12.5469 12.549 12.5469H13.2461V12.8958C13.2461 13.0879 13.0902 13.2447 12.8971 13.2447H12.2C11.6235 13.2447 11.1539 13.7132 11.1539 14.2905V21.9572C11.1539 22.5335 11.6226 23.003 12.2 23.003H18.4745C19.051 23.003 19.5206 22.5345 19.5206 21.9572V14.2905C19.5206 13.7142 19.0519 13.2447 18.4745 13.2447H17.7775C17.5853 13.2447 17.4284 13.0879 17.4284 12.8958V12.5469H18.1265ZM11.8521 11.1521C11.8521 10.7679 12.1648 10.4553 12.5491 10.4553H18.1266C18.5109 10.4553 18.8237 10.7679 18.8237 11.1521C18.8237 11.5363 18.5109 11.849 18.1266 11.849H12.5491C12.1648 11.849 11.8521 11.5363 11.8521 11.1521ZM17.7774 13.9405H18.4745C18.6666 13.9405 18.8235 14.0974 18.8235 14.2895V21.9561C18.8235 22.1482 18.6676 22.305 18.4745 22.305H12.2C12.0078 22.305 11.851 22.1482 11.851 21.9561V14.2895C11.851 14.0974 12.0069 13.9405 12.2 13.9405H12.897C13.4735 13.9405 13.9431 13.472 13.9431 12.8947V12.5458H16.7312V12.8947C16.7312 13.4711 17.2 13.9405 17.7774 13.9405Z" fill="white"/>
<path id="Vector_4" d="M16.3832 16.3801C16.3832 15.8037 15.9146 15.3343 15.3372 15.3343C14.7607 15.3343 14.2911 15.8028 14.2911 16.3801V17.0769H13.594C13.0176 17.0769 12.548 17.5454 12.548 18.1227C12.548 18.6991 13.0166 19.1685 13.594 19.1685H14.2911V19.8654C14.2911 20.4417 14.7597 20.9112 15.3372 20.9112C15.9136 20.9112 16.3832 20.4427 16.3832 19.8654V19.1685H17.0803C17.6568 19.1685 18.1264 18.7 18.1264 18.1227C18.1264 17.5464 17.6577 17.0769 17.0803 17.0769H16.3832V16.3801ZM17.0803 17.7738C17.2724 17.7738 17.4293 17.9306 17.4293 18.1227C17.4293 18.3148 17.2734 18.4717 17.0803 18.4717H16.0342C15.8411 18.4717 15.6852 18.6275 15.6852 18.8206V19.8664C15.6852 20.0585 15.5293 20.2153 15.3362 20.2153C15.144 20.2153 14.9872 20.0585 14.9872 19.8664V18.8206C14.9872 18.6285 14.8313 18.4717 14.6382 18.4717H13.5921C13.3999 18.4717 13.2431 18.3148 13.2431 18.1227C13.2431 17.9306 13.399 17.7738 13.5921 17.7738H14.6382C14.8313 17.7738 14.9872 17.618 14.9872 17.4249V16.3791C14.9872 16.187 15.1431 16.0302 15.3362 16.0302C15.5283 16.0302 15.6852 16.187 15.6852 16.3791V17.4249C15.6852 17.617 15.8411 17.7738 16.0342 17.7738H17.0803Z" fill="white"/>
<path id="Vector_5" d="M22.0882 17.6454C21.5941 17.1524 20.9441 16.8358 20.2579 16.7545C20.0647 16.7309 19.8932 16.8691 19.8706 17.0603C19.848 17.2514 19.9853 17.4249 20.1755 17.4474C20.599 17.4974 20.9902 17.6591 21.3274 17.913L20.1441 19.096C20.0078 19.2323 20.0078 19.4528 20.1441 19.589C20.2118 19.6566 20.301 19.6909 20.3902 19.6909C20.4794 19.6909 20.5686 19.6566 20.6363 19.589L21.8196 18.406C22.5313 19.3616 22.4578 20.724 21.5931 21.5914C21.1804 22.004 20.6323 22.2539 20.051 22.2951C19.8588 22.3088 19.7147 22.4754 19.7274 22.6675C19.7402 22.8508 19.8931 22.992 20.0745 22.992C20.0823 22.992 20.0912 22.992 20.099 22.991C20.848 22.9381 21.5529 22.6166 22.0853 22.0844C23.3049 20.8612 23.3049 18.8704 22.0853 17.6462L22.0882 17.6454Z" fill="white"/>
</g>
</svg>
