<svg width="58" height="58" viewBox="0 0 58 58" fill="none" xmlns="http://www.w3.org/2000/svg">
<circle cx="29" cy="29" r="29" fill="#FCD1FF"/>
<path d="M19.99 36.3327C19.99 35.902 19.6449 35.5151 19.1718 35.5151H15.7241V31.5533C15.7241 31.1227 15.379 30.7357 14.9059 30.7357C14.4312 30.7357 14.0878 31.0806 14.0878 31.5533V35.5151L10.6384 35.5134V33.059C10.6384 27.3307 15.2933 22.679 21.0256 22.679C23.7831 22.679 26.4127 23.7557 28.4378 25.7795C28.7391 26.0806 29.256 26.0386 29.559 25.7357C29.8604 25.4346 29.8604 24.8744 29.5152 24.5733C28.1365 23.1955 26.4985 22.2484 24.7306 21.6444C26.9713 20.3524 28.4797 17.94 28.4797 15.1844C28.4797 11.093 25.1178 7.7334 21.0235 7.7334C16.9292 7.7334 13.5673 11.093 13.5673 15.1844C13.5673 17.94 15.0757 20.3524 17.3164 21.6444C12.4917 23.2392 9 27.7612 9 33.0588V36.2888C9 36.7195 9.34511 37.1064 9.81815 37.1064H19.2137C19.6447 37.1081 19.99 36.7634 19.99 36.3327ZM15.1636 15.23C15.1636 12 17.7932 9.41596 20.9817 9.41596C24.1701 9.41596 26.7997 12.0437 26.7997 15.23C26.7997 18.4162 24.1701 21.044 20.9817 21.044C17.7915 21.044 15.1636 18.4162 15.1636 15.23Z" fill="#F23CFF"/>
<path d="M49.6829 22.1207L43.2623 15.6607C42.961 15.3595 42.4441 15.3595 42.099 15.6607C41.7977 15.9618 41.7977 16.4782 42.099 16.7811L43.4357 18.1168L38.9963 22.5514L35.6782 19.2356C35.3769 18.9345 34.86 18.9345 34.5149 19.2356C34.2136 19.5368 34.2136 20.0532 34.5149 20.3561L35.9375 21.7776L22.5774 35.1283C21.9748 35.7306 21.6296 36.5499 21.6296 37.4112C21.6296 37.8856 21.7155 38.3163 21.931 38.747L20.7677 39.9094C20.293 40.3838 20.0775 40.9861 20.0775 41.6321C20.0775 42.2781 20.3367 42.8803 20.7677 43.3548L20.8115 43.3985L16.889 47.3183C16.5876 47.6194 16.5876 48.1358 16.889 48.4387C17.0607 48.6103 17.2341 48.654 17.4496 48.654C17.6651 48.654 17.8805 48.5682 18.0102 48.4387L21.9327 44.5189L21.9765 44.5627C22.4512 45.0371 23.0539 45.2524 23.7003 45.2524C24.3468 45.2524 24.9495 44.9933 25.4242 44.5627L26.5875 43.4002C27.0184 43.5718 27.4494 43.7013 27.9242 43.7013C28.7423 43.7013 29.6043 43.4002 30.2087 42.7542L43.5687 29.4035L44.9862 30.82C45.1579 30.9916 45.3313 31.0354 45.5468 31.0354C45.7623 31.0354 45.9778 30.9496 46.1074 30.82C46.4087 30.5189 46.4087 30.0024 46.1074 29.6996L44.1243 27.6758L42.7876 26.34L47.227 21.9037L48.5637 23.2395C48.7354 23.4111 48.9088 23.4548 49.1243 23.4548C49.3398 23.4548 49.5552 23.369 49.6849 23.2395C49.9862 22.9384 49.9859 22.4218 49.6829 22.1207ZM23.0925 43.4387L21.8855 42.2325C21.7137 42.0609 21.67 41.8877 21.67 41.6723C21.67 41.457 21.7558 41.2416 21.8855 41.1121L22.9191 40.0792L25.2456 42.4041L24.212 43.437C23.9544 43.7398 23.3939 43.7399 23.0925 43.4387ZM40.417 30.2177L38.9087 28.7103C38.6073 28.4092 38.0905 28.4092 37.7454 28.7103C37.444 29.0115 37.444 29.5279 37.7454 29.8308L39.2538 31.3381L37.2706 33.3199L35.7622 31.8125C35.4609 31.5114 34.9441 31.5114 34.599 31.8125C34.2976 32.1136 34.2976 32.6301 34.599 32.9329L36.1074 34.4403L34.1242 36.422L32.6158 34.9147C32.3145 34.6136 31.7977 34.6136 31.4525 34.9147C31.1512 35.2158 31.1512 35.7323 31.4525 36.0351L32.9609 37.5425L30.9778 39.5242L29.4694 38.0169C29.1681 37.7158 28.6512 37.7158 28.3061 38.0169C28.0048 38.318 28.0048 38.8345 28.3061 39.1373L29.8145 40.6447L29.0401 41.5867C28.3937 42.2327 27.36 42.2327 26.7556 41.5867L23.7826 38.6158C23.4813 38.3147 23.3079 37.884 23.3079 37.4534C23.3079 37.0227 23.4796 36.592 23.7826 36.2909L37.1427 22.9402L42.4001 28.2361L40.417 30.2177ZM41.6678 25.2211L40.1595 23.7137L44.5989 19.2774L46.1073 20.7847L41.6678 25.2211Z" fill="#F23CFF"/>
</svg>
