<svg width="50" height="50" viewBox="0 0 50 50" fill="none" xmlns="http://www.w3.org/2000/svg">
<circle cx="24.9026" cy="24.9026" r="24.9026" fill="#E2F9E3"/>
<path d="M37.1048 12.2464H24.6028C24.4608 12.2464 24.3268 12.3459 24.3029 12.4865C24.2802 12.6271 24.3529 12.762 24.4858 12.8054C24.5085 12.8168 26.8754 14.2686 26.1349 30.9608H26.1383C26.1383 30.9666 26.1349 30.97 26.1349 30.9723V35.467C26.1349 36.8605 27.2626 37.9956 28.6471 37.9956H33.0606C34.445 37.9956 35.5728 36.8605 35.5728 35.467V30.9755C35.5728 30.9698 35.5694 30.9663 35.5694 30.9641H35.5728C34.8312 14.2719 37.1946 12.8236 37.198 12.8165C37.332 12.7697 37.4161 12.6325 37.3934 12.4919C37.3695 12.3513 37.2469 12.2461 37.1049 12.2461L37.1048 12.2464ZM34.9912 35.4705C34.9912 36.5416 34.1247 37.4138 33.0605 37.4138H28.647C27.5828 37.4138 26.7163 36.5416 26.7163 35.4705V31.2684H34.9912L34.9912 35.4705ZM26.8594 24.0986H29.5601C29.9031 24.4735 30.3688 24.6839 30.8537 24.6839C31.3398 24.6839 31.8077 24.4735 32.1473 24.0986H34.8481C34.8333 25.9802 34.8685 28.1578 34.9764 30.6831H26.7277C26.8356 28.1579 26.873 25.9803 26.8594 24.0986ZM26.806 21.7574H29.6907C29.7782 21.7574 29.8622 21.7162 29.9179 21.6465C30.1564 21.3447 30.496 21.1721 30.8514 21.1721C31.2058 21.1721 31.5465 21.3447 31.785 21.6465C31.8406 21.7162 31.9247 21.7574 32.0121 21.7574H34.8969C34.8764 22.3107 34.8617 22.896 34.8537 23.5133H32.0167C31.9292 23.5133 31.8452 23.5544 31.7896 23.6242C31.5511 23.9259 31.2115 24.0986 30.856 24.0986C30.5016 24.0986 30.1609 23.926 29.9224 23.6242C29.8668 23.5544 29.7828 23.5133 29.6953 23.5133H26.8549C26.8412 22.896 26.8264 22.3107 26.806 21.7574ZM34.9242 21.1721H32.1473C31.8043 20.7972 31.3387 20.5868 30.8538 20.5868C30.3677 20.5868 29.8998 20.7972 29.5602 21.1721H26.7833C26.6698 18.6938 26.4517 16.9059 26.1928 15.6118H35.517C35.2557 16.9059 35.0378 18.6937 34.9242 21.1721ZM35.642 15.0266H26.0654C25.8008 13.8994 25.5066 13.2295 25.2602 12.8317H36.4449C36.1973 13.2295 35.9066 13.8994 35.642 15.0266Z" fill="#109615" stroke="#109615" stroke-width="0.2"/>
<path d="M23.2398 17.5137H22.6583V15.7578C22.6583 15.2754 22.2653 14.8799 21.7861 14.8799H20.6231V12.5387C20.6231 12.3776 20.4925 12.2461 20.3323 12.2461H17.4249C17.2648 12.2461 17.1342 12.3776 17.1342 12.5387V14.8799H15.9712C15.4919 14.8799 15.0989 15.2754 15.0989 15.7578V17.5137H14.5174C13.7145 17.5137 13.0637 18.1687 13.0637 18.9769V36.5357C13.0637 37.3439 13.7145 37.9989 14.5174 37.9989H23.2398C24.0428 37.9989 24.6935 37.3439 24.6935 36.5357V18.9769C24.6935 18.1687 24.0428 17.5137 23.2398 17.5137ZM17.7156 12.8314H20.0416V14.8799H17.7156V12.8314ZM15.6804 15.7578C15.6804 15.5967 15.811 15.4652 15.9712 15.4652H21.7861C21.9462 15.4652 22.0768 15.5967 22.0768 15.7578V17.5137H15.6804V15.7578ZM24.112 36.5357C24.112 37.0181 23.7191 37.4136 23.2398 37.4136H14.5174C14.0382 37.4136 13.6452 37.0181 13.6452 36.5357V34.1945H24.112V36.5357ZM24.112 33.6092H13.6452V21.9034H24.112V33.6092ZM24.112 21.3181H13.6452V18.9769C13.6452 18.4945 14.0382 18.099 14.5174 18.099H23.2398C23.7191 18.099 24.112 18.4945 24.112 18.9769V21.3181Z" fill="#109615" stroke="#109615" stroke-width="0.2"/>
<path d="M18.8787 30.536C20.0008 30.536 20.9139 29.6169 20.9139 28.4875C20.9139 27.4484 19.2921 25.3266 19.1081 25.0867C18.998 24.9438 18.7595 24.9438 18.6493 25.0867C18.4653 25.3267 16.8435 27.4484 16.8435 28.4875C16.8435 29.6169 17.7566 30.536 18.8787 30.536ZM18.8787 25.7542C19.5181 26.6264 20.3324 27.9262 20.3324 28.4874C20.3324 29.2956 19.6816 29.9507 18.8787 29.9507C18.0757 29.9507 17.425 29.2956 17.425 28.4874C17.425 27.925 18.2393 26.623 18.8787 25.7542Z" fill="#109615" stroke="#109615" stroke-width="0.2"/>
<path d="M17.6248 13.417C17.3841 13.417 17.1887 13.6136 17.1887 13.856C17.1887 14.0983 17.3841 14.2949 17.6248 14.2949C17.8656 14.2949 18.061 14.0983 18.061 13.856C18.061 13.6136 17.8656 13.417 17.6248 13.417ZM17.6248 14.0023C17.5431 14.0023 17.4795 13.9383 17.4795 13.856C17.4795 13.7737 17.5431 13.7096 17.6248 13.7096C17.7066 13.7096 17.7702 13.7737 17.7702 13.856C17.7702 13.9383 17.7066 14.0023 17.6248 14.0023Z" fill="#109615" stroke="#109615" stroke-width="0.2"/>
</svg>
