<svg width="58" height="58" viewBox="0 0 58 58" fill="none" xmlns="http://www.w3.org/2000/svg">
<circle cx="29" cy="29" r="29" fill="#FCD1FF"/>
<path d="M42.891 34.8326L37.378 30.8905V30.8893C36.7868 30.4703 36.0502 30.3078 35.3368 30.441C34.6234 30.5729 33.993 30.987 33.5912 31.5905L32.3097 33.5354C31.0991 35.3727 24.7946 28.6207 25.1221 27.1987L25.1208 27.1999C25.1416 27.0008 25.254 26.8212 25.425 26.7173L27.4076 25.409L27.4088 25.4077C28.0123 25.0058 28.4264 24.3755 28.5584 23.662C28.6915 22.9486 28.529 22.212 28.11 21.6207L24.1669 16.1074C23.7051 15.4746 22.9917 15.0727 22.2112 15.0092C21.4306 14.9444 20.6598 15.2242 20.1015 15.7739L15.7843 20.0913C15.1259 20.7473 14.8572 21.6977 15.0734 22.6017C17.2967 32.7082 26.3386 41.7166 36.3974 43.9268C37.3014 44.143 38.2518 43.873 38.9077 43.2158L43.2249 38.8984C43.7758 38.3401 44.0555 37.5693 43.9908 36.7886C43.9273 36.0068 43.5254 35.2934 42.8914 34.8328L42.891 34.8326ZM41.8429 37.5153L37.5258 41.8327V41.8339C37.3462 42.011 37.0872 42.0831 36.8417 42.0232C32.0348 40.8346 27.6407 38.3633 24.1288 34.8706C20.6363 31.3585 18.1652 26.9642 16.9765 22.1571C16.9167 21.9116 16.9887 21.6526 17.1659 21.473L21.4843 17.1557C21.6309 17.0005 21.8397 16.9211 22.0523 16.9382C22.2649 16.9553 22.4579 17.0689 22.5776 17.2448L26.5195 22.7581C26.6331 22.9169 26.677 23.1148 26.6416 23.3066C26.6062 23.4984 26.4938 23.6682 26.3313 23.777C25.238 24.5564 23.209 25.4445 23.176 27.0044C22.9891 28.7746 24.5649 30.6619 26.4083 32.6522C29.0286 34.9733 31.617 37.3579 33.9136 34.6507L35.222 32.6668V32.668C35.3307 32.5055 35.5005 32.3944 35.6923 32.3589C35.884 32.3235 36.0819 32.3675 36.2407 32.4799L41.7525 36.422L41.7537 36.4207C41.9247 36.5441 42.0335 36.7371 42.0506 36.9473C42.0677 37.1586 41.9919 37.3662 41.8429 37.5153ZM31.7857 26.2361C32.3122 26.2544 32.73 26.6869 32.73 27.2134C32.73 27.7399 32.3122 28.1724 31.7857 28.1907C31.2592 28.1724 30.8414 27.7399 30.8414 27.2134C30.8414 26.6869 31.2592 26.2544 31.7857 26.2361ZM30.8085 19.1494C30.8085 18.8904 30.9111 18.6412 31.0943 18.458C31.2775 18.2747 31.5267 18.1721 31.7857 18.1721C34.1824 18.1746 36.4803 19.1287 38.1759 20.8231C39.8702 22.5187 40.8243 24.8167 40.8267 27.2136C40.8267 27.7536 40.3894 28.1909 39.8495 28.1909C39.3095 28.1909 38.8722 27.7536 38.8722 27.2136C38.8698 25.3347 38.1222 23.5326 36.7943 22.2048C35.4665 20.8769 33.6646 20.1292 31.7857 20.1268C31.5268 20.1268 31.2776 20.0241 31.0943 19.8409C30.9111 19.6577 30.8085 19.4084 30.8085 19.1494ZM30.8085 23.1822C30.8085 22.9232 30.9111 22.674 31.0943 22.4907C31.2775 22.3075 31.5267 22.2049 31.7857 22.2049C33.1136 22.2061 34.3864 22.7338 35.3257 23.6733C36.2651 24.6127 36.7928 25.8857 36.7941 27.2135C36.7867 27.7473 36.3518 28.1773 35.8168 28.1773C35.283 28.1773 34.8469 27.7473 34.8395 27.2135C34.8371 25.5276 33.4714 24.1618 31.7856 24.1594C31.5266 24.1594 31.2774 24.0568 31.0942 23.8735C30.911 23.6903 30.8085 23.4412 30.8085 23.1822Z" fill="#F23CFF"/>
</svg>
