<svg width="22" height="22" viewBox="0 0 22 22" fill="none" xmlns="http://www.w3.org/2000/svg">
<path fill-rule="evenodd" clip-rule="evenodd" d="M9.37487 0C11.7772 0 14.1801 0.912268 16.0071 2.73926C19.3982 6.13039 19.6408 11.5045 16.7376 15.1809L21.6768 20.1201C21.7793 20.2223 21.8605 20.3437 21.916 20.4773C21.9715 20.611 22 20.7542 22 20.8989C22 21.0436 21.9715 21.1869 21.916 21.3205C21.8605 21.4542 21.7793 21.5756 21.6768 21.6777C21.5746 21.7805 21.4531 21.862 21.3192 21.9177C21.1854 21.9733 21.0419 22.002 20.8969 22.002C20.752 22.002 20.6085 21.9733 20.4746 21.9177C20.3408 21.862 20.2193 21.7805 20.1171 21.6777L15.1778 16.7385C11.5009 19.6373 6.12761 19.3994 2.73835 16.0102C-0.915636 12.3562 -0.911337 6.39325 2.74275 2.73926C4.56974 0.912268 6.9725 0 9.37487 0ZM9.37268 2.18281C7.53669 2.18138 5.70039 2.8838 4.29377 4.29043C1.4805 7.10369 1.4805 11.6393 4.29377 14.4525C7.10703 17.2658 11.6383 17.2615 14.4516 14.4484C17.2648 11.6351 17.2648 7.11027 14.4516 4.29702C13.0449 2.89039 11.2087 2.18425 9.37268 2.18281Z" fill="#9D9D9D"/>
</svg>
