<svg width="50" height="50" viewBox="0 0 50 50" fill="none" xmlns="http://www.w3.org/2000/svg">
<path fill-rule="evenodd" clip-rule="evenodd" d="M38.078 31.6829C38.0442 31.7837 37.9365 31.8393 37.8358 31.8058C33.8903 30.5214 30.381 30.4612 26.8712 31.5014C23.3513 32.5451 19.8266 34.695 15.8656 37.8247C15.7826 37.8915 15.661 37.8769 15.5957 37.7926C15.5293 37.7098 15.5442 37.5881 15.6286 37.5226C19.6266 34.3633 23.1931 32.19 26.7647 31.131C30.3491 30.0684 33.9321 30.1277 37.9571 31.4394C38.0578 31.473 38.1131 31.5806 38.0792 31.6814L38.078 31.6829ZM24.7261 10.9485C24.7304 10.8423 24.6476 10.753 24.5402 10.7504C24.4341 10.7464 24.3446 10.8295 24.3417 10.9369C24.2068 14.9062 23.3713 18.5635 21.7875 22.395C20.1991 26.2352 17.8535 30.2551 14.7006 34.9442C14.6406 35.0327 14.6638 35.1524 14.7507 35.211C14.8391 35.2708 14.9588 35.2472 15.0176 35.1601C18.1835 30.4526 20.5377 26.4111 22.1398 22.5431C23.7436 18.6671 24.5876 14.9682 24.7236 10.9514L24.7261 10.9485ZM17.477 22.87C17.8391 19.119 17.306 15.6537 15.6793 12.6455C15.6291 12.552 15.5124 12.5171 15.4176 12.569C15.324 12.6195 15.2888 12.7363 15.3404 12.831C16.9281 15.7697 17.4494 19.1595 17.0946 22.8358C16.712 26.7988 15.31 31.0937 13.1309 35.5076C13.0847 35.6029 13.1221 35.7174 13.2174 35.766C13.3125 35.812 13.4282 35.7728 13.4759 35.6787C15.6766 31.2244 17.0908 26.8863 17.4785 22.8735L17.477 22.87ZM20.5052 17.3123C20.2667 19.5592 19.7587 21.4617 19.2458 23.2602C19.216 23.362 19.2766 23.4692 19.3768 23.4975C19.4785 23.5271 19.5858 23.4662 19.6144 23.3658C20.1313 21.5537 20.6435 19.6376 20.8854 17.3521C21.1274 15.0692 21.0988 12.4289 20.5307 9.1782C20.5126 9.07264 20.4129 9.00326 20.3087 9.02288C20.2032 9.04131 20.1335 9.14126 20.1529 9.24541C20.715 12.4597 20.7435 15.0656 20.505 17.3128L20.5052 17.3123ZM35.8561 26.1059C34.3848 26.3329 33.0815 26.655 31.8914 27.0335C31.791 27.066 31.734 27.1741 31.7662 27.2745C31.7984 27.3749 31.9064 27.4317 32.0068 27.3991C33.1775 27.0263 34.4626 26.7083 35.9117 26.4846C37.3622 26.2621 38.9793 26.1336 40.8163 26.1367C40.9234 26.1366 41.0101 26.0511 41.0092 25.9453C41.0095 25.8382 40.9242 25.7517 40.8185 25.7529C38.9628 25.7487 37.3261 25.8803 35.8547 26.1046L35.8561 26.1059ZM23.118 7.08952L24.0453 7.99044L23.4739 9.13925C23.4416 9.19496 23.4382 9.26536 23.4698 9.32611C23.52 9.41963 23.6354 9.4559 23.729 9.40544L24.8749 8.79933L25.7986 9.70453C25.8417 9.74576 25.9017 9.767 25.9642 9.75628C26.0686 9.73928 26.1382 9.63932 26.1201 9.53375L25.9006 8.25789L27.038 7.66175C27.0966 7.6355 27.1397 7.58149 27.1499 7.51446C27.165 7.40999 27.0919 7.31184 26.9876 7.29709L25.7066 7.11336L25.4923 5.83704C25.4834 5.77829 25.4458 5.72468 25.388 5.69795C25.2929 5.65198 25.1784 5.6897 25.1296 5.78521L24.5555 6.94878L23.2888 6.76249C23.2255 6.74815 23.1583 6.76721 23.1096 6.81642C23.0353 6.89297 23.0376 7.01446 23.1139 7.08852L23.118 7.08952ZM27.1327 21.0738C26.9406 20.9119 26.6994 20.8429 26.4671 20.8644C26.2334 20.8847 26.0084 20.9929 25.8461 21.1855C25.6837 21.3782 25.6141 21.6197 25.6349 21.852C25.6545 22.0858 25.7632 22.3091 25.9554 22.471C26.1475 22.6329 26.3887 22.7019 26.6197 22.6818C26.8534 22.6615 27.077 22.5522 27.2393 22.3595C27.4017 22.1668 27.4713 21.9254 27.4519 21.6942C27.4323 21.4605 27.3248 21.2357 27.1327 21.0738ZM31.3365 11.1838C31.5827 11.3913 31.722 11.6795 31.7471 11.9789C31.7722 12.2783 31.6843 12.5848 31.475 12.8332C31.4065 12.9145 31.4166 13.0353 31.4977 13.1037C31.5788 13.172 31.6996 13.1615 31.7682 13.0802C31.9762 12.8333 32.2646 12.6932 32.564 12.6672C32.8633 12.6412 33.1695 12.7283 33.4171 12.937C33.4982 13.0053 33.619 12.9948 33.6875 12.9135C33.7561 12.8322 33.7459 12.7113 33.6648 12.643C33.4186 12.4355 33.2794 12.1474 33.2542 11.848C33.2291 11.5486 33.3171 11.242 33.5263 10.9937C33.5949 10.9123 33.5847 10.7915 33.5036 10.7232C33.4225 10.6548 33.3017 10.6653 33.2332 10.7467C33.0251 10.9936 32.7367 11.1337 32.4374 11.1597C32.138 11.1857 31.8319 11.0985 31.5842 10.8899C31.5031 10.8215 31.3823 10.832 31.3138 10.9133C31.2452 10.9947 31.2554 11.1155 31.3365 11.1838ZM26.8757 13.6851C26.89 13.8558 27.038 13.9805 27.2087 13.9657L27.5947 13.9322L27.6271 14.3182C27.6414 14.489 27.7894 14.6137 27.9601 14.5988C28.1308 14.584 28.2558 14.4356 28.2415 14.2649L28.2091 13.8788L28.5951 13.8453C28.7657 13.8305 28.8908 13.6821 28.8764 13.5114C28.8621 13.3406 28.7141 13.2159 28.5434 13.2308L28.1575 13.2643L28.1251 12.8782C28.1107 12.7075 27.9627 12.5828 27.7921 12.5976C27.6214 12.6124 27.4963 12.7609 27.5107 12.9316L27.5431 13.3176L27.1571 13.3512C26.9864 13.366 26.8614 13.5144 26.8757 13.6851ZM39.215 20.9905L40.2638 21.7473L39.8608 22.9793C39.8269 23.0801 39.8836 23.1889 39.9829 23.2213C40.0481 23.2421 40.1169 23.2269 40.1664 23.1855L41.2016 22.4277L42.2467 23.1887C42.3327 23.2514 42.4528 23.233 42.5156 23.1468C42.5559 23.0904 42.5633 23.021 42.5384 22.961L42.14 21.7443L43.1894 20.9812C43.2754 20.9195 43.2944 20.7988 43.2315 20.7117C43.1942 20.6607 43.135 20.6328 43.0768 20.6326L41.7826 20.6378L41.3843 19.4065C41.3521 19.3062 41.243 19.2508 41.1425 19.2834C41.0782 19.3048 41.0323 19.3564 41.0164 19.4187L40.6218 20.6407L39.3271 20.6407C39.22 20.6408 39.1359 20.7261 39.1343 20.8321C39.1343 20.8956 39.1656 20.9537 39.2134 20.9866L39.215 20.9905ZM31.068 18.001L29.908 18.7221C29.8577 18.7529 29.8213 18.8077 29.8187 18.8714C29.8103 18.9766 29.8908 19.0688 29.996 19.0769L31.3553 19.1705L31.6743 20.4814C31.6849 20.544 31.7267 20.6012 31.7912 20.6287C31.8897 20.6677 32.0021 20.6209 32.0414 20.5223L32.5554 19.2568L33.9152 19.3556C33.975 19.3596 34.0353 19.3372 34.0762 19.2887C34.1447 19.2073 34.1346 19.0865 34.0535 19.0182L33.0105 18.1418L33.5273 16.8787C33.5504 16.8225 33.5463 16.758 33.5126 16.7028C33.4561 16.6137 33.3387 16.5856 33.247 16.6425L32.0898 17.366L31.0607 16.4964C31.0147 16.4528 30.9481 16.4308 30.8807 16.4472C30.7784 16.4733 30.7145 16.5781 30.7402 16.6803L31.0682 18.0037L31.068 18.001ZM18.2142 9.18353C18.0221 9.02165 17.7809 8.95265 17.5499 8.97271C17.3162 8.993 17.0926 9.10236 16.9303 9.29504C16.7679 9.4877 16.6983 9.72919 16.7177 9.96032C16.7373 10.1941 16.846 10.4174 17.0381 10.5793C17.2303 10.7412 17.4714 10.8102 17.7025 10.7901C17.9362 10.7698 18.1612 10.6617 18.3235 10.469C18.4859 10.2763 18.5555 10.0349 18.5347 9.80253C18.5151 9.56879 18.4064 9.34543 18.2142 9.18353ZM37.359 17.9601C37.5511 18.122 37.7923 18.191 38.0234 18.171C38.2571 18.1507 38.4821 18.0425 38.6444 17.8498C38.8068 17.6572 38.8764 17.4157 38.8556 17.1833C38.836 16.9496 38.7273 16.7262 38.5351 16.5644C38.343 16.4025 38.1019 16.3335 37.8708 16.3535C37.6371 16.3738 37.4135 16.4832 37.2512 16.6759C37.0888 16.8685 37.0192 17.11 37.0386 17.3411C37.0582 17.5749 37.1669 17.7982 37.359 17.9601ZM38.8375 27.8988C38.8232 27.7281 38.6752 27.6034 38.5045 27.6182C38.3339 27.633 38.2088 27.7814 38.2231 27.9521L38.2556 28.3382L37.8696 28.3717C37.6989 28.3865 37.5739 28.535 37.5882 28.7057C37.6025 28.8764 37.7505 29.0011 37.9212 28.9863L38.3072 28.9527L38.3396 29.3388C38.3539 29.5095 38.5019 29.6342 38.6726 29.6194C38.8433 29.6046 38.9683 29.4562 38.954 29.2855L38.9216 28.8994L39.3075 28.8659C39.4782 28.8511 39.6033 28.7026 39.5889 28.5319C39.5746 28.3612 39.4266 28.2365 39.2559 28.2513L38.87 28.2848L38.8375 27.8988ZM18.7562 5.86022C18.9782 6.04729 19.1046 6.30749 19.1259 6.57678C19.1484 6.84467 19.0687 7.12407 18.8811 7.3467C18.8125 7.42805 18.8227 7.54886 18.9038 7.61721C18.9849 7.68555 19.1057 7.67507 19.1742 7.59372C19.3618 7.37109 19.6222 7.24396 19.8915 7.22192C20.1593 7.19866 20.4383 7.2776 20.6603 7.46466C20.7415 7.53301 20.8622 7.52252 20.9308 7.44118C20.9993 7.35983 20.9892 7.23902 20.9081 7.17067C20.6861 6.98361 20.5597 6.72341 20.5384 6.45411C20.516 6.18623 20.5956 5.90683 20.7832 5.68419C20.8518 5.60285 20.8416 5.48204 20.7605 5.41369C20.6794 5.34534 20.5586 5.35583 20.4901 5.43718C20.3025 5.65981 20.0421 5.78694 19.7728 5.80898C19.505 5.83224 19.226 5.7533 19.004 5.56623C18.9228 5.49788 18.8021 5.50837 18.7335 5.58972C18.665 5.67107 18.6751 5.79187 18.7562 5.86022ZM42.2162 33.3763C41.8732 33.0873 41.6822 32.6872 41.6462 32.2737C41.6113 31.8587 41.7343 31.4327 42.0241 31.0888C42.0926 31.0075 42.0825 30.8866 42.0013 30.8183C41.9202 30.75 41.7994 30.7604 41.7309 30.8418C41.4411 31.1857 41.0407 31.3779 40.6273 31.4151C40.2124 31.4511 39.787 31.3294 39.444 31.0404C39.3629 30.972 39.2421 30.9825 39.1736 31.0639C39.105 31.1452 39.1152 31.266 39.1963 31.3344C39.5393 31.6234 39.7302 32.0235 39.7662 32.4369C39.8011 32.8519 39.6782 33.2779 39.3884 33.6218C39.3198 33.7032 39.33 33.824 39.4111 33.8923C39.4922 33.9607 39.613 33.9502 39.6815 33.8689C39.9713 33.5249 40.3718 33.3327 40.7852 33.2955C41.2 33.2595 41.6255 33.3813 41.9684 33.6703C42.0496 33.7386 42.1703 33.7281 42.2389 33.6468C42.3074 33.5654 42.2973 33.4446 42.2162 33.3763ZM15.3507 11.2562C15.4193 11.1749 15.4091 11.0541 15.328 10.9857C15.0818 10.7783 14.9426 10.4901 14.9174 10.1907C14.8923 9.89132 14.9803 9.58474 15.1895 9.33641C15.2581 9.25506 15.2479 9.13425 15.1668 9.06591C15.0857 8.99756 14.9649 9.00805 14.8964 9.08939C14.6883 9.33629 14.3999 9.47643 14.1006 9.50241C13.8013 9.52841 13.4951 9.44124 13.2474 9.23259C13.1663 9.16424 13.0455 9.17473 12.977 9.25607C12.9085 9.33742 12.9186 9.45823 12.9997 9.52658C13.2459 9.73403 13.3852 10.0222 13.4103 10.3216C13.4355 10.621 13.3475 10.9276 13.1382 11.1759C13.0697 11.2573 13.0798 11.3781 13.1609 11.4464C13.2421 11.5148 13.3628 11.5043 13.4314 11.4229C13.6394 11.176 13.9278 11.0359 14.2272 11.0099C14.5265 10.9839 14.8327 11.0711 15.0803 11.2797C15.1614 11.3481 15.2822 11.3376 15.3507 11.2562ZM43.9431 26.4317C44.1054 26.239 44.1751 25.9975 44.1557 25.7664C44.136 25.5326 44.0274 25.3093 43.8352 25.1474C43.6431 24.9855 43.4019 24.9165 43.1709 24.9366C42.9372 24.9569 42.7136 25.0662 42.5513 25.2589C42.3889 25.4516 42.3193 25.693 42.3387 25.9242C42.3583 26.1579 42.467 26.3813 42.6591 26.5432C42.8512 26.7051 43.0924 26.7741 43.3235 26.754C43.5572 26.7337 43.7807 26.6243 43.9431 26.4317ZM34.2255 34.2502C34.2112 34.0795 34.0632 33.9548 33.8925 33.9696L33.5065 34.0032L33.4741 33.6171C33.4598 33.4464 33.3118 33.3217 33.1411 33.3365C32.9704 33.3513 32.8454 33.4997 32.8597 33.6705L32.8921 34.0565L32.5062 34.09C32.3355 34.1049 32.2104 34.2533 32.2248 34.424C32.2391 34.5947 32.3871 34.7194 32.5578 34.7046L32.9437 34.6711L32.9762 35.0571C32.9905 35.2278 33.1385 35.3526 33.3092 35.3377C33.4798 35.3229 33.6049 35.1745 33.5906 35.0038L33.5581 34.6177L33.9441 34.5842C34.1148 34.5694 34.2398 34.421 34.2255 34.2502ZM13.5614 15.0201L13.9474 14.9865C14.118 14.9717 14.2431 14.8233 14.2288 14.6526C14.2144 14.4819 14.0664 14.3572 13.8958 14.372L13.5098 14.4055L13.4774 14.0194C13.463 13.8487 13.315 13.724 13.1444 13.7388C12.9737 13.7537 12.8486 13.9021 12.863 14.0728L12.8954 14.4589L12.5094 14.4924C12.3388 14.5072 12.2137 14.6556 12.228 14.8263C12.2424 14.997 12.3904 15.1218 12.561 15.1069L12.947 15.0734L12.9794 15.4595C12.9938 15.6302 13.1418 15.7549 13.3124 15.7401C13.4831 15.7252 13.6082 15.5768 13.5938 15.4061L13.5614 15.0201ZM37.2929 35.1265C37.1008 34.9647 36.8596 34.8957 36.6285 34.9157C36.3948 34.936 36.1713 35.0454 36.0089 35.238C35.8466 35.4307 35.7769 35.6722 35.7963 35.9033C35.816 36.1371 35.9246 36.3604 36.1168 36.5223C36.3089 36.6842 36.5501 36.7532 36.7811 36.7332C37.0148 36.7129 37.2384 36.6035 37.4007 36.4108C37.5631 36.2182 37.6327 35.9767 37.6133 35.7455C37.5937 35.5118 37.485 35.2884 37.2929 35.1265ZM14.9526 19.05C14.7605 18.8882 14.5193 18.8192 14.2882 18.8392C14.0546 18.8595 13.831 18.9689 13.6686 19.1616C13.5063 19.3542 13.4367 19.5957 13.4561 19.8268C13.4757 20.0606 13.5844 20.2839 13.7765 20.4458C13.9686 20.6077 14.2098 20.6767 14.4409 20.6567C14.6745 20.6364 14.8981 20.527 15.0605 20.3343C15.2228 20.1417 15.2924 19.9002 15.273 19.669C15.2534 19.4353 15.1447 19.2119 14.9526 19.05ZM24.2562 24.5344C24.2418 24.3637 24.0938 24.239 23.9232 24.2538L23.5372 24.2873L23.5048 23.9013C23.4904 23.7306 23.3424 23.6059 23.1718 23.6207C23.0011 23.6355 22.876 23.7839 22.8904 23.9546L22.9228 24.3407L22.5368 24.3742C22.3662 24.389 22.2411 24.5375 22.2554 24.7082C22.2698 24.8789 22.4178 25.0036 22.5884 24.9888L22.9744 24.9553L23.0068 25.3413C23.0212 25.512 23.1692 25.6367 23.3398 25.6219C23.5105 25.6071 23.6356 25.4587 23.6212 25.288L23.5888 24.9019L23.9748 24.8684C24.1454 24.8536 24.2705 24.7051 24.2562 24.5344ZM38.1702 22.6116C38.2742 22.5894 38.3409 22.487 38.3204 22.3843C38.2985 22.2804 38.1963 22.2139 38.0936 22.2347C34.1593 23.0512 30.6571 24.5101 27.108 26.7469C23.5664 28.9803 19.9839 31.9871 15.8816 35.9055C15.8045 35.9797 15.8027 36.1002 15.8766 36.1771C15.9505 36.254 16.071 36.2555 16.1481 36.1813C20.2345 32.2788 23.7995 29.287 27.3137 27.0689C30.82 24.857 34.2827 23.4162 38.1727 22.6087L38.1702 22.6116Z" fill="white"/>
</svg>
