<svg width="20" height="20" viewBox="0 0 20 20" fill="none" xmlns="http://www.w3.org/2000/svg">
<path d="M9.90757 0C4.44459 0 0 4.48015 0 9.98683C0 15.4935 4.44459 19.9737 9.90757 19.9737C15.3706 19.9737 19.8151 15.4935 19.8151 9.98683C19.8151 4.48015 15.3706 0 9.90757 0ZM9.90757 1.49803C14.5674 1.49803 18.329 5.28975 18.329 9.98683C18.329 14.6839 14.5674 18.4757 9.90757 18.4757C5.24775 18.4757 1.48614 14.6839 1.48614 9.98683C1.48614 5.28975 5.24775 1.49803 9.90757 1.49803ZM9.90757 2.74638C9.4972 2.74638 9.16451 3.08174 9.16451 3.49539V9.98683C9.16451 10.4005 9.4972 10.7358 9.90757 10.7358H15.8521C16.2625 10.7358 16.5952 10.4005 16.5952 9.98683C16.5952 9.57318 16.2625 9.23782 15.8521 9.23782H10.6506V3.49539C10.6506 3.08174 10.318 2.74638 9.90757 2.74638Z" fill="#109615"/>
</svg>
